<svg width="261" height="41" viewBox="0 0 261 41" fill="none" xmlns="http://www.w3.org/2000/svg">
<path d="M55.2807 13.3614C63.1223 15.7046 66.2068 18.6378 65.7152 23.3462C65.4103 26.2464 63.6744 28.6034 60.9525 29.8107C59.4528 30.4747 57.4423 30.8533 55.841 30.7737C53.3746 30.7216 51.0399 30.1674 48.8811 29.1192C48.101 28.7378 46.9502 27.986 46.0575 27.2699L46.0548 27.2671C45.6373 26.9159 45.5879 26.6882 45.8735 26.2629C45.9477 26.1476 46.0823 25.9419 46.3954 25.4699C46.6645 25.0666 46.931 24.6578 46.9447 24.6385C47.2798 24.1337 47.6341 24.1337 48.1203 24.4684C48.123 24.4712 48.1669 24.5041 48.2933 24.5974C48.3922 24.6715 48.4553 24.7154 48.4663 24.7236C50.6856 26.3836 53.251 27.3193 55.8081 27.3714C59.3045 27.2644 61.771 25.6949 62.1665 23.3682C62.6032 20.8082 60.4856 18.6131 56.3492 17.4086C54.9017 16.9888 51.7403 15.8034 50.8559 15.3397C47.7522 13.6111 46.258 11.2596 46.4146 8.33198C46.659 4.28209 50.3752 1.20626 55.1214 1.10474C57.2061 1.06358 59.2935 1.45595 61.3041 2.2544C62.0292 2.54251 63.2981 3.19828 63.7568 3.5248C64.2869 3.9007 64.2869 4.15863 64.0287 4.64428C63.993 4.70739 63.853 4.90768 63.4959 5.41804C63.1169 5.95857 63.0042 6.1232 62.9713 6.17808C62.6609 6.58142 62.4 6.7049 61.8671 6.38387C59.7742 5.04488 57.6511 4.41105 55.2505 4.40556C52.2924 4.51532 50.1198 6.26588 50.0154 8.5899C50.0127 10.6834 51.6744 12.2035 55.2807 13.3614Z" fill="#3E3E3E"/>
<path d="M77.0559 12.187C81.8405 12.187 85.7902 16.0449 85.8094 20.7725V30.0082C85.8094 30.5405 85.6721 30.6667 85.1474 30.6667H82.9501C82.42 30.6667 82.2882 30.5405 82.2882 30.0082V20.7999C82.2772 17.9491 79.9371 15.6415 77.0559 15.6415C74.1802 15.6415 71.8455 17.9381 71.8235 20.7807V30.0082C71.8235 30.4664 71.6423 30.6667 71.1616 30.6667H68.9588C68.4342 30.6667 68.2969 30.4719 68.2969 30.0082V1.75227C68.2969 1.26661 68.4342 1.09375 68.9588 1.09375H71.1616C71.634 1.09375 71.8235 1.27758 71.8235 1.75227V13.9129C73.326 12.8017 75.1525 12.187 77.0559 12.187Z" fill="#3E3E3E"/>
<path d="M97.631 12.2063C92.4014 12.2063 88.1606 16.3577 88.1606 21.4777C88.1606 26.6004 92.4014 30.7491 97.631 30.7491C102.861 30.7491 107.099 26.5977 107.099 21.4777C107.099 16.3577 102.861 12.2063 97.631 12.2063ZM97.6283 27.3412C94.3158 27.3412 91.6324 24.7154 91.6324 21.4749C91.6324 18.2345 94.3158 15.6086 97.6283 15.6086C100.941 15.6086 103.624 18.2345 103.624 21.4749C103.624 24.7127 100.941 27.3412 97.6283 27.3412Z" fill="#3E3E3E"/>
<path d="M168.332 22.726C168.348 22.726 168.365 22.726 168.381 22.7232C168.958 22.6958 169.417 22.2074 169.417 21.6092C169.417 21.5818 169.417 21.5571 169.414 21.5297C169.414 21.5187 169.414 21.5022 169.414 21.4611C169.414 16.3411 165.396 12.1897 160.435 12.1897C155.475 12.1897 151.457 16.3411 151.457 21.4611C151.457 21.8452 151.479 22.2239 151.522 22.6025L151.539 22.7232H151.542C151.789 24.5753 152.583 26.2655 153.816 27.6237C153.819 27.6265 153.819 27.6265 153.827 27.6347C155.2 29.1465 157.071 30.181 159.15 30.5678L159.312 30.598V30.5925C159.383 30.6035 159.46 30.6172 159.556 30.631C162.402 30.9739 164.794 30.513 166.736 29.5362C167.263 29.27 167.714 28.9874 168.09 28.7048C168.222 28.606 168.337 28.5127 168.431 28.4277C168.488 28.3783 168.527 28.3399 168.549 28.3179C169.051 27.8021 169.073 27.5771 168.774 27.1106C168.079 26.0049 167.689 25.4643 167.689 25.4643C167.417 25.1241 167.173 25.0473 166.824 25.3518C166.764 25.404 166.706 25.4396 166.678 25.4726C164.605 27.3137 161.886 27.6731 159.515 27.1765C159.029 27.0448 158.573 26.8801 158.153 26.6798C156.535 25.8677 155.365 24.4189 155.027 22.7178H168.293C168.299 22.726 168.315 22.726 168.332 22.726ZM155.239 19.3264C155.928 17.0847 158.007 15.5893 160.438 15.5893C162.781 15.5893 164.975 17.1862 165.728 19.3264H155.239Z" fill="#3E3E3E"/>
<path d="M119.096 12.1597C116.918 12.1597 114.855 12.9087 113.207 14.2505V12.8182C113.207 12.3188 113.07 12.1597 112.548 12.1597H110.452C109.927 12.1597 109.79 12.3051 109.79 12.8182V39.4964C109.79 39.9793 109.927 40.1549 110.452 40.1549H112.548C113.072 40.1549 113.207 39.9848 113.207 39.4964V28.6089C114.855 29.9534 116.918 30.7025 119.096 30.7025C124.235 30.7025 128.401 26.551 128.401 21.4311C128.401 16.3111 124.235 12.1597 119.096 12.1597ZM119.093 27.2919C115.899 27.2919 113.286 24.7511 113.207 21.5765V21.2747C113.286 18.1028 115.899 15.5593 119.093 15.5593C122.345 15.5593 124.982 18.1851 124.982 21.4256C124.982 24.666 122.345 27.2919 119.093 27.2919Z" fill="#3E3E3E"/>
<path d="M147.991 22.726C148.007 22.726 148.023 22.726 148.04 22.7232C148.617 22.6958 149.075 22.2074 149.075 21.6092C149.075 21.5818 149.075 21.5571 149.073 21.5297C149.073 21.5187 149.073 21.5022 149.073 21.4611C149.073 16.3411 145.054 12.1897 140.094 12.1897C135.136 12.1897 131.115 16.3411 131.115 21.4611C131.115 21.8452 131.137 22.2239 131.181 22.6025L131.198 22.7232H131.2C131.448 24.5753 132.241 26.2655 133.475 27.6237C133.477 27.6265 133.477 27.6265 133.486 27.6347C134.859 29.1465 136.729 30.181 138.809 30.5678L138.971 30.598V30.5925C139.042 30.6035 139.119 30.6172 139.212 30.631C142.058 30.9739 144.453 30.513 146.392 29.5362C146.919 29.27 147.37 28.9874 147.746 28.7048C147.878 28.606 147.993 28.5127 148.087 28.4277C148.144 28.3783 148.183 28.3399 148.205 28.3179C148.707 27.8021 148.729 27.5771 148.43 27.1106C147.735 26.0049 147.345 25.4643 147.345 25.4643C147.073 25.1241 146.829 25.0473 146.48 25.3518C146.419 25.404 146.362 25.4396 146.334 25.4726C144.261 27.3137 141.541 27.6731 139.171 27.1765C138.685 27.0448 138.229 26.8801 137.809 26.6798C136.191 25.8677 135.021 24.4189 134.683 22.7178H147.949C147.96 22.726 147.977 22.726 147.991 22.726ZM134.9 19.3264C135.59 17.0847 137.669 15.5893 140.097 15.5893C142.44 15.5893 144.634 17.1862 145.389 19.3264H134.9Z" fill="#3E3E3E"/>
<path d="M174.231 30.7108H179.642V19.3266H193.494V13.8938H179.642V7.16597H193.941V1.7771H174.231V30.7108Z" fill="#3E3E3E"/>
<path d="M205.81 10.5215C203.107 10.5215 200.525 11.5833 198.528 13.5123C196.597 15.5098 195.532 18.1246 195.532 20.8739C195.532 23.5794 196.595 26.1942 198.528 28.2356L198.531 28.2384C200.55 30.192 203.132 31.2703 205.81 31.2703C208.543 31.2703 211.113 30.1947 213.047 28.2384C215.005 26.2546 216.088 23.6397 216.088 20.8767C216.088 18.1136 215.008 15.4988 213.05 13.515C211.185 11.5833 208.614 10.5215 205.81 10.5215ZM205.81 26.1201C203.022 26.1201 200.753 23.7659 200.753 20.8739C200.753 17.982 203.022 15.6305 205.81 15.6305C208.619 15.6305 210.907 17.9847 210.907 20.8739C210.907 23.7659 208.622 26.1201 205.81 26.1201Z" fill="#3E3E3E"/>
<path d="M228.17 10.6121C225.467 10.6121 222.885 11.6739 220.889 13.6028C218.958 15.6003 217.892 18.2152 217.892 20.9645C217.892 23.6699 218.955 26.2848 220.886 28.3262L220.889 28.3289C222.907 30.2853 225.489 31.3609 228.167 31.3609C230.9 31.3609 233.471 30.2853 235.405 28.3289C237.363 26.3452 238.445 23.7303 238.445 20.9673C238.445 18.2015 237.366 15.5866 235.407 13.6056C233.545 11.6739 230.977 10.6121 228.17 10.6121ZM228.17 26.208C225.382 26.208 223.113 23.8565 223.113 20.9645C223.113 18.0725 225.382 15.7183 228.17 15.7183C230.98 15.7183 233.268 18.0725 233.268 20.9645C233.268 23.8538 230.983 26.208 228.17 26.208Z" fill="#3E3E3E"/>
<path d="M255.208 1.88403V12.3709H255.183C253.771 11.0704 251.873 10.6533 250.058 10.6533C247.297 10.6533 244.993 11.5094 243.087 13.4383C241.156 15.4358 240.31 18.0177 240.31 20.7396C240.31 23.4615 241.151 26.2821 243.084 28.2796L243.087 28.2824C245.034 30.2113 247.602 31.0482 250.322 31.0482C251.849 31.0482 253.62 30.8396 255.186 29.3004L255.208 29.2784V30.6613H260.108V1.88403H255.208ZM250.319 26.0352C247.671 26.0352 245.433 23.5767 245.433 20.6655C245.433 17.7543 247.671 15.2959 250.319 15.2959C252.967 15.2959 255.205 17.7543 255.205 20.6655C255.205 23.5767 252.969 26.0352 250.319 26.0352Z" fill="#3E3E3E"/>
<path d="M30.3653 0H17.496H4.6268L0 6.84555L1.20388 32.9405C1.28335 34.6528 2.68788 36 4.39437 36H9.23175V26.3045C9.23175 25.8953 9.08276 25.5002 8.81258 25.1948L7.51334 23.7219C7.19946 23.3647 7.02463 22.742 7.02463 22.265V13.1642C7.02463 12.791 7.3266 12.4876 7.69809 12.4876H8.94966V20.2752C8.94966 20.6384 9.24169 20.9318 9.60524 20.9318H9.69662C10.0582 20.9318 10.3502 20.6384 10.3502 20.2752V12.4876H11.2521H12.154V20.2752C12.154 20.6384 12.4461 20.9318 12.8096 20.9318H12.901C13.2626 20.9318 13.5566 20.6384 13.5566 20.2752V12.4876H14.8082C15.1796 12.4876 15.4816 12.789 15.4816 13.1642V22.265C15.4816 22.742 15.3068 23.3667 14.9929 23.7219L13.6937 25.1948C13.4235 25.5002 13.2745 25.8953 13.2745 26.3045V36H17.502H21.7076V25.5002C21.7076 24.9154 21.4235 24.4484 21.0302 24.0432C20.8037 23.8796 20.5912 23.694 20.3905 23.4904C20.3885 23.4904 20.3885 23.4884 20.3865 23.4884V23.4864C19.3158 22.3947 18.6363 20.7462 18.6363 18.8482C18.6363 15.4234 20.8494 11.9587 23.577 11.9587C26.3066 11.9587 28.5197 15.4254 28.5197 18.8482C28.5197 20.7462 27.8403 22.3947 26.7695 23.4864V23.4884C26.7675 23.4904 26.7675 23.4904 26.7655 23.4904C26.5649 23.694 26.3523 23.8796 26.1278 24.0432C25.7325 24.4484 25.4504 24.9154 25.4504 25.5002V36H30.6036C32.3101 36 33.7147 34.6528 33.7941 32.9405L35 6.84555L30.3653 0ZM25.0034 7.03515H17.496H9.98865V3.69221C9.98865 3.29904 10.3105 2.97971 10.7058 2.97971H17.496H24.2862C24.6816 2.97971 25.0034 3.29904 25.0034 3.69221V7.03515Z" fill="#3E3E3E"/>
</svg>
