<svg width="200" height="41" viewBox="0 0 200 41" fill="none" xmlns="http://www.w3.org/2000/svg">
<g clip-path="url(#clip0_414_340)">
<path d="M19.9139 38.0758C30.5159 38.0758 39.1105 30.208 39.1105 20.5025C39.1105 10.797 30.5159 2.9292 19.9139 2.9292C9.31189 2.9292 0.717285 10.797 0.717285 20.5025C0.717285 30.208 9.31189 38.0758 19.9139 38.0758Z" fill="#DCB472"/>
<path d="M18.9272 12.6833C18.9038 12.5143 18.8435 12.3513 18.75 12.2039C18.6564 12.0564 18.5314 11.9276 18.3823 11.8249C18.2333 11.7222 18.0631 11.6477 17.882 11.6059C17.7009 11.564 17.5124 11.5557 17.3277 11.5813C16.9547 11.6549 16.6277 11.8577 16.4157 12.1471C16.2038 12.4364 16.1236 12.7896 16.192 13.1318C16.4576 14.5049 16.5865 15.8971 16.5772 17.2913C16.5775 17.4041 16.5535 17.5158 16.5066 17.6201C16.4596 17.7243 16.3905 17.8192 16.3033 17.8991C16.2161 17.9791 16.1125 18.0426 15.9984 18.0861C15.8843 18.1295 15.7619 18.1521 15.6383 18.1524C15.5146 18.1528 15.3921 18.1309 15.2777 18.088C15.1633 18.0452 15.0593 17.9822 14.9716 17.9028C14.8839 17.8233 14.8142 17.7288 14.7665 17.6248C14.7189 17.5208 14.6941 17.4092 14.6938 17.2964L14.6853 12.1605C14.7006 11.8414 14.5941 11.5273 14.384 11.2717C14.1739 11.0161 13.8731 10.8348 13.5328 10.7587C13.3269 10.7306 13.1167 10.7443 12.9172 10.7989C12.7178 10.8534 12.534 10.9475 12.379 11.0743C12.2241 11.2011 12.1018 11.3576 12.0208 11.5325C11.9399 11.7075 11.9023 11.8965 11.9108 12.0862L11.9193 17.2964C11.9238 17.5328 11.8261 17.7614 11.6472 17.9326C11.4684 18.1039 11.2227 18.204 10.9635 18.2114C10.8347 18.2084 10.7078 18.1821 10.5902 18.1339C10.4727 18.0857 10.3668 18.0167 10.2789 17.9308C10.191 17.8449 10.1227 17.7438 10.0781 17.6336C10.0334 17.5234 10.0134 17.4061 10.019 17.2887C10.0118 15.8954 10.1406 14.5043 10.4041 13.1318C10.4734 12.7892 10.3935 12.4354 10.1815 12.1455C9.96954 11.8555 9.64204 11.6523 9.26846 11.5788C9.08334 11.5502 8.89376 11.5564 8.71137 11.597C8.52897 11.6376 8.35761 11.7118 8.20782 11.815C8.05802 11.9182 7.93295 12.0483 7.84029 12.1971C7.74763 12.346 7.68933 12.5106 7.66898 12.6808C7.324 14.6644 7.18003 16.6727 7.23889 18.6804C7.26419 20.6794 8.37736 22.5348 10.2045 23.6266C11.0225 24.0879 11.5426 24.885 11.596 25.764L11.7478 28.8343C11.7619 29.6134 12.4421 30.2438 13.2939 30.2669C13.7039 30.2557 14.0934 30.1008 14.3814 29.8345C14.6694 29.5681 14.8336 29.2108 14.8399 28.8368L14.9889 25.8716C15.048 24.9952 15.5849 24.2007 16.4169 23.7599C17.2856 23.2635 18.0067 22.5797 18.5166 21.7688C19.0265 20.958 19.3094 20.0451 19.3404 19.1109C19.436 16.9607 19.2982 14.8079 18.9272 12.6833ZM27.1157 10.7407C23.4586 10.7407 21.6286 15.8023 21.6286 19.1468C21.6539 20.8741 22.6012 22.4785 24.167 23.4395C24.8922 23.8752 25.3476 24.6005 25.4038 25.3924L25.5753 28.8368C25.5753 29.2093 25.7376 29.5665 26.0265 29.8299C26.3154 30.0933 26.7072 30.2413 27.1157 30.2413C27.5243 30.2413 27.9161 30.0933 28.205 29.8299C28.4939 29.5665 28.6562 29.2093 28.6562 28.8368L28.8305 25.3924C28.8565 25.0017 28.9818 24.622 29.1964 24.283C29.4111 23.9441 29.7092 23.6553 30.0673 23.4395C30.8386 22.9643 31.4722 22.3258 31.9137 21.5787C32.3553 20.8315 32.5918 19.998 32.6029 19.1494C32.6029 15.8023 30.7757 10.7407 27.1157 10.7407Z" fill="#3E3E3E"/>
<path d="M53.4659 29.4981C54.2651 30.5437 55.3428 31.3868 56.5977 31.9481C57.8527 32.5094 59.2436 32.7705 60.6396 32.7068C63.9848 32.7068 66.4416 30.7539 66.4416 28.0937V26.6944H66.3601C65.4561 27.5038 64.3763 28.1319 63.1903 28.5384C62.0042 28.9449 60.7381 29.1208 59.4731 29.0548C57.486 29.1064 55.5199 28.6729 53.7782 27.7992C52.0366 26.9255 50.5826 25.6434 49.567 24.0854C48.5475 22.5253 48.0007 20.7463 47.9824 18.9303C47.9641 17.1144 48.4751 15.3265 49.463 13.7496C50.4475 12.1757 51.8751 10.8701 53.5984 9.96768C55.3216 9.06524 57.2779 8.59868 59.265 8.61622C60.5555 8.54101 61.8493 8.70504 63.0682 9.09839C64.2872 9.49174 65.4061 10.1063 66.3573 10.9048H66.4416V8.98527H72.1621V28.0219C72.1621 33.5576 67.3665 37.3942 60.6368 37.3942C58.4613 37.5018 56.2889 37.1363 54.2987 36.328C52.3085 35.5197 50.5576 34.2917 49.1903 32.7452L53.4631 29.4981H53.4659ZM66.1999 17.6579C66.1999 15.441 63.4619 13.4113 60.3979 13.4113C56.5271 13.4113 53.9494 15.5538 53.9494 18.7625C53.8369 20.2822 54.4582 21.7738 55.6557 22.8322C56.2454 23.3553 56.9537 23.7542 57.7308 24.0008C58.5079 24.2475 59.3348 24.3358 60.1533 24.2597C63.5013 24.2597 66.2027 22.3402 66.2027 19.9414V17.6553L66.1999 17.6579ZM87.159 8.4317C94.1304 8.4317 99.2099 12.9705 99.2099 18.7625C99.2099 24.5544 94.1332 29.0906 87.159 29.0906C85.0923 29.214 83.0281 28.8169 81.1922 27.9427C79.3564 27.0686 77.8195 25.751 76.7497 24.1341C75.6762 22.5138 75.1088 20.6567 75.1088 18.7637C75.1088 16.8707 75.6762 15.0137 76.7497 13.3933C77.8188 11.7755 79.3553 10.4569 81.1913 9.58183C83.0272 8.70673 85.0917 8.30885 87.159 8.4317ZM87.159 13.2293C85.5548 13.2422 84.0217 13.8347 82.8961 14.8768C81.7704 15.9189 81.1441 17.3255 81.1546 18.7881C81.1583 20.2506 81.7982 21.6521 82.9339 22.6851C84.0695 23.718 85.6082 24.2982 87.2124 24.2982C88.8171 24.292 90.3535 23.7057 91.4845 22.6679C92.6155 21.63 93.2486 20.2254 93.2449 18.7625C93.2823 18.0238 93.1501 17.2862 92.8567 16.5969C92.5634 15.9076 92.1154 15.2817 91.5414 14.7593C90.9688 14.2385 90.2825 13.8331 89.5271 13.5696C88.7716 13.306 87.9639 13.1901 87.1562 13.2293H87.159ZM104.975 13.6342H99.8564V8.98527H104.973V6.99396C104.973 3.56233 107.592 1.45825 111.986 1.45825H117.588V6.14566H112.711C111.542 6.14566 110.94 6.66079 110.94 7.65773V8.98527H118.918V13.6342H110.943V28.5396H104.978L104.975 13.6342ZM131.171 8.4317C138.143 8.4317 143.222 12.9705 143.222 18.7625C143.222 24.5544 138.143 29.0906 131.171 29.0906C129.104 29.2145 127.039 28.8176 125.203 27.9434C123.367 27.0692 121.829 25.7514 120.759 24.1341C119.686 22.5134 119.118 20.6559 119.118 18.7625C119.118 16.869 119.686 15.0115 120.759 13.3908C121.829 11.773 123.366 10.4547 125.203 9.58003C127.039 8.70537 129.104 8.30811 131.171 8.4317ZM131.171 13.2293C129.567 13.2422 128.034 13.8347 126.908 14.8768C125.783 15.9189 125.157 17.3255 125.167 18.7881C125.171 20.2506 125.811 21.6521 126.946 22.6851C128.082 23.718 129.621 24.2982 131.225 24.2982C132.829 24.292 134.366 23.7057 135.497 22.6679C136.628 21.63 137.261 20.2254 137.257 18.7625C137.295 18.0238 137.163 17.2862 136.869 16.5969C136.576 15.9076 136.128 15.2817 135.554 14.7593C134.981 14.2385 134.295 13.8331 133.54 13.5696C132.784 13.306 131.979 13.1901 131.171 13.2293ZM157.649 8.4317C164.62 8.4317 169.7 12.9705 169.7 18.7625C169.7 24.5544 164.623 29.0906 157.649 29.0906C155.582 29.214 153.518 28.8169 151.682 27.9427C149.846 27.0686 148.309 25.751 147.239 24.1341C146.166 22.5138 145.598 20.6567 145.598 18.7637C145.598 16.8707 146.166 15.0137 147.239 13.3933C148.308 11.7755 149.845 10.4569 151.681 9.58183C153.517 8.70673 155.581 8.30885 157.649 8.4317ZM157.649 13.2293C156.044 13.2422 154.511 13.8347 153.386 14.8768C152.26 15.9189 151.634 17.3255 151.644 18.7881C151.648 20.2506 152.288 21.6521 153.423 22.6851C154.559 23.718 156.098 24.2982 157.702 24.2982C159.307 24.292 160.843 23.7057 161.974 22.6679C163.105 21.63 163.738 20.2254 163.735 18.7625C163.772 18.0238 163.64 17.2862 163.346 16.5969C163.053 15.9076 162.605 15.2817 162.031 14.7593C161.458 14.2385 160.772 13.8331 160.017 13.5696C159.261 13.306 158.456 13.1901 157.649 13.2293ZM183.485 8.4317C186 8.32573 188.469 9.07458 190.414 10.5332H190.498V1.60946H196.461V28.5448H190.94V26.6278H190.861C189.918 27.4808 188.788 28.142 187.545 28.5678C186.302 28.9937 184.973 29.1745 183.648 29.0983C182.131 29.1705 180.614 28.9546 179.193 28.4645C177.773 27.9744 176.479 27.2206 175.395 26.251C174.306 25.2791 173.45 24.1127 172.879 22.825C172.309 21.5372 172.036 20.1559 172.078 18.7676C172.055 17.3966 172.335 16.0355 172.902 14.7655C173.469 13.4956 174.311 12.3429 175.378 11.3764C176.441 10.4121 177.709 9.65436 179.102 9.14911C180.496 8.64386 181.988 8.40155 183.488 8.43683L183.485 8.4317ZM190.496 17.4733C190.496 15.1489 187.676 13.2319 184.41 13.2319C183.584 13.1759 182.756 13.2784 181.976 13.5327C181.197 13.7869 180.486 14.1874 179.887 14.7081C178.678 15.7614 178.003 17.235 178.043 18.765C178.043 22.1223 180.542 24.2623 184.41 24.2623C187.797 24.2623 190.496 22.3427 190.496 19.9439V17.4733Z" fill="#DCB472"/>
</g>
<defs>
<clipPath id="clip0_414_340">
<rect width="200" height="41" fill="white"/>
</clipPath>
</defs>
</svg>
