<svg width="358" height="27" viewBox="0 0 358 27" fill="none" xmlns="http://www.w3.org/2000/svg">
<path d="M214.338 12.4538C213.081 11.797 213.302 11.1436 213.009 10.4868C212.716 11.1436 212.937 11.797 211.68 12.4538C211.493 12.7797 211.676 13.109 211.982 13.4365C211.676 13.7641 211.493 14.0933 211.68 14.4209C212.937 15.076 212.716 15.7311 213.009 16.3862C213.302 15.7311 213.081 15.076 214.338 14.4209C214.525 14.0933 214.34 13.7641 214.034 13.4365C214.34 13.109 214.525 12.7797 214.338 12.4538ZM213.009 15.3247C212.923 15.0245 212.5 14.3934 212.15 14.0933C212.169 13.9904 212.247 13.8875 212.34 13.7846C212.572 13.9973 212.815 14.2082 213.009 14.4209C213.199 14.2082 213.446 13.9973 213.678 13.7846C213.772 13.8875 213.849 13.9904 213.868 14.0933C213.517 14.3934 213.095 15.0245 213.009 15.3247ZM212.719 13.4365C212.82 13.3525 212.92 13.2719 213.009 13.1878C213.096 13.2719 213.198 13.3525 213.297 13.4365C213.198 13.5205 213.096 13.6011 213.009 13.6852C212.92 13.6011 212.82 13.5205 212.719 13.4365ZM213.678 13.0884C213.446 12.8757 213.203 12.6665 213.009 12.4538C212.817 12.6665 212.572 12.8757 212.34 13.0884C212.244 12.9855 212.169 12.8826 212.15 12.7797C212.5 12.4796 212.923 11.8502 213.009 11.5484C213.095 11.8502 213.517 12.4796 213.868 12.7797C213.849 12.8826 213.77 12.9855 213.678 13.0884Z" fill="#232323"/>
<path d="M224.84 11.9976C224.633 11.8569 224.427 11.7197 224.219 11.5911C223.974 11.4419 223.664 11.4453 223.424 11.6031C222.448 12.2411 221.472 12.8928 220.498 13.4158C221.491 13.9474 222.417 14.5682 223.424 15.2268C223.666 15.3846 223.976 15.3897 224.219 15.2388C224.427 15.1119 224.633 14.973 224.84 14.8358C224.067 14.3299 223.29 13.8308 222.518 13.4175C223.29 13.0025 224.067 12.5035 224.84 11.9976Z" fill="#232323"/>
<path d="M210.889 12.1744C210.894 12.1709 210.896 12.1675 210.901 12.1641C210.601 11.8519 210.376 11.5364 210.314 11.2243C211.417 10.3119 212.739 8.41007 213.009 7.49772C213.278 8.41007 214.602 10.3119 215.703 11.2243C215.641 11.5364 215.416 11.8519 215.116 12.1641C215.121 12.1675 215.123 12.1709 215.128 12.1744C215.818 12.7797 216.946 12.5825 217.279 11.725C217.471 11.2294 217.471 10.7304 217.178 10.233C213.23 8.25058 213.924 6.26983 213.009 4.28564C212.091 6.26983 212.786 8.25058 208.838 10.233C208.545 10.7304 208.545 11.2294 208.738 11.725C209.069 12.5825 210.199 12.7832 210.889 12.1744Z" fill="#232323"/>
<path d="M215.128 14.6987C215.123 14.7021 215.121 14.7072 215.116 14.709C215.416 15.0211 215.641 15.3366 215.703 15.6487C214.6 16.5611 213.278 18.463 213.009 19.3753C212.739 18.463 211.414 16.5611 210.314 15.6487C210.376 15.3366 210.601 15.0211 210.901 14.709C210.896 14.7072 210.894 14.7021 210.889 14.6987C210.199 14.0933 209.069 14.2905 208.738 15.148C208.545 15.6436 208.545 16.1426 208.838 16.64C212.786 18.6224 212.091 20.6049 213.009 22.5874C213.924 20.6049 213.23 18.6224 217.178 16.64C217.471 16.1426 217.471 15.6436 217.279 15.148C216.946 14.2888 215.818 14.0899 215.128 14.6987Z" fill="#232323"/>
<path d="M221.543 10.9929C221.538 10.9878 221.533 10.9861 221.528 10.9809C221.032 10.5436 220.278 10.5659 219.767 10.9861C218.76 11.8161 217.004 13.2052 216.287 13.4179C217.006 13.6305 218.76 15.0196 219.767 15.8496C220.278 16.2698 221.029 16.2938 221.528 15.8548C221.533 15.8496 221.538 15.8479 221.543 15.8428C221.513 15.6661 219.834 14.2119 219.834 13.4179C219.834 12.6204 221.513 11.1696 221.543 10.9929Z" fill="#232323"/>
<path d="M231.732 15.5631C231.413 15.8718 231.093 16.0982 230.775 16.1599C229.844 15.0384 227.91 13.6921 226.98 13.4177C227.91 13.1434 229.847 11.7954 230.775 10.6721C231.094 10.7356 231.415 10.9637 231.732 11.2689C231.734 11.2655 231.739 11.2621 231.742 11.2569C232.396 10.5161 232.099 9.32419 231.158 9.02065C230.695 8.87316 230.228 8.89546 229.765 9.16985C227.747 13.1879 225.726 12.4814 223.708 13.416C225.726 14.3507 227.747 13.6424 229.765 17.6622C230.228 17.9366 230.695 17.9572 231.158 17.8097C232.099 17.5062 232.396 16.3177 231.742 15.5734L231.732 15.5631Z" fill="#232323"/>
<mask id="mask0_476_94" style="mask-type:luminance" maskUnits="userSpaceOnUse" x="175" y="0" width="8" height="6">
<path d="M175.411 0H182.436V5.07793H175.411V0Z" fill="white"/>
</mask>
<g mask="url(#mask0_476_94)">
<path d="M176.418 3.86884C176.666 4.01632 176.948 4.16381 177.241 4.30958C177.654 4.51708 178.086 4.72802 178.465 4.93553C178.676 5.05043 178.925 5.05043 179.134 4.93553C179.513 4.72802 179.945 4.51708 180.359 4.30958C180.65 4.16209 180.933 4.01289 181.182 3.86884C181.888 3.44868 182.314 3.02852 181.883 2.60836C178.964 1.76804 179.479 0.927721 178.8 0.0874023C178.122 0.927721 178.635 1.76804 175.72 2.60836C175.287 3.02852 175.715 3.44868 176.418 3.86884Z" fill="#232323"/>
</g>
<mask id="mask1_476_94" style="mask-type:luminance" maskUnits="userSpaceOnUse" x="175" y="21" width="8" height="6">
<path d="M175.411 21.7607H182.436V26.9999H175.411V21.7607Z" fill="white"/>
</mask>
<g mask="url(#mask1_476_94)">
<path d="M181.18 22.9649C180.932 22.8174 180.651 22.6682 180.357 22.5241C179.944 22.3149 179.512 22.1057 179.133 21.8982C178.922 21.7833 178.673 21.7833 178.464 21.8982C178.085 22.1057 177.653 22.3149 177.24 22.5241C176.948 22.6716 176.665 22.8191 176.416 22.9649C175.71 23.385 175.284 23.8052 175.715 24.2254C178.63 25.0657 178.118 25.906 178.795 26.7463C179.474 25.906 178.96 25.0657 181.877 24.2254C182.314 23.8052 181.887 23.385 181.18 22.9649Z" fill="#232323"/>
</g>
<path d="M190.997 14.4792C191.339 14.6404 191.79 14.6472 192.138 14.4963C193.026 14.1105 193.911 13.7366 194.799 13.4176C193.914 13.0969 193.026 12.7248 192.141 12.3389C191.793 12.1863 191.342 12.1932 190.999 12.3561C190.838 12.4315 190.675 12.5104 190.514 12.5876C191.112 12.8757 191.709 13.1638 192.307 13.4176C191.709 13.6714 191.112 13.9595 190.514 14.2477C190.673 14.3265 190.834 14.4037 190.997 14.4792Z" fill="#232323"/>
<path d="M166.636 12.3528C166.293 12.1933 165.842 12.1864 165.494 12.3373C164.609 12.7232 163.721 13.0954 162.836 13.416C163.724 13.735 164.609 14.1072 165.498 14.4947C165.846 14.6474 166.297 14.6405 166.638 14.4776C166.801 14.4004 166.962 14.325 167.125 14.2461C166.525 13.958 165.93 13.6681 165.329 13.416C165.93 13.1622 166.525 12.8741 167.125 12.5843C166.96 12.5088 166.797 12.4317 166.636 12.3528Z" fill="#232323"/>
<path d="M183.46 17.4393C183.779 17.2249 184.098 17.0071 184.417 16.791C186.136 15.6231 187.909 14.4158 189.665 13.4177C187.909 12.4179 186.136 11.2123 184.416 10.0427C184.129 9.84723 183.843 9.65344 183.556 9.45966C182.375 10.0101 181.144 10.8539 179.974 11.7062C180.681 12.2293 181.421 12.7678 182.155 13.2479L182.414 13.4177L182.155 13.5875C181.346 14.1174 180.524 14.7211 179.751 15.2939L179.468 15.5031C177.678 16.8339 175.827 18.2075 173.992 18.9175C173.347 19.1645 172.751 19.3205 172.166 19.3874L172.087 19.396L172.024 19.3514C168.645 16.9385 161.833 14.1809 158.628 13.6201L157.627 13.4194L158.628 13.2188C161.833 12.6563 168.645 9.90211 172.024 7.48919L172.087 7.44289L172.166 7.45318C172.72 7.51835 173.286 7.65897 173.891 7.88534C174.906 7.20451 176.088 6.42936 177.321 5.7108C175.182 4.69728 173.291 4.20166 171.545 4.20166C170.562 4.20166 169.6 4.36286 168.681 4.67498C167.182 6.43451 165.677 7.76358 164.173 8.78569C162.778 7.45318 161.382 6.66088 159.988 7.48233C158.597 10.2502 157.206 11.4147 155.817 12.0406C155.126 12.171 154.442 12.2859 153.758 12.3922C154.377 11.4884 155.437 10.5315 155.466 10.3754C155.461 10.3703 155.454 10.3651 155.449 10.3583C154.824 9.8095 153.88 9.83523 153.236 10.3651C152.247 11.1815 150.685 12.4196 149.621 13.0524C149.037 13.1622 148.452 13.2788 147.869 13.4194C148.452 13.5601 149.038 13.6784 149.623 13.7882C150.69 14.421 152.249 15.6592 153.24 16.4755C153.881 17.0054 154.826 17.0311 155.452 16.4823C155.457 16.4772 155.464 16.472 155.468 16.4686C155.44 16.3108 154.38 15.3539 153.759 14.4518C154.444 14.5564 155.131 14.6713 155.819 14.8017C157.21 15.4276 158.599 16.5921 159.992 19.36C161.386 20.1814 162.782 19.3891 164.176 18.0583C165.682 19.0787 167.186 20.4078 168.685 22.1673C169.602 22.4795 170.564 22.6407 171.548 22.6407C173.385 22.6407 175.388 22.0919 177.667 20.9652C179.67 19.9722 181.708 18.6226 183.46 17.4393ZM161.4 9.57799C161.664 9.62772 161.929 9.7632 162.194 9.95184C161.496 10.312 160.796 10.6172 160.096 10.8779C160.595 10.4457 161.048 9.99986 161.4 9.57799ZM161.4 17.2558C161.048 16.8339 160.595 16.3863 160.096 15.9541C160.796 16.2148 161.496 16.52 162.194 16.8802C161.929 17.0688 161.665 17.206 161.4 17.2558Z" fill="#232323"/>
<path d="M209.738 13.4175C209.275 13.306 208.808 13.2083 208.343 13.1174C207.277 12.5086 205.639 11.2069 204.613 10.3632C203.97 9.83327 203.025 9.80583 202.399 10.3546C202.396 10.3598 202.389 10.3649 202.384 10.3718C202.411 10.5313 203.506 11.5173 204.121 12.4314C203.346 12.3131 202.567 12.1879 201.784 12.0387C200.393 11.4127 199.002 10.2483 197.613 7.47867C196.219 6.65893 194.823 7.45123 193.429 8.78202C191.923 7.76163 190.419 6.43084 188.92 4.67303C188.001 4.3592 187.037 4.19971 186.056 4.19971C181.791 4.19971 177.416 7.17341 173.185 10.0476C171.467 11.2138 169.694 12.4194 167.939 13.4192C169.694 14.4207 171.471 15.6246 173.189 16.7942C173.475 16.9897 173.763 17.1869 174.05 17.379C175.225 16.8336 176.459 15.9882 177.631 15.1307C176.924 14.6077 176.18 14.0692 175.449 13.589L175.188 13.4175L175.449 13.2477C176.346 12.6612 177.26 11.9838 178.143 11.327C180.524 9.5606 182.985 7.73248 185.435 7.45123L185.514 7.44094L185.578 7.48553C188.956 9.90016 195.768 12.6561 198.973 13.2168L200.175 13.4175L198.973 13.6181C195.768 14.1806 188.956 16.9348 185.578 19.3477L185.514 19.394L185.435 19.3838C184.881 19.3203 184.315 19.1797 183.71 18.9516C182.755 19.5947 181.537 20.3939 180.282 21.1296C182.419 22.1431 184.31 22.637 186.056 22.637C187.037 22.637 188.001 22.4775 188.92 22.1654C190.419 20.4059 191.925 19.0768 193.429 18.0547C194.823 19.3872 196.219 20.1795 197.613 19.358C199.004 16.5901 200.393 15.424 201.784 14.7997C202.566 14.6488 203.346 14.5253 204.121 14.4053C203.506 15.3194 202.411 16.3054 202.386 16.4649C202.391 16.4701 202.398 16.4752 202.403 16.4804C203.029 17.0291 203.974 17.0017 204.615 16.4718C205.639 15.628 207.278 14.3264 208.343 13.7176C208.808 13.625 209.275 13.529 209.738 13.4175ZM196.205 9.57775C196.555 9.99962 197.009 10.4455 197.507 10.8777C196.809 10.617 196.109 10.3117 195.409 9.9516C195.675 9.76296 195.939 9.6292 196.205 9.57775ZM196.205 17.2555C195.939 17.2058 195.675 17.0686 195.409 16.8799C196.109 16.5198 196.809 16.218 197.507 15.9539C197.006 16.3895 196.553 16.8336 196.205 17.2555Z" fill="#232323"/>
<path d="M178.8 12.6582L177.615 13.4831L178.8 14.3063L179.987 13.4831L178.8 12.6582Z" fill="#232323"/>
<path d="M145.925 12.4538C144.666 11.797 144.889 11.1436 144.596 10.4868C144.303 11.1436 144.524 11.797 143.267 12.4538C143.08 12.7797 143.263 13.109 143.569 13.4365C143.263 13.7641 143.08 14.0933 143.267 14.4209C144.524 15.076 144.303 15.7311 144.596 16.3862C144.889 15.7311 144.666 15.076 145.925 14.4209C146.11 14.0933 145.927 13.7641 145.621 13.4365C145.927 13.109 146.11 12.7797 145.925 12.4538ZM144.596 15.3247C144.51 15.0245 144.087 14.3934 143.737 14.0933C143.756 13.9904 143.834 13.8875 143.927 13.7846C144.159 13.9973 144.402 14.2082 144.596 14.4209C144.786 14.2082 145.031 13.9973 145.263 13.7846C145.359 13.8875 145.436 13.9904 145.455 14.0933C145.103 14.3934 144.682 15.0245 144.596 15.3247ZM144.306 13.4365C144.407 13.3525 144.507 13.2719 144.596 13.1878C144.683 13.2719 144.784 13.3525 144.884 13.4365C144.784 13.5205 144.683 13.6011 144.596 13.6852C144.507 13.6011 144.407 13.5205 144.306 13.4365ZM145.263 13.0884C145.031 12.8757 144.788 12.6665 144.596 12.4538C144.404 12.6665 144.159 12.8757 143.927 13.0884C143.831 12.9855 143.756 12.8826 143.737 12.7797C144.087 12.4796 144.51 11.8502 144.596 11.5484C144.682 11.8502 145.103 12.4796 145.455 12.7797C145.436 12.8826 145.357 12.9855 145.263 13.0884Z" fill="#232323"/>
<path d="M134.422 11.6065C134.182 11.4487 133.872 11.4435 133.628 11.5945C133.421 11.7197 133.215 11.8586 133.007 11.9992C133.782 12.5051 134.556 13.0041 135.333 13.4192C134.559 13.8359 133.782 14.3332 133.011 14.8374C133.218 14.978 133.422 15.1152 133.63 15.2404C133.877 15.3913 134.187 15.3862 134.426 15.2284C135.401 14.5922 136.375 13.9405 137.351 13.4174C136.375 12.8944 135.4 12.2427 134.422 11.6065Z" fill="#232323"/>
<path d="M142.476 12.1744C142.481 12.1709 142.483 12.1675 142.488 12.1641C142.186 11.8519 141.963 11.5364 141.9 11.2243C143.002 10.3119 144.324 8.41007 144.595 7.49772C144.865 8.41007 146.187 10.3119 147.29 11.2243C147.23 11.5364 147.003 11.8519 146.703 12.1641C146.707 12.1675 146.71 12.1709 146.715 12.1744C147.405 12.7797 148.533 12.5825 148.866 11.725C149.058 11.2294 149.058 10.7304 148.764 10.233C144.817 8.25058 145.511 6.26983 144.595 4.28564C143.676 6.26983 144.373 8.25058 140.425 10.233C140.131 10.7304 140.131 11.2294 140.325 11.725C140.656 12.5825 141.786 12.7832 142.476 12.1744Z" fill="#232323"/>
<path d="M146.715 14.6987C146.71 14.7021 146.707 14.7072 146.703 14.709C147.003 15.0211 147.228 15.3366 147.29 15.6487C146.187 16.5611 144.865 18.463 144.595 19.3753C144.324 18.463 143.002 16.5611 141.9 15.6487C141.96 15.3366 142.186 15.0211 142.488 14.709C142.483 14.7072 142.481 14.7021 142.476 14.6987C141.786 14.0933 140.656 14.2905 140.325 15.148C140.131 15.6436 140.131 16.1426 140.425 16.64C144.373 18.6224 143.678 20.6049 144.595 22.5874C145.515 20.6049 144.817 18.6224 148.764 16.64C149.058 16.1426 149.058 15.6436 148.866 15.148C148.533 14.2888 147.405 14.0899 146.715 14.6987Z" fill="#232323"/>
<path d="M138.078 10.9857C137.567 10.5656 136.816 10.5416 136.316 10.9806C136.311 10.9857 136.308 10.9875 136.303 10.9926C136.334 11.1692 138.011 12.6235 138.011 13.4175C138.011 14.2115 136.334 15.6658 136.303 15.8424C136.308 15.8476 136.311 15.8493 136.316 15.8545C136.814 16.2918 137.565 16.2695 138.078 15.8493C139.086 15.0193 140.842 13.6302 141.557 13.4175C140.842 13.2049 139.088 11.8158 138.078 10.9857Z" fill="#232323"/>
<path d="M128.083 9.16985C127.62 8.89546 127.153 8.87316 126.69 9.02065C125.747 9.32419 125.452 10.5126 126.105 11.2569C126.109 11.2621 126.112 11.2655 126.116 11.2689C126.435 10.962 126.755 10.7356 127.073 10.6721C128 11.7954 129.938 13.1434 130.868 13.4177C129.938 13.6921 128 15.0401 127.073 16.1616C126.752 16.0999 126.433 15.8718 126.116 15.5666L126.105 15.5786C125.452 16.3194 125.747 17.5113 126.69 17.8148C127.153 17.9623 127.62 17.94 128.083 17.6656C130.101 13.6475 132.12 14.3541 134.14 13.4195C132.12 12.4814 130.101 13.1914 128.083 9.16985Z" fill="#232323"/>
<path d="M239.666 12.3373C238.927 12.3287 238.196 12.1693 237.522 11.8657L237.232 11.7371C236.568 11.4421 235.812 11.4421 235.149 11.7371L230.41 13.416L235.149 15.0932C235.812 15.3899 236.568 15.3899 237.232 15.0932L237.522 14.9646C238.198 14.6628 238.928 14.5033 239.666 14.4947L357.849 13.416L239.666 12.3373ZM236.179 13.9425C235.565 13.9425 233.924 13.4177 233.924 13.4177C233.924 13.4177 235.565 12.893 236.179 12.893C236.793 12.893 237.29 13.4177 237.29 13.4177C237.29 13.4177 236.793 13.9425 236.179 13.9425Z" fill="#232323"/>
<path d="M122.704 11.7371C122.04 11.4421 121.282 11.4421 120.62 11.7371L120.329 11.8657C119.653 12.1675 118.922 12.327 118.185 12.3373L0 13.4177L118.183 14.4964C118.922 14.5033 119.653 14.6628 120.325 14.9663L120.617 15.0949C121.28 15.3916 122.037 15.3916 122.7 15.0949L127.439 13.4177L122.704 11.7371ZM121.67 13.9425C121.056 13.9425 120.557 13.4177 120.557 13.4177C120.557 13.4177 121.054 12.893 121.67 12.893C122.284 12.893 123.925 13.4177 123.925 13.4177C123.925 13.4177 122.284 13.9425 121.67 13.9425Z" fill="#232323"/>
</svg>
