<svg width="258" height="313" viewBox="0 0 258 313" fill="none" xmlns="http://www.w3.org/2000/svg">
<rect x="1.5" y="80.5" width="258" height="231" fill="#232323" fill-opacity="0.6" stroke="#DCB472" stroke-width="3"/>
<path d="M84.192 117.456C81.8027 117.456 78.6453 114.384 74.72 108.24C70.7947 102.096 68.832 96.6347 68.832 91.856C68.832 86.9067 71.9893 79.312 78.304 69.072C84.7893 58.832 89.2267 53.712 91.616 53.712C91.9573 53.712 92.64 54.1387 93.664 54.992C94.688 55.8453 95.2 56.6133 95.2 57.296C95.2 57.808 93.5787 60.5387 90.336 65.488C87.0933 70.2667 85.472 74.6187 85.472 78.544C85.472 82.4693 87.264 87.0773 90.848 92.368C94.6027 97.6587 96.48 100.816 96.48 101.84C96.48 102.864 95.7973 104.571 94.432 106.96C90.1653 113.957 86.752 117.456 84.192 117.456ZM44.256 117.456C41.8667 117.456 38.7093 114.384 34.784 108.24C30.8587 102.096 28.896 96.6347 28.896 91.856C28.896 86.9067 32.0533 79.312 38.368 69.072C44.8533 58.832 49.2907 53.712 51.68 53.712C52.0213 53.712 52.704 54.1387 53.728 54.992C54.752 55.8453 55.264 56.6133 55.264 57.296C55.264 57.808 53.6427 60.5387 50.4 65.488C47.1573 70.2667 45.536 74.6187 45.536 78.544C45.536 82.4693 47.328 87.0773 50.912 92.368C54.6667 97.6587 56.544 100.816 56.544 101.84C56.544 102.864 55.8613 104.571 54.496 106.96C50.2293 113.957 46.816 117.456 44.256 117.456Z" fill="#DCB472"/>
</svg>
