<svg width="69" height="65" viewBox="0 0 69 65" fill="none" xmlns="http://www.w3.org/2000/svg">
<path d="M56.192 64.456C53.8027 64.456 50.6453 61.384 46.72 55.24C42.7947 49.096 40.832 43.6347 40.832 38.856C40.832 33.9067 43.9893 26.312 50.304 16.072C56.7893 5.83199 61.2267 0.71199 63.616 0.71199C63.9573 0.71199 64.64 1.13866 65.664 1.99199C66.688 2.84532 67.2 3.61332 67.2 4.29599C67.2 4.80799 65.5787 7.53866 62.336 12.488C59.0933 17.2667 57.472 21.6187 57.472 25.544C57.472 29.4693 59.264 34.0773 62.848 39.368C66.6027 44.6587 68.48 47.816 68.48 48.84C68.48 49.864 67.7973 51.5707 66.432 53.96C62.1653 60.9573 58.752 64.456 56.192 64.456ZM16.256 64.456C13.8667 64.456 10.7093 61.384 6.784 55.24C2.85867 49.096 0.896 43.6347 0.896 38.856C0.896 33.9067 4.05333 26.312 10.368 16.072C16.8533 5.83199 21.2907 0.71199 23.68 0.71199C24.0213 0.71199 24.704 1.13866 25.728 1.99199C26.752 2.84532 27.264 3.61332 27.264 4.29599C27.264 4.80799 25.6427 7.53866 22.4 12.488C19.1573 17.2667 17.536 21.6187 17.536 25.544C17.536 29.4693 19.328 34.0773 22.912 39.368C26.6667 44.6587 28.544 47.816 28.544 48.84C28.544 49.864 27.8613 51.5707 26.496 53.96C22.2293 60.9573 18.816 64.456 16.256 64.456Z" fill="#DCB472"/>
</svg>
