<svg width="190" height="190" viewBox="0 0 190 190" fill="none" xmlns="http://www.w3.org/2000/svg">
<g clip-path="url(#clip0_341_66)">
<path d="M113.921 94.4841C113.25 94.1331 113.368 93.784 113.211 93.4331C113.055 93.784 113.173 94.1331 112.501 94.4841C112.401 94.6582 112.499 94.8341 112.662 95.0091C112.499 95.1841 112.401 95.36 112.501 95.5351C113.173 95.8851 113.055 96.2351 113.211 96.5851C113.368 96.2351 113.25 95.8851 113.921 95.5351C114.021 95.36 113.922 95.1841 113.759 95.0091C113.922 94.8341 114.021 94.6582 113.921 94.4841ZM113.211 96.0179C113.166 95.8576 112.939 95.5204 112.752 95.36C112.762 95.3051 112.804 95.2501 112.854 95.1951C112.978 95.3087 113.108 95.4214 113.211 95.5351C113.313 95.4214 113.445 95.3087 113.569 95.1951C113.619 95.2501 113.66 95.3051 113.67 95.36C113.483 95.5204 113.257 95.8576 113.211 96.0179ZM113.056 95.0091C113.111 94.9642 113.164 94.9211 113.211 94.8762C113.258 94.9211 113.312 94.9642 113.365 95.0091C113.312 95.054 113.258 95.0971 113.211 95.142C113.164 95.0971 113.111 95.054 113.056 95.0091ZM113.569 94.8231C113.445 94.7095 113.315 94.5977 113.211 94.4841C113.109 94.5977 112.978 94.7095 112.854 94.8231C112.803 94.7681 112.762 94.7131 112.752 94.6582C112.939 94.4978 113.166 94.1615 113.211 94.0003C113.257 94.1615 113.483 94.4978 113.67 94.6582C113.66 94.7131 113.618 94.7681 113.569 94.8231Z" fill="#232323"/>
<path d="M119.532 94.2403C119.422 94.1652 119.312 94.0919 119.201 94.0232C119.07 93.9435 118.904 93.9453 118.776 94.0296C118.254 94.3705 117.733 94.7186 117.212 94.9981C117.743 95.2822 118.238 95.6138 118.776 95.9657C118.905 96.05 119.071 96.0527 119.201 95.9721C119.312 95.9043 119.422 95.8301 119.532 95.7568C119.119 95.4865 118.704 95.2198 118.292 94.999C118.704 94.7773 119.119 94.5106 119.532 94.2403Z" fill="#232323"/>
<path d="M112.078 94.3348C112.081 94.3329 112.082 94.3311 112.085 94.3293C111.925 94.1625 111.805 93.9939 111.772 93.8271C112.361 93.3397 113.067 92.3235 113.211 91.8361C113.355 92.3235 114.062 93.3397 114.65 93.8271C114.617 93.9939 114.497 94.1625 114.337 94.3293C114.34 94.3311 114.341 94.3329 114.344 94.3348C114.712 94.6582 115.315 94.5528 115.493 94.0947C115.595 93.8299 115.595 93.5633 115.438 93.2975C113.329 92.2383 113.7 91.18 113.211 90.1199C112.721 91.18 113.092 92.2383 110.983 93.2975C110.826 93.5633 110.826 93.8299 110.929 94.0947C111.106 94.5528 111.71 94.66 112.078 94.3348Z" fill="#232323"/>
<path d="M114.344 95.6836C114.341 95.6854 114.34 95.6881 114.337 95.6891C114.497 95.8558 114.617 96.0244 114.65 96.1912C114.061 96.6786 113.355 97.6948 113.211 98.1823C113.067 97.6948 112.359 96.6786 111.772 96.1912C111.805 96.0244 111.925 95.8558 112.085 95.6891C112.082 95.6881 112.081 95.6854 112.078 95.6836C111.71 95.3601 111.106 95.4655 110.929 95.9236C110.826 96.1884 110.826 96.4551 110.983 96.7208C113.092 97.78 112.721 98.8392 113.211 99.8985C113.7 98.8392 113.329 97.78 115.438 96.7208C115.595 96.4551 115.595 96.1884 115.493 95.9236C115.315 95.4646 114.712 95.3583 114.344 95.6836Z" fill="#232323"/>
<path d="M117.771 93.7035C117.769 93.7007 117.766 93.6998 117.763 93.6971C117.498 93.4634 117.095 93.4753 116.822 93.6998C116.284 94.1433 115.346 94.8855 114.963 94.9991C115.347 95.1127 116.284 95.8549 116.822 96.2984C117.095 96.5229 117.496 96.5357 117.763 96.3012C117.766 96.2984 117.769 96.2975 117.771 96.2947C117.755 96.2004 116.858 95.4234 116.858 94.9991C116.858 94.573 117.755 93.7979 117.771 93.7035Z" fill="#232323"/>
<path d="M123.215 96.1454C123.045 96.3103 122.873 96.4313 122.704 96.4642C122.206 95.865 121.173 95.1457 120.676 94.9991C121.173 94.8525 122.208 94.1323 122.704 93.5321C122.874 93.5661 123.046 93.6879 123.215 93.851C123.216 93.8492 123.219 93.8474 123.221 93.8446C123.57 93.4488 123.411 92.812 122.908 92.6498C122.661 92.571 122.411 92.5829 122.164 92.7295C121.086 94.8763 120.006 94.4988 118.928 94.9982C120.006 95.4976 121.086 95.1191 122.164 97.2669C122.411 97.4135 122.661 97.4245 122.908 97.3457C123.411 97.1835 123.57 96.5485 123.221 96.1509L123.215 96.1454Z" fill="#232323"/>
<mask id="mask0_341_66" style="mask-type:luminance" maskUnits="userSpaceOnUse" x="93" y="87" width="4" height="4">
<path d="M93.1235 87.8301H96.8766V90.5432H93.1235V87.8301Z" fill="white"/>
</mask>
<g mask="url(#mask0_341_66)">
<path d="M93.6616 89.8972C93.7944 89.976 93.9447 90.0548 94.1014 90.1327C94.3222 90.2436 94.5531 90.3563 94.7556 90.4672C94.8683 90.5285 95.0012 90.5285 95.1129 90.4672C95.3154 90.3563 95.5464 90.2436 95.7672 90.1327C95.9229 90.0539 96.0741 89.9742 96.207 89.8972C96.5845 89.6727 96.8117 89.4483 96.5817 89.2238C95.0222 88.7748 95.2971 88.3258 94.9343 87.8768C94.5723 88.3258 94.8463 88.7748 93.2886 89.2238C93.0577 89.4483 93.2859 89.6727 93.6616 89.8972Z" fill="#232323"/>
</g>
<mask id="mask1_341_66" style="mask-type:luminance" maskUnits="userSpaceOnUse" x="93" y="99" width="4" height="4">
<path d="M93.1235 99.4568H96.8766V102.256H93.1235V99.4568Z" fill="white"/>
</mask>
<g mask="url(#mask1_341_66)">
<path d="M96.2059 100.1C96.0731 100.021 95.9228 99.9415 95.7661 99.8645C95.5453 99.7527 95.3144 99.6409 95.1119 99.5301C94.9992 99.4687 94.8663 99.4687 94.7546 99.5301C94.5521 99.6409 94.3212 99.7527 94.1003 99.8645C93.9446 99.9433 93.7934 100.022 93.6605 100.1C93.283 100.324 93.0558 100.549 93.2858 100.773C94.8434 101.222 94.5695 101.671 94.9314 102.12C95.2942 101.671 95.0194 101.222 96.578 100.773C96.8116 100.549 96.5835 100.324 96.2059 100.1Z" fill="#232323"/>
</g>
<path d="M101.451 95.5663C101.633 95.6524 101.874 95.6561 102.06 95.5754C102.535 95.3693 103.008 95.1695 103.482 94.9991C103.009 94.8277 102.535 94.6289 102.062 94.4227C101.876 94.3412 101.635 94.3449 101.452 94.4319C101.366 94.4722 101.279 94.5144 101.192 94.5556C101.512 94.7095 101.831 94.8635 102.151 94.9991C101.831 95.1347 101.512 95.2886 101.192 95.4426C101.278 95.4847 101.364 95.5259 101.451 95.5663Z" fill="#232323"/>
<path d="M88.4348 94.43C88.2515 94.3448 88.0105 94.3412 87.8245 94.4218C87.3517 94.628 86.8771 94.8268 86.4043 94.9981C86.8789 95.1686 87.3517 95.3674 87.8264 95.5745C88.0124 95.656 88.2534 95.6524 88.4357 95.5653C88.5227 95.5241 88.6089 95.4838 88.6959 95.4416C88.3752 95.2877 88.0573 95.1328 87.7366 94.9981C88.0573 94.8625 88.3752 94.7086 88.6959 94.5537C88.608 94.5134 88.5209 94.4722 88.4348 94.43Z" fill="#232323"/>
<path d="M97.4237 97.1477C97.5941 97.0332 97.7646 96.9168 97.935 96.8014C98.8531 96.1774 99.8006 95.5323 100.739 94.999C99.8006 94.4649 98.8531 93.8207 97.9341 93.1958C97.7811 93.0913 97.628 92.9878 97.475 92.8843C96.8437 93.1784 96.1858 93.6292 95.5609 94.0846C95.9384 94.3641 96.3343 94.6518 96.7264 94.9083L96.8648 94.999L96.7264 95.0898C96.2939 95.3729 95.855 95.6954 95.4418 96.0015L95.2906 96.1132C94.334 96.8243 93.3454 97.5582 92.3649 97.9376C92.0204 98.0695 91.7015 98.1529 91.3891 98.1886L91.3469 98.1932L91.313 98.1694C89.508 96.8802 85.8685 95.4068 84.156 95.1072L83.6209 95L84.156 94.8928C85.8685 94.5922 89.508 93.1207 91.313 91.8315L91.3469 91.8067L91.3891 91.8122C91.6851 91.847 91.9874 91.9222 92.3109 92.0431C92.8533 91.6794 93.4846 91.2652 94.1434 90.8813C93.0008 90.3398 91.9902 90.075 91.0574 90.075C90.5324 90.075 90.0183 90.1611 89.5272 90.3278C88.7264 91.2679 87.9219 91.9781 87.1183 92.5242C86.3734 91.8122 85.6275 91.3889 84.8826 91.8278C84.1395 93.3067 83.3964 93.9288 82.6542 94.2633C82.2849 94.3329 81.9193 94.3943 81.5537 94.4511C81.8845 93.9682 82.4508 93.4569 82.4664 93.3736C82.4636 93.3708 82.4599 93.3681 82.4572 93.3644C82.1237 93.0712 81.6188 93.0849 81.2752 93.3681C80.7465 93.8042 79.9118 94.4658 79.3437 94.8039C79.0312 94.8625 78.7188 94.9248 78.4072 95C78.7188 95.0751 79.0321 95.1383 79.3446 95.197C79.9145 95.5351 80.7474 96.1966 81.277 96.6328C81.6197 96.9159 82.1246 96.9296 82.459 96.6364C82.4618 96.6337 82.4654 96.6309 82.4673 96.6291C82.4526 96.5448 81.8863 96.0335 81.5547 95.5516C81.9202 95.6075 82.2877 95.6688 82.6551 95.7385C83.3982 96.0729 84.1404 96.6951 84.8844 98.174C85.6294 98.6129 86.3752 98.1895 87.1201 97.4785C87.9246 98.0237 88.7282 98.7338 89.529 99.6739C90.0193 99.8407 90.5333 99.9268 91.0592 99.9268C92.0406 99.9268 93.1108 99.6336 94.3285 99.0316C95.3987 98.5011 96.4873 97.78 97.4237 97.1477ZM85.6367 92.9475C85.7778 92.9741 85.9198 93.0465 86.0609 93.1472C85.688 93.3397 85.3142 93.5028 84.9403 93.642C85.2069 93.4111 85.4488 93.1729 85.6367 92.9475ZM85.6367 97.0497C85.4488 96.8243 85.2069 96.5851 84.9403 96.3542C85.3142 96.4935 85.688 96.6566 86.0609 96.849C85.9198 96.9498 85.7787 97.0231 85.6367 97.0497Z" fill="#232323"/>
<path d="M111.463 94.9991C111.215 94.9395 110.966 94.8873 110.718 94.8388C110.148 94.5135 109.273 93.818 108.725 93.3672C108.381 93.0841 107.877 93.0694 107.542 93.3626C107.54 93.3654 107.537 93.3681 107.534 93.3718C107.549 93.457 108.133 93.9839 108.462 94.4722C108.048 94.409 107.632 94.3421 107.213 94.2624C106.47 93.928 105.727 93.3058 104.985 91.826C104.24 91.388 103.494 91.8114 102.749 92.5224C101.945 91.9772 101.141 91.2662 100.34 90.327C99.849 90.1593 99.3341 90.0741 98.81 90.0741C96.5312 90.0741 94.1937 91.6629 91.9333 93.1986C91.0152 93.8217 90.0677 94.4658 89.1304 95C90.0677 95.5351 91.017 96.1784 91.9351 96.8033C92.0881 96.9077 92.2421 97.0131 92.3951 97.1157C93.0227 96.8243 93.6825 96.3726 94.3083 95.9145C93.9308 95.635 93.5331 95.3473 93.1428 95.0907L93.0035 94.9991L93.1428 94.9084C93.622 94.595 94.1104 94.2331 94.5822 93.8822C95.854 92.9384 97.1689 91.9616 98.4783 91.8114L98.5204 91.8059L98.5543 91.8297C100.359 93.1198 103.999 94.5923 105.711 94.8919L106.354 94.9991L105.711 95.1063C103.999 95.4069 100.359 96.8784 98.5543 98.1676L98.5204 98.1923L98.4783 98.1868C98.1823 98.1529 97.8799 98.0778 97.5565 97.9559C97.0461 98.2996 96.3956 98.7265 95.7248 99.1196C96.8665 99.6611 97.8772 99.925 98.81 99.925C99.3341 99.925 99.849 99.8398 100.34 99.6731C101.141 98.733 101.945 98.0228 102.749 97.4767C103.494 98.1887 104.24 98.612 104.985 98.1731C105.728 96.6942 106.47 96.0712 107.213 95.7376C107.631 95.657 108.048 95.591 108.462 95.5269C108.133 96.0153 107.549 96.5421 107.535 96.6273C107.538 96.6301 107.541 96.6328 107.544 96.6356C107.878 96.9288 108.383 96.9141 108.726 96.631C109.273 96.1802 110.149 95.4847 110.718 95.1595C110.966 95.11 111.215 95.0587 111.463 94.9991ZM104.233 92.9476C104.419 93.173 104.662 93.4112 104.928 93.6421C104.555 93.5028 104.181 93.3397 103.807 93.1473C103.949 93.0465 104.09 92.975 104.233 92.9476ZM104.233 97.0497C104.09 97.0232 103.949 96.9499 103.807 96.8491C104.181 96.6567 104.555 96.4954 104.928 96.3543C104.66 96.587 104.419 96.8243 104.233 97.0497Z" fill="#232323"/>
<path d="M94.9339 94.5931L94.3008 95.0339L94.9339 95.4737L95.568 95.0339L94.9339 94.5931Z" fill="#232323"/>
<path d="M77.3682 94.4841C76.6957 94.1331 76.8148 93.784 76.6581 93.4331C76.5014 93.784 76.6196 94.1331 75.948 94.4841C75.8481 94.6582 75.9461 94.8341 76.1092 95.0091C75.9461 95.1841 75.8481 95.36 75.948 95.5351C76.6196 95.8851 76.5014 96.2351 76.6581 96.5851C76.8148 96.2351 76.6957 95.8851 77.3682 95.5351C77.4672 95.36 77.3691 95.1841 77.206 95.0091C77.3691 94.8341 77.4672 94.6582 77.3682 94.4841ZM76.6581 96.0179C76.6123 95.8576 76.386 95.5204 76.199 95.36C76.2091 95.3051 76.2513 95.2501 76.3007 95.1951C76.4244 95.3087 76.5546 95.4214 76.6581 95.5351C76.7598 95.4214 76.8908 95.3087 77.0145 95.1951C77.0658 95.2501 77.1071 95.3051 77.1172 95.36C76.9293 95.5204 76.7039 95.8576 76.6581 96.0179ZM76.5032 95.0091C76.5573 94.9642 76.6104 94.9211 76.6581 94.8762C76.7048 94.9211 76.7589 94.9642 76.812 95.0091C76.7589 95.054 76.7048 95.0971 76.6581 95.142C76.6104 95.0971 76.5573 95.054 76.5032 95.0091ZM77.0145 94.8231C76.8908 94.7095 76.7607 94.5977 76.6581 94.4841C76.5555 94.5977 76.4244 94.7095 76.3007 94.8231C76.2494 94.7681 76.2091 94.7131 76.199 94.6582C76.386 94.4978 76.6123 94.1615 76.6581 94.0003C76.7039 94.1615 76.9293 94.4978 77.1172 94.6582C77.1071 94.7131 77.0649 94.7681 77.0145 94.8231Z" fill="#232323"/>
<path d="M71.2232 94.0315C71.0949 93.9472 70.9291 93.9445 70.799 94.0251C70.6881 94.092 70.5782 94.1662 70.4673 94.2414C70.8814 94.5117 71.2947 94.7783 71.7098 95C71.2965 95.2227 70.8814 95.4884 70.4691 95.7578C70.58 95.8329 70.689 95.9062 70.7999 95.9731C70.9318 96.0538 71.0977 96.051 71.225 95.9667C71.7464 95.6268 72.2669 95.2786 72.7882 94.9991C72.2669 94.7197 71.7455 94.3715 71.2232 94.0315Z" fill="#232323"/>
<path d="M75.5253 94.3348C75.528 94.3329 75.5289 94.3311 75.5317 94.3293C75.3704 94.1625 75.2513 93.9939 75.2174 93.8271C75.8066 93.3397 76.513 92.3235 76.6578 91.8361C76.8016 92.3235 77.5081 93.3397 78.0973 93.8271C78.0652 93.9939 77.9442 94.1625 77.7839 94.3293C77.7857 94.3311 77.7875 94.3329 77.7903 94.3348C78.1586 94.6582 78.7616 94.5528 78.9393 94.0947C79.0419 93.8299 79.0419 93.5633 78.8853 93.2975C76.776 92.2383 77.1471 91.18 76.6578 90.1199C76.1666 91.18 76.5387 92.2383 74.4294 93.2975C74.2727 93.5633 74.2727 93.8299 74.3762 94.0947C74.5531 94.5528 75.1569 94.66 75.5253 94.3348Z" fill="#232323"/>
<path d="M77.7903 95.6836C77.7875 95.6854 77.7857 95.6881 77.7839 95.6891C77.9442 95.8558 78.0643 96.0244 78.0973 96.1912C77.5081 96.6786 76.8016 97.6948 76.6578 98.1823C76.513 97.6948 75.8066 96.6786 75.2174 96.1912C75.2495 96.0244 75.3704 95.8558 75.5317 95.6891C75.5289 95.6881 75.528 95.6854 75.5253 95.6836C75.1569 95.3601 74.5531 95.4655 74.3762 95.9236C74.2727 96.1884 74.2727 96.4551 74.4294 96.7208C76.5387 97.78 76.1676 98.8392 76.6578 99.8985C77.1489 98.8392 76.776 97.78 78.8853 96.7208C79.0419 96.4551 79.0419 96.1884 78.9393 95.9236C78.7616 95.4646 78.1586 95.3583 77.7903 95.6836Z" fill="#232323"/>
<path d="M73.1759 93.6998C72.9028 93.4753 72.5015 93.4625 72.2349 93.6971C72.2321 93.6998 72.2303 93.7007 72.2275 93.7035C72.244 93.7979 73.1402 94.5749 73.1402 94.9991C73.1402 95.4233 72.244 96.2003 72.2275 96.2947C72.2303 96.2975 72.2321 96.2984 72.2349 96.3011C72.5006 96.5348 72.9019 96.5229 73.1759 96.2984C73.7147 95.8549 74.6529 95.1127 75.035 94.9991C74.6529 94.8855 73.7156 94.1433 73.1759 93.6998Z" fill="#232323"/>
<path d="M67.8358 92.7295C67.5884 92.5829 67.3392 92.571 67.0918 92.6498C66.5878 92.812 66.4302 93.4469 66.7793 93.8446C66.7812 93.8473 66.783 93.8492 66.7848 93.851C66.9553 93.687 67.1266 93.5661 67.2961 93.5321C67.7918 94.1323 68.8272 94.8525 69.3239 94.9991C68.8272 95.1457 67.7918 95.8659 67.2961 96.4652C67.1248 96.4322 66.9544 96.3103 66.7848 96.1472L66.7793 96.1536C66.4302 96.5495 66.5878 97.1863 67.0918 97.3485C67.3392 97.4273 67.5884 97.4153 67.8358 97.2687C68.9143 95.1219 69.9927 95.4994 71.0721 95C69.9927 94.4988 68.9143 94.8782 67.8358 92.7295Z" fill="#232323"/>
<path d="M127.454 94.4218C127.059 94.4172 126.669 94.332 126.309 94.1698L126.154 94.1011C125.799 93.9435 125.395 93.9435 125.04 94.1011L122.509 94.9981L125.04 95.8943C125.395 96.0528 125.799 96.0528 126.154 95.8943L126.309 95.8256C126.67 95.6643 127.06 95.5791 127.454 95.5745L190.599 94.9981L127.454 94.4218ZM125.591 95.2794C125.263 95.2794 124.386 94.9991 124.386 94.9991C124.386 94.9991 125.263 94.7187 125.591 94.7187C125.919 94.7187 126.185 94.9991 126.185 94.9991C126.185 94.9991 125.919 95.2794 125.591 95.2794Z" fill="#232323"/>
<path d="M64.9617 94.1011C64.6071 93.9435 64.2022 93.9435 63.8485 94.1011L63.6927 94.1698C63.3317 94.3311 62.9413 94.4163 62.5473 94.4218L-0.598145 94.9991L62.5464 95.5754C62.9413 95.5791 63.3317 95.6643 63.6909 95.8265L63.8466 95.8952C64.2012 96.0537 64.6053 96.0537 64.9599 95.8952L67.4916 94.9991L64.9617 94.1011ZM64.4092 95.2794C64.0812 95.2794 63.8146 94.9991 63.8146 94.9991C63.8146 94.9991 64.0803 94.7187 64.4092 94.7187C64.7373 94.7187 65.6141 94.9991 65.6141 94.9991C65.6141 94.9991 64.7373 95.2794 64.4092 95.2794Z" fill="#232323"/>
</g>
<defs>
<clipPath id="clip0_341_66">
<rect width="190" height="190" fill="white"/>
</clipPath>
</defs>
</svg>
