<svg width="169" height="43" viewBox="0 0 169 43" fill="none" xmlns="http://www.w3.org/2000/svg">
<g clip-path="url(#clip0_414_442)">
<path d="M4.87624 25.7208C4.34047 30.6824 0 29.8921 0 29.8921L0.38763 32.0061H15.5077L16.2039 29.9785C11.5449 30.1168 12.851 26.5111 12.851 26.5111C12.851 26.5111 16.673 6.53408 16.7026 6.44765C17.2952 3.40503 21.2875 4.09653 21.2875 4.09653L20.8703 1.88125H5.81939L4.98487 4.06937C4.98487 4.06937 9.06609 3.59519 8.5797 6.87737C8.56983 6.91194 4.83426 25.9801 4.83426 25.9801" fill="#3E3E3E"/>
<path d="M27.6905 10.6833L28.2263 8.04568L18.1059 9.37189L17.8097 11.0142C17.8097 11.0142 21.2341 10.1523 20.049 14.7212L17.4517 28.0005H24.2981L27.0436 14.0716C27.0436 14.0716 27.293 12.0786 29.9694 11.9947C29.9694 11.9947 32.9297 12.0416 31.9767 16.1412L29.5793 28.0425L39.7169 26.7805L39.9836 25.195C39.9836 25.195 36.4258 25.8321 37.4948 22.629L39.1367 13.8222C39.1367 13.8222 39.9638 8.8014 36.7393 8.01605C36.7393 8.01605 33.1075 6.47993 27.6905 10.6833Z" fill="#3E3E3E"/>
<path d="M50.2029 28.1328C50.2029 28.1328 44.7514 28.9923 42.3639 26.6412C42.3639 26.6412 38.0086 23.322 42.2133 15.1968C46.418 7.07409 55.7384 8.14839 55.7384 8.14839L56.2272 5.57501C56.2272 5.57501 56.6914 3.2239 52.7336 3.65115L53.2793 1.90757L64.0366 0.536917L59.6566 22.7934C59.6566 22.7934 58.6962 25.5372 63.1206 25.2236L62.8441 26.7449L51.8719 28.1674L55.2717 10.6773C55.2717 10.6773 51.4102 9.67217 49.0672 15.3326C49.0672 15.3326 44.7218 25.7793 50.9263 26.4559L50.6695 27.9945L50.2029 28.1328Z" fill="#3E3E3E"/>
<path d="M77.5725 19.0282C75.9578 27.6547 72.3407 26.368 72.3407 26.368C72.3407 26.368 69.094 25.9778 70.9087 17.2179C72.7012 8.64329 75.8022 9.79909 75.8022 9.79909C77.3996 9.89787 78.9551 11.8538 77.5725 19.0282ZM75.5232 7.46033C69.4569 7.42328 63.9314 12.1601 63.1907 18.065C62.45 23.9576 66.7633 28.7586 72.837 28.7858C78.9082 28.8105 84.4362 24.0589 85.172 18.1589C85.9102 12.2737 81.6043 7.48502 75.5232 7.46033Z" fill="#3E3E3E"/>
<path d="M112.369 19.0282C110.727 27.6547 107.13 26.368 107.13 26.368C107.13 26.368 103.879 25.9778 105.693 17.2179C107.471 8.64329 110.589 9.79909 110.589 9.79909C112.189 9.89787 113.742 11.8538 112.369 19.0282ZM110.313 7.46033C104.237 7.42328 98.7159 12.1601 97.9727 18.065C97.237 23.9576 101.558 28.7586 107.622 28.7858C113.705 28.8105 119.236 24.0589 119.964 18.1589C120.71 12.2737 116.391 7.48502 110.313 7.46033Z" fill="#3E3E3E"/>
<path d="M136.296 19.0282C134.654 27.6547 131.055 26.368 131.055 26.368C131.055 26.368 127.813 25.9778 129.625 17.2179C131.408 8.64329 134.518 9.79909 134.518 9.79909C136.116 9.89787 137.661 11.8538 136.296 19.0282ZM134.239 7.46033C128.163 7.42328 122.638 12.1601 121.904 18.065C121.166 23.9576 125.482 28.7586 131.558 28.7858C137.627 28.8105 143.153 24.0589 143.888 18.1589C144.631 12.2737 140.316 7.48502 134.239 7.46033Z" fill="#3E3E3E"/>
<path d="M96.3184 10.5086C96.3184 10.5086 96.432 11.0149 94.2445 21.0763C92.0644 31.1204 89.8275 34.0716 89.8275 34.0716C84.3661 44.2268 76.0012 42.8932 76.0012 42.8932C71.9521 42.8932 68.4189 39.4851 68.4189 36.0646C68.4189 32.5454 71.636 29.9028 75.6901 29.9028L84.0698 29.893C84.0698 29.893 84.2155 29.8238 83.5414 32.0218H75.5123C72.7174 32.0218 71.0163 34.5137 71.0163 36.2795C71.0163 38.3787 73.4779 40.6236 75.9493 40.6236C75.9493 40.6236 78.3837 40.873 80.1318 40.0556C83.1983 38.6133 84.8352 34.1383 84.8352 34.1383C85.8623 32.049 87.3856 24.1387 87.3511 24.2498C87.3511 24.2498 88.2449 20.4539 89.6472 10.6173H89.2942H85.9759L86.5536 8.33535C89.225 7.94761 90.2521 6.20403 90.2521 6.20403C90.2521 6.20403 93.3606 1.81546 95.3901 0.738686C100.106 -1.73097 103.733 2.78356 103.733 2.78356L98.9923 6.98691C97.3924 5.30508 96.7702 4.88523 96.7702 4.88523C95.2148 3.37875 94.0099 5.1322 94.0099 5.1322C92.8594 8.30818 96.7702 8.16 96.7702 8.16H101.281L100.671 10.5086H96.3184Z" fill="#3E3E3E"/>
<path d="M69.9307 29.8923H18.3611L17.7217 32.0483H67.6099C67.6099 32.0483 68 30.6826 69.9307 29.8923Z" fill="#3E3E3E"/>
<path d="M93.7185 29.8923H167.837L167.339 32.0483H92.9507C92.9507 32.0483 93.5605 31.0728 93.7185 29.8923Z" fill="#3E3E3E"/>
<path d="M155.174 28.1328C155.174 28.1328 149.715 28.9923 147.315 26.6412C147.315 26.6412 142.974 23.322 147.182 15.1968C151.381 7.07409 160.692 8.14839 160.692 8.14839L161.203 5.57501C161.203 5.57501 161.66 3.2239 157.697 3.65115L158.248 1.90757L169 0.536917L164.622 22.7934C164.622 22.7934 163.662 25.5372 168.086 25.2236L167.815 26.7449L156.845 28.1674L160.235 10.6773C160.235 10.6773 156.379 9.67217 154.028 15.3326C154.028 15.3326 149.69 25.7793 155.9 26.4559L155.638 27.9945L155.174 28.1328Z" fill="#3E3E3E"/>
</g>
<defs>
<clipPath id="clip0_414_442">
<rect width="169" height="43" fill="white"/>
</clipPath>
</defs>
</svg>
