<svg width="236" height="236" viewBox="0 0 236 236" fill="none" xmlns="http://www.w3.org/2000/svg">
<rect x="34.75" y="202.25" width="168.5" height="167.5" rx="20.25" transform="rotate(-90 34.75 202.25)" stroke="#DCB472" stroke-width="0.5"/>
<rect x="-0.353553" y="118.177" width="167.628" height="167.024" rx="20.25" transform="rotate(-45 -0.353553 118.177)" fill="#2D2D2D" stroke="#DCB472" stroke-width="0.5"/>
<g filter="url(#filter0_d_994_24)">
<path d="M68.2919 135V134.2C69.0385 134.2 69.5985 134.093 69.9719 133.88C70.3985 133.613 70.6919 133.293 70.8519 132.92C71.0652 132.493 71.1719 132.04 71.1719 131.56C71.2252 131.026 71.2519 130.493 71.2519 129.96V122.12H49.4119L76.4519 83.7998V118.12H81.3319V122.12H76.4519V129.96C76.4519 131.026 76.6385 132.013 77.0119 132.92C77.4385 133.773 78.2919 134.2 79.5719 134.2V135H68.2919ZM71.2519 95.7198C68.5852 99.5064 65.9185 103.24 63.2519 106.92C60.6385 110.6 57.9985 114.333 55.3319 118.12H71.2519V95.7198ZM85.7256 110.2C85.7256 106.093 86.2323 102.466 87.2456 99.3198C88.3123 96.1731 89.699 93.5598 91.4056 91.4798C93.1123 89.3464 95.0323 87.7464 97.1656 86.6798C99.3523 85.5598 101.566 84.9998 103.806 84.9998C106.046 84.9998 108.259 85.5598 110.446 86.6798C112.632 87.7464 114.552 89.3464 116.206 91.4798C117.912 93.5598 119.272 96.1731 120.286 99.3198C121.352 102.466 121.886 106.093 121.886 110.2C121.886 114.36 121.352 118.04 120.286 121.24C119.272 124.386 117.912 127.053 116.206 129.24C114.552 131.373 112.632 133 110.446 134.12C108.259 135.24 106.046 135.8 103.806 135.8C101.566 135.8 99.3523 135.24 97.1656 134.12C95.0323 133 93.1123 131.373 91.4056 129.24C89.699 127.053 88.3123 124.386 87.2456 121.24C86.2323 118.04 85.7256 114.36 85.7256 110.2ZM116.846 112.28C116.846 108.44 116.419 105.053 115.566 102.12C114.712 99.1331 113.592 96.6531 112.206 94.6798C110.872 92.6531 109.326 91.1331 107.566 90.1198C105.859 89.0531 104.099 88.5198 102.286 88.5198C100.472 88.5198 98.819 89.0531 97.3256 90.1198C95.8856 91.1331 94.659 92.4931 93.6456 94.1998C92.6323 95.9064 91.8323 97.8798 91.2456 100.12C90.7123 102.36 90.4456 104.706 90.4456 107.16C90.4456 110.093 90.7923 113.08 91.4856 116.12C92.179 119.106 93.1656 121.826 94.4456 124.28C95.7256 126.68 97.2456 128.653 99.0056 130.2C100.819 131.746 102.792 132.52 104.926 132.52C106.472 132.52 107.966 132.093 109.406 131.24C110.846 130.333 112.099 129.026 113.166 127.32C114.286 125.613 115.166 123.506 115.806 121C116.499 118.493 116.846 115.586 116.846 112.28ZM143.742 137H139.822L167.342 82.5998H171.422L143.742 137ZM164.542 123.56C164.542 124.893 164.729 126.146 165.102 127.32C165.529 128.493 166.062 129.506 166.702 130.36C167.395 131.213 168.169 131.906 169.022 132.44C169.929 132.92 170.889 133.16 171.902 133.16C173.769 133.16 175.235 132.28 176.302 130.52C177.369 128.706 177.902 126.44 177.902 123.72C177.902 120.733 177.182 118.333 175.742 116.52C174.355 114.706 172.595 113.8 170.462 113.8C168.649 113.8 167.209 114.68 166.142 116.44C165.075 118.146 164.542 120.52 164.542 123.56ZM146.942 96.9198C146.942 95.5331 146.729 94.2531 146.302 93.0798C145.929 91.9064 145.395 90.8931 144.702 90.0398C144.009 89.1331 143.209 88.4398 142.302 87.9598C141.395 87.4264 140.462 87.1598 139.502 87.1598C137.635 87.1598 136.169 88.0664 135.102 89.8798C134.035 91.6398 133.502 93.8798 133.502 96.5998C133.502 99.5864 134.222 102.04 135.662 103.96C137.155 105.826 138.915 106.76 140.942 106.76C142.755 106.76 144.195 105.88 145.262 104.12C146.382 102.306 146.942 99.9064 146.942 96.9198ZM128.142 96.7598C128.142 95.1064 128.462 93.5598 129.102 92.1198C129.742 90.6264 130.595 89.3198 131.662 88.1998C132.729 87.0798 133.982 86.1998 135.422 85.5598C136.915 84.9198 138.515 84.5998 140.222 84.5998C141.929 84.5998 143.502 84.9198 144.942 85.5598C146.435 86.1998 147.715 87.0798 148.782 88.1998C149.902 89.3198 150.782 90.6264 151.422 92.1198C152.062 93.5598 152.382 95.1064 152.382 96.7598C152.382 98.4664 152.062 100.066 151.422 101.56C150.782 103 149.902 104.28 148.782 105.4C147.715 106.466 146.435 107.32 144.942 107.96C143.502 108.6 141.929 108.92 140.222 108.92C138.515 108.92 136.915 108.6 135.422 107.96C133.982 107.32 132.729 106.466 131.662 105.4C130.595 104.28 129.742 103 129.102 101.56C128.462 100.066 128.142 98.4664 128.142 96.7598ZM159.182 123.8C159.182 122.093 159.502 120.493 160.142 119C160.782 117.506 161.635 116.226 162.702 115.16C163.769 114.04 165.022 113.16 166.462 112.52C167.955 111.88 169.555 111.56 171.262 111.56C172.915 111.56 174.489 111.88 175.982 112.52C177.475 113.16 178.755 114.04 179.822 115.16C180.942 116.226 181.822 117.506 182.462 119C183.102 120.493 183.422 122.093 183.422 123.8C183.422 125.453 183.102 127.026 182.462 128.52C181.822 129.96 180.942 131.24 179.822 132.36C178.755 133.426 177.475 134.28 175.982 134.92C174.489 135.56 172.915 135.88 171.262 135.88C169.555 135.88 167.955 135.56 166.462 134.92C165.022 134.28 163.769 133.426 162.702 132.36C161.635 131.24 160.782 129.96 160.142 128.52C159.502 127.026 159.182 125.453 159.182 123.8Z" fill="#DCB472"/>
</g>
<path d="M96.7911 58.8158V65.8558C96.7911 66.9651 97.0524 67.7864 97.5751 68.3198C98.1084 68.8531 98.8337 69.1198 99.7511 69.1198C100.668 69.1198 101.383 68.8584 101.895 68.3358C102.418 67.8024 102.679 66.9758 102.679 65.8558V58.8158H103.799V65.8398C103.799 67.2584 103.42 68.3251 102.663 69.0398C101.916 69.7544 100.94 70.1118 99.7351 70.1118C98.5297 70.1118 97.5484 69.7544 96.7911 69.0398C96.0444 68.3251 95.6711 67.2584 95.6711 65.8398V58.8158H96.7911ZM114.249 62.0318C114.249 62.9918 113.935 63.7651 113.305 64.3518C112.676 64.9384 111.732 65.2318 110.473 65.2318H108.217V69.9998H107.097V58.8158H110.473C111.721 58.8158 112.66 59.1091 113.289 59.6958C113.929 60.2824 114.249 61.0611 114.249 62.0318ZM110.473 64.2718C112.223 64.2718 113.097 63.5251 113.097 62.0318C113.097 61.2851 112.889 60.7198 112.473 60.3358C112.057 59.9518 111.391 59.7598 110.473 59.7598H108.217V64.2718H110.473ZM128.663 58.8158V59.7438H125.559V69.9998H124.439V59.7438H121.319V58.8158H128.663ZM136.256 70.1118C135.221 70.1118 134.282 69.8718 133.44 69.3918C132.597 68.9011 131.93 68.2238 131.44 67.3598C130.96 66.4851 130.72 65.4984 130.72 64.3998C130.72 63.3011 130.96 62.3198 131.44 61.4558C131.93 60.5811 132.597 59.9038 133.44 59.4238C134.282 58.9331 135.221 58.6878 136.256 58.6878C137.301 58.6878 138.245 58.9331 139.088 59.4238C139.93 59.9038 140.592 60.5811 141.072 61.4558C141.552 62.3198 141.792 63.3011 141.792 64.3998C141.792 65.4984 141.552 66.4851 141.072 67.3598C140.592 68.2238 139.93 68.9011 139.088 69.3918C138.245 69.8718 137.301 70.1118 136.256 70.1118ZM136.256 69.1358C137.088 69.1358 137.834 68.9438 138.496 68.5598C139.157 68.1758 139.68 67.6264 140.064 66.9118C140.448 66.1864 140.64 65.3491 140.64 64.3998C140.64 63.4504 140.448 62.6184 140.064 61.9038C139.68 61.1891 139.157 60.6398 138.496 60.2558C137.834 59.8718 137.088 59.6798 136.256 59.6798C135.424 59.6798 134.677 59.8718 134.016 60.2558C133.354 60.6398 132.832 61.1891 132.448 61.9038C132.064 62.6184 131.872 63.4504 131.872 64.3998C131.872 65.3491 132.064 66.1864 132.448 66.9118C132.832 67.6264 133.354 68.1758 134.016 68.5598C134.677 68.9438 135.424 69.1358 136.256 69.1358Z" fill="#DCB472"/>
<path d="M80.8311 153.816C82.0684 153.816 83.1297 154.04 84.0151 154.488C84.9004 154.936 85.5777 155.581 86.0471 156.424C86.5164 157.266 86.7511 158.269 86.7511 159.432C86.7511 160.584 86.5164 161.581 86.0471 162.424C85.5777 163.256 84.9004 163.896 84.0151 164.344C83.1297 164.781 82.0684 165 80.8311 165H77.5191V153.816H80.8311ZM80.8311 164.072C82.3884 164.072 83.5724 163.666 84.3831 162.856C85.2044 162.034 85.6151 160.893 85.6151 159.432C85.6151 157.96 85.2044 156.813 84.3831 155.992C83.5724 155.16 82.3884 154.744 80.8311 154.744H78.6391V164.072H80.8311ZM90.7359 153.816V165H89.6159V153.816H90.7359ZM97.4642 165.112C96.7282 165.112 96.0775 164.984 95.5122 164.728C94.9575 164.472 94.5202 164.114 94.2002 163.656C93.8802 163.197 93.7095 162.685 93.6882 162.12H94.8722C94.9255 162.664 95.1655 163.144 95.5922 163.56C96.0189 163.965 96.6429 164.168 97.4642 164.168C98.2215 164.168 98.8189 163.976 99.2562 163.592C99.7042 163.197 99.9282 162.701 99.9282 162.104C99.9282 161.624 99.8055 161.24 99.5602 160.952C99.3149 160.653 99.0109 160.434 98.6482 160.296C98.2855 160.146 97.7842 159.986 97.1442 159.816C96.3975 159.613 95.8055 159.416 95.3682 159.224C94.9309 159.032 94.5575 158.733 94.2482 158.328C93.9389 157.922 93.7842 157.373 93.7842 156.68C93.7842 156.104 93.9335 155.592 94.2322 155.144C94.5309 154.685 94.9522 154.328 95.4962 154.072C96.0402 153.816 96.6642 153.688 97.3682 153.688C98.4029 153.688 99.2349 153.944 99.8642 154.456C100.504 154.957 100.872 155.608 100.968 156.408H99.7522C99.6775 155.949 99.4269 155.544 99.0002 155.192C98.5735 154.829 97.9975 154.648 97.2722 154.648C96.6002 154.648 96.0402 154.829 95.5922 155.192C95.1442 155.544 94.9202 156.029 94.9202 156.648C94.9202 157.117 95.0429 157.496 95.2882 157.784C95.5335 158.072 95.8375 158.29 96.2002 158.44C96.5735 158.589 97.0749 158.749 97.7042 158.92C98.4295 159.122 99.0162 159.325 99.4642 159.528C99.9122 159.72 100.291 160.018 100.6 160.424C100.91 160.829 101.064 161.373 101.064 162.056C101.064 162.578 100.926 163.074 100.648 163.544C100.371 164.013 99.9602 164.392 99.4162 164.68C98.8722 164.968 98.2215 165.112 97.4642 165.112ZM103.516 159.4C103.516 158.301 103.756 157.32 104.236 156.456C104.716 155.581 105.372 154.904 106.204 154.424C107.036 153.933 107.964 153.688 108.988 153.688C110.236 153.688 111.303 153.986 112.188 154.584C113.084 155.17 113.735 156.002 114.14 157.08H112.828C112.508 156.322 112.018 155.73 111.356 155.304C110.706 154.877 109.916 154.664 108.988 154.664C108.167 154.664 107.426 154.856 106.764 155.24C106.114 155.624 105.602 156.178 105.228 156.904C104.855 157.618 104.668 158.45 104.668 159.4C104.668 160.349 104.855 161.181 105.228 161.896C105.602 162.61 106.114 163.16 106.764 163.544C107.426 163.928 108.167 164.12 108.988 164.12C109.916 164.12 110.706 163.912 111.356 163.496C112.018 163.069 112.508 162.482 112.828 161.736H114.14C113.735 162.802 113.084 163.629 112.188 164.216C111.292 164.802 110.226 165.096 108.988 165.096C107.964 165.096 107.036 164.856 106.204 164.376C105.372 163.885 104.716 163.208 104.236 162.344C103.756 161.48 103.516 160.498 103.516 159.4ZM122.196 165.112C121.162 165.112 120.223 164.872 119.38 164.392C118.538 163.901 117.871 163.224 117.38 162.36C116.9 161.485 116.66 160.498 116.66 159.4C116.66 158.301 116.9 157.32 117.38 156.456C117.871 155.581 118.538 154.904 119.38 154.424C120.223 153.933 121.162 153.688 122.196 153.688C123.242 153.688 124.186 153.933 125.028 154.424C125.871 154.904 126.532 155.581 127.012 156.456C127.492 157.32 127.732 158.301 127.732 159.4C127.732 160.498 127.492 161.485 127.012 162.36C126.532 163.224 125.871 163.901 125.028 164.392C124.186 164.872 123.242 165.112 122.196 165.112ZM122.196 164.136C123.028 164.136 123.775 163.944 124.436 163.56C125.098 163.176 125.62 162.626 126.004 161.912C126.388 161.186 126.58 160.349 126.58 159.4C126.58 158.45 126.388 157.618 126.004 156.904C125.62 156.189 125.098 155.64 124.436 155.256C123.775 154.872 123.028 154.68 122.196 154.68C121.364 154.68 120.618 154.872 119.956 155.256C119.295 155.64 118.772 156.189 118.388 156.904C118.004 157.618 117.812 158.45 117.812 159.4C117.812 160.349 118.004 161.186 118.388 161.912C118.772 162.626 119.295 163.176 119.956 163.56C120.618 163.944 121.364 164.136 122.196 164.136ZM131.654 153.816V160.856C131.654 161.965 131.915 162.786 132.438 163.32C132.971 163.853 133.696 164.12 134.614 164.12C135.531 164.12 136.246 163.858 136.758 163.336C137.28 162.802 137.542 161.976 137.542 160.856V153.816H138.662V160.84C138.662 162.258 138.283 163.325 137.526 164.04C136.779 164.754 135.803 165.112 134.598 165.112C133.392 165.112 132.411 164.754 131.654 164.04C130.907 163.325 130.534 162.258 130.534 160.84V153.816H131.654ZM150.392 165H149.272L143.08 155.592V165H141.96V153.816H143.08L149.272 163.208V153.816H150.392V165ZM160.272 153.816V154.744H157.168V165H156.048V154.744H152.928V153.816H160.272Z" fill="#DCB472"/>
<defs>
<filter id="filter0_d_994_24" x="45.4121" y="82.5997" width="142.01" height="62.4" filterUnits="userSpaceOnUse" color-interpolation-filters="sRGB">
<feFlood flood-opacity="0" result="BackgroundImageFix"/>
<feColorMatrix in="SourceAlpha" type="matrix" values="0 0 0 0 0 0 0 0 0 0 0 0 0 0 0 0 0 0 127 0" result="hardAlpha"/>
<feOffset dy="4"/>
<feGaussianBlur stdDeviation="2"/>
<feComposite in2="hardAlpha" operator="out"/>
<feColorMatrix type="matrix" values="0 0 0 0 0 0 0 0 0 0 0 0 0 0 0 0 0 0 0.25 0"/>
<feBlend mode="normal" in2="BackgroundImageFix" result="effect1_dropShadow_994_24"/>
<feBlend mode="normal" in="SourceGraphic" in2="effect1_dropShadow_994_24" result="shape"/>
</filter>
</defs>
</svg>
