<svg width="14" height="8" viewBox="0 0 14 8" fill="none" xmlns="http://www.w3.org/2000/svg">
<path d="M13.8135 1.13858L7.4502 7.8045C7.39111 7.86648 7.32093 7.91564 7.24368 7.94919C7.16643 7.98273 7.08362 8 7 8C6.91638 8 6.83357 7.98273 6.75632 7.94919C6.67907 7.91564 6.60889 7.86648 6.54979 7.8045L0.186481 1.13858C0.0670791 1.0135 0 0.843852 0 0.666963C0 0.490073 0.0670791 0.320428 0.186481 0.195349C0.305882 0.0702687 0.467826 0 0.636685 0C0.805545 0 0.967488 0.0702687 1.08689 0.195349L7 6.39049L12.9131 0.195349C12.9722 0.133415 13.0424 0.0842872 13.1197 0.0507692C13.1969 0.0172512 13.2797 0 13.3633 0C13.4469 0 13.5297 0.0172512 13.607 0.0507692C13.6842 0.0842872 13.7544 0.133415 13.8135 0.195349C13.8726 0.257282 13.9195 0.330807 13.9515 0.411727C13.9835 0.492647 14 0.579376 14 0.666963C14 0.75455 13.9835 0.841279 13.9515 0.922198C13.9195 1.00312 13.8726 1.07664 13.8135 1.13858Z" fill="#DCB472"/>
</svg>
