<svg width="295" height="22" viewBox="0 0 295 22" fill="none" xmlns="http://www.w3.org/2000/svg">
<path d="M176.694 10.1477C175.658 9.6125 175.84 9.08011 175.598 8.54492C175.356 9.08011 175.539 9.6125 174.503 10.1477C174.348 10.4132 174.5 10.6815 174.751 10.9484C174.5 11.2153 174.348 11.4836 174.503 11.7505C175.539 12.2842 175.356 12.818 175.598 13.3518C175.84 12.818 175.658 12.2842 176.694 11.7505C176.848 11.4836 176.695 11.2153 176.444 10.9484C176.695 10.6815 176.848 10.4132 176.694 10.1477ZM175.598 12.4869C175.528 12.2423 175.178 11.7281 174.89 11.4836C174.905 11.3997 174.971 11.3159 175.047 11.232C175.238 11.4053 175.438 11.5772 175.598 11.7505C175.755 11.5772 175.959 11.4053 176.15 11.232C176.227 11.3159 176.291 11.3997 176.306 11.4836C176.017 11.7281 175.669 12.2423 175.598 12.4869ZM175.359 10.9484C175.443 10.8799 175.525 10.8142 175.598 10.7458C175.67 10.8142 175.754 10.8799 175.836 10.9484C175.754 11.0168 175.67 11.0825 175.598 11.151C175.525 11.0825 175.443 11.0168 175.359 10.9484ZM176.15 10.6647C175.959 10.4914 175.758 10.321 175.598 10.1477C175.44 10.321 175.238 10.4914 175.047 10.6647C174.968 10.5809 174.905 10.497 174.89 10.4132C175.178 10.1686 175.528 9.65582 175.598 9.40989C175.669 9.65582 176.017 10.1686 176.306 10.4132C176.291 10.497 176.226 10.5809 176.15 10.6647Z" fill="#232323"/>
<path d="M185.352 9.77561C185.181 9.66102 185.011 9.54924 184.84 9.44443C184.638 9.32286 184.382 9.32566 184.184 9.45422C183.38 9.97403 182.575 10.505 181.772 10.9312C182.591 11.3644 183.354 11.8702 184.184 12.4068C184.384 12.5354 184.64 12.5396 184.84 12.4166C185.011 12.3132 185.181 12.2 185.352 12.0882C184.714 11.676 184.074 11.2694 183.438 10.9326C184.074 10.5945 184.714 10.1878 185.352 9.77561Z" fill="#232323"/>
<path d="M173.851 9.92002C173.855 9.91723 173.856 9.91443 173.861 9.91164C173.613 9.65732 173.428 9.40021 173.377 9.14589C174.286 8.4025 175.376 6.85283 175.598 6.10943C175.82 6.85283 176.912 8.4025 177.819 9.14589C177.768 9.40021 177.583 9.65732 177.336 9.91164C177.34 9.91443 177.341 9.91723 177.346 9.92002C177.914 10.4133 178.844 10.2526 179.118 9.55392C179.277 9.15008 179.277 8.74345 179.035 8.33822C175.781 6.72287 176.353 5.10893 175.598 3.49219C174.842 5.10893 175.414 6.72287 172.16 8.33822C171.918 8.74345 171.918 9.15008 172.078 9.55392C172.351 10.2526 173.282 10.4161 173.851 9.92002Z" fill="#232323"/>
<path d="M177.346 11.9767C177.341 11.9795 177.34 11.9836 177.336 11.985C177.583 12.2394 177.768 12.4965 177.819 12.7508C176.91 13.4942 175.82 15.0439 175.598 15.7872C175.376 15.0439 174.283 13.4942 173.377 12.7508C173.428 12.4965 173.613 12.2394 173.861 11.985C173.856 11.9836 173.855 11.9795 173.851 11.9767C173.282 11.4834 172.351 11.6441 172.078 12.3428C171.918 12.7466 171.918 13.1532 172.16 13.5585C175.414 15.1738 174.842 16.7892 175.598 18.4045C176.353 16.7892 175.781 15.1738 179.035 13.5585C179.277 13.1532 179.277 12.7466 179.118 12.3428C178.844 11.6427 177.914 11.4806 177.346 11.9767Z" fill="#232323"/>
<path d="M182.634 8.95726C182.63 8.95306 182.625 8.95167 182.621 8.94748C182.213 8.59115 181.591 8.60932 181.169 8.95167C180.339 9.62799 178.892 10.7598 178.301 10.9331C178.893 11.1064 180.339 12.2382 181.169 12.9146C181.591 13.2569 182.21 13.2765 182.621 12.9188C182.625 12.9146 182.63 12.9132 182.634 12.909C182.608 12.7651 181.224 11.5801 181.224 10.9331C181.224 10.2833 182.608 9.10118 182.634 8.95726Z" fill="#232323"/>
<path d="M191.033 12.6813C190.77 12.9328 190.506 13.1173 190.244 13.1676C189.476 12.2537 187.882 11.1568 187.115 10.9332C187.882 10.7096 189.479 9.6113 190.244 8.69603C190.507 8.74773 190.771 8.93358 191.033 9.18231C191.034 9.17951 191.039 9.17672 191.041 9.17253C191.58 8.56887 191.335 7.59771 190.559 7.35037C190.178 7.2302 189.793 7.24837 189.411 7.47194C187.747 10.7459 186.082 10.1702 184.418 10.9318C186.082 11.6934 187.747 11.1162 189.411 14.3916C189.793 14.6152 190.178 14.632 190.559 14.5118C191.335 14.2645 191.58 13.2961 191.041 12.6897L191.033 12.6813Z" fill="#232323"/>
<mask id="mask0_1169_124" style="mask-type:luminance" maskUnits="userSpaceOnUse" x="144" y="0" width="7" height="5">
<path d="M144.604 0H150.394V4.13757H144.604V0Z" fill="white"/>
</mask>
<g mask="url(#mask0_1169_124)">
<path d="M145.433 3.15246C145.638 3.27263 145.87 3.3928 146.112 3.51158C146.453 3.68066 146.809 3.85253 147.121 4.02161C147.295 4.11524 147.5 4.11524 147.673 4.02161C147.985 3.85253 148.342 3.68066 148.682 3.51158C148.923 3.39141 149.156 3.26984 149.361 3.15246C149.943 2.81011 150.294 2.46775 149.939 2.1254C147.533 1.4407 147.957 0.755994 147.397 0.0712891C146.839 0.755994 147.261 1.4407 144.858 2.1254C144.502 2.46775 144.854 2.81011 145.433 3.15246Z" fill="#232323"/>
</g>
<mask id="mask1_1169_124" style="mask-type:luminance" maskUnits="userSpaceOnUse" x="144" y="17" width="7" height="5">
<path d="M144.604 17.731H150.394V21.9999H144.604V17.731Z" fill="white"/>
</mask>
<g mask="url(#mask1_1169_124)">
<path d="M149.36 18.7123C149.155 18.5921 148.923 18.4706 148.681 18.3532C148.341 18.1827 147.984 18.0122 147.672 17.8432C147.498 17.7495 147.293 17.7495 147.121 17.8432C146.808 18.0122 146.452 18.1827 146.111 18.3532C145.871 18.4734 145.638 18.5935 145.433 18.7123C144.85 19.0547 144.5 19.397 144.854 19.7394C147.258 20.4241 146.835 21.1088 147.394 21.7935C147.953 21.1088 147.529 20.4241 149.934 19.7394C150.295 19.397 149.943 19.0547 149.36 18.7123Z" fill="#232323"/>
</g>
<path d="M157.452 11.7978C157.734 11.9292 158.106 11.9348 158.393 11.8118C159.125 11.4974 159.854 11.1928 160.587 10.9329C159.857 10.6716 159.125 10.3683 158.395 10.0539C158.108 9.92956 157.737 9.93515 157.454 10.0679C157.321 10.1294 157.187 10.1937 157.054 10.2565C157.547 10.4913 158.039 10.7261 158.532 10.9329C158.039 11.1397 157.547 11.3744 157.054 11.6092C157.185 11.6735 157.318 11.7363 157.452 11.7978Z" fill="#232323"/>
<path d="M137.37 10.0651C137.087 9.93517 136.716 9.92958 136.429 10.0525C135.699 10.367 134.967 10.6702 134.237 10.9315C134.97 11.1914 135.699 11.4946 136.431 11.8104C136.718 11.9348 137.09 11.9292 137.372 11.7964C137.506 11.7336 137.639 11.6721 137.773 11.6078C137.278 11.373 136.788 11.1369 136.293 10.9315C136.788 10.7247 137.278 10.4899 137.773 10.2538C137.637 10.1923 137.503 10.1294 137.37 10.0651Z" fill="#232323"/>
<path d="M151.239 14.2095C151.502 14.0349 151.765 13.8574 152.028 13.6813C153.445 12.7297 154.906 11.746 156.354 10.9327C154.906 10.1181 153.445 9.13573 152.027 8.18273C151.791 8.02343 151.555 7.86553 151.318 7.70763C150.344 8.15618 149.329 8.84368 148.365 9.53817C148.948 9.96436 149.558 10.4031 150.163 10.7944L150.377 10.9327L150.163 11.0711C149.496 11.5029 148.819 11.9947 148.181 12.4614L147.948 12.6319C146.472 13.7163 144.947 14.8355 143.434 15.414C142.902 15.6153 142.41 15.7424 141.928 15.7969L141.863 15.8039L141.811 15.7676C139.026 13.8015 133.411 11.5546 130.768 11.0976L129.943 10.9341L130.768 10.7706C133.411 10.3123 139.026 8.06815 141.811 6.10207L141.863 6.06434L141.928 6.07273C142.385 6.12583 142.852 6.24041 143.351 6.42486C144.188 5.87011 145.162 5.23851 146.178 4.65301C144.415 3.82718 142.856 3.42334 141.417 3.42334C140.606 3.42334 139.813 3.55469 139.056 3.80901C137.82 5.2427 136.579 6.32565 135.339 7.15847C134.19 6.07273 133.039 5.42715 131.889 6.09648C130.743 8.35181 129.596 9.30062 128.451 9.81065C127.881 9.91685 127.317 10.0105 126.753 10.0971C127.264 9.3607 128.137 8.58098 128.161 8.45382C128.157 8.44963 128.151 8.44544 128.147 8.43985C127.633 7.99269 126.854 8.01365 126.323 8.44544C125.508 9.11058 124.22 10.1195 123.343 10.6351C122.861 10.7245 122.379 10.8195 121.898 10.9341C122.379 11.0487 122.863 11.1451 123.345 11.2346C124.224 11.7502 125.509 12.7591 126.326 13.4242C126.855 13.856 127.634 13.877 128.15 13.4298C128.154 13.4256 128.16 13.4214 128.163 13.4186C128.14 13.2901 127.266 12.5103 126.755 11.7753C127.319 11.8606 127.886 11.9542 128.453 12.0604C129.599 12.5704 130.744 13.5192 131.892 15.7746C133.042 16.4439 134.192 15.7983 135.342 14.714C136.583 15.5454 137.823 16.6284 139.058 18.062C139.815 18.3164 140.608 18.4477 141.419 18.4477C142.934 18.4477 144.585 18.0006 146.464 17.0825C148.115 16.2734 149.794 15.1737 151.239 14.2095ZM133.053 7.80405C133.271 7.84457 133.49 7.95496 133.707 8.10867C133.132 8.40212 132.555 8.65085 131.978 8.86325C132.39 8.51111 132.763 8.1478 133.053 7.80405ZM133.053 14.06C132.763 13.7163 132.39 13.3516 131.978 12.9994C132.555 13.2118 133.132 13.4605 133.707 13.754C133.49 13.9077 133.272 14.0195 133.053 14.06Z" fill="#232323"/>
<path d="M172.901 10.9327C172.52 10.8418 172.135 10.7622 171.752 10.6881C170.873 10.1921 169.523 9.13147 168.677 8.44397C168.147 8.01219 167.368 7.98983 166.852 8.43699C166.849 8.44118 166.844 8.44537 166.839 8.45096C166.862 8.58091 167.764 9.38439 168.271 10.1292C167.632 10.0328 166.991 9.93076 166.345 9.80919C165.198 9.29915 164.051 8.35035 162.906 6.09362C161.757 5.42568 160.606 6.07126 159.457 7.15561C158.216 6.32418 156.976 5.23983 155.74 3.80755C154.982 3.55183 154.188 3.42188 153.379 3.42188C149.863 3.42188 146.257 5.84489 142.769 8.18686C141.352 9.13706 139.891 10.1194 138.444 10.9341C139.891 11.7501 141.355 12.7311 142.772 13.6841C143.008 13.8434 143.245 14.0041 143.482 14.1606C144.45 13.7162 145.468 13.0273 146.433 12.3286C145.851 11.9024 145.237 11.4637 144.635 11.0724L144.42 10.9327L144.635 10.7943C145.375 10.3164 146.128 9.76447 146.856 9.22929C148.818 7.79001 150.847 6.30043 152.867 6.07126L152.932 6.06288L152.985 6.09921C155.77 8.06669 161.385 10.3122 164.027 10.7692L165.018 10.9327L164.027 11.0962C161.385 11.5545 155.77 13.7986 152.985 15.7647L152.932 15.8024L152.867 15.7941C152.411 15.7424 151.944 15.6278 151.445 15.4419C150.658 15.9659 149.654 16.6171 148.619 17.2166C150.381 18.0424 151.94 18.4448 153.379 18.4448C154.188 18.4448 154.982 18.3149 155.74 18.0606C156.976 16.6269 158.217 15.5439 159.457 14.7111C160.606 15.7969 161.757 16.4424 162.906 15.7731C164.053 13.5178 165.198 12.5676 166.345 12.0589C166.989 11.936 167.632 11.8354 168.271 11.7375C167.764 12.4823 166.862 13.2858 166.841 13.4158C166.845 13.42 166.851 13.4241 166.855 13.4283C167.371 13.8755 168.15 13.8531 168.679 13.4214C169.523 12.7339 170.874 11.6733 171.752 11.1772C172.135 11.1017 172.52 11.0235 172.901 10.9327ZM161.746 7.80398C162.034 8.14773 162.409 8.51104 162.819 8.86318C162.243 8.65078 161.666 8.40205 161.09 8.10861C161.309 7.9549 161.527 7.8459 161.746 7.80398ZM161.746 14.0599C161.527 14.0194 161.309 13.9076 161.09 13.7539C161.666 13.4605 162.243 13.2145 162.819 12.9994C162.406 13.3543 162.033 13.7162 161.746 14.0599Z" fill="#232323"/>
<path d="M147.398 10.314L146.421 10.9861L147.398 11.6568L148.376 10.9861L147.398 10.314Z" fill="#232323"/>
<path d="M120.296 10.1477C119.259 9.6125 119.442 9.08011 119.201 8.54492C118.959 9.08011 119.141 9.6125 118.105 10.1477C117.951 10.4132 118.102 10.6815 118.354 10.9484C118.102 11.2153 117.951 11.4836 118.105 11.7505C119.141 12.2842 118.959 12.818 119.201 13.3518C119.442 12.818 119.259 12.2842 120.296 11.7505C120.449 11.4836 120.298 11.2153 120.046 10.9484C120.298 10.6815 120.449 10.4132 120.296 10.1477ZM119.201 12.4869C119.13 12.2423 118.781 11.7281 118.492 11.4836C118.508 11.3997 118.573 11.3159 118.649 11.232C118.84 11.4053 119.041 11.5772 119.201 11.7505C119.358 11.5772 119.56 11.4053 119.751 11.232C119.83 11.3159 119.893 11.3997 119.909 11.4836C119.619 11.7281 119.271 12.2423 119.201 12.4869ZM118.962 10.9484C119.045 10.8799 119.127 10.8142 119.201 10.7458C119.273 10.8142 119.356 10.8799 119.438 10.9484C119.356 11.0168 119.273 11.0825 119.201 11.151C119.127 11.0825 119.045 11.0168 118.962 10.9484ZM119.751 10.6647C119.56 10.4914 119.359 10.321 119.201 10.1477C119.042 10.321 118.84 10.4914 118.649 10.6647C118.57 10.5809 118.508 10.497 118.492 10.4132C118.781 10.1686 119.13 9.65582 119.201 9.40989C119.271 9.65582 119.619 10.1686 119.909 10.4132C119.893 10.497 119.828 10.5809 119.751 10.6647Z" fill="#232323"/>
<path d="M110.814 9.4572C110.616 9.32864 110.36 9.32445 110.159 9.44741C109.988 9.54942 109.819 9.66261 109.647 9.77719C110.286 10.1894 110.924 10.596 111.564 10.9342C110.927 11.2738 110.286 11.679 109.65 12.0898C109.821 12.2044 109.99 12.3162 110.161 12.4182C110.364 12.5412 110.62 12.537 110.817 12.4084C111.621 11.89 112.424 11.359 113.228 10.9328C112.424 10.5066 111.62 9.97561 110.814 9.4572Z" fill="#232323"/>
<path d="M117.452 9.92002C117.457 9.91723 117.458 9.91443 117.462 9.91164C117.213 9.65732 117.03 9.40021 116.977 9.14589C117.886 8.4025 118.976 6.85283 119.2 6.10943C119.422 6.85283 120.512 8.4025 121.421 9.14589C121.371 9.40021 121.185 9.65732 120.937 9.91164C120.94 9.91443 120.943 9.91723 120.947 9.92002C121.515 10.4133 122.446 10.2526 122.72 9.55392C122.878 9.15008 122.878 8.74345 122.637 8.33822C119.382 6.72287 119.955 5.10893 119.2 3.49219C118.442 5.10893 119.016 6.72287 115.762 8.33822C115.52 8.74345 115.52 9.15008 115.68 9.55392C115.952 10.2526 116.884 10.4161 117.452 9.92002Z" fill="#232323"/>
<path d="M120.947 11.9767C120.943 11.9795 120.94 11.9836 120.937 11.985C121.185 12.2394 121.37 12.4965 121.421 12.7508C120.512 13.4942 119.422 15.0439 119.2 15.7872C118.976 15.0439 117.886 13.4942 116.977 12.7508C117.027 12.4965 117.213 12.2394 117.462 11.985C117.458 11.9836 117.457 11.9795 117.452 11.9767C116.884 11.4834 115.952 11.6441 115.68 12.3428C115.52 12.7466 115.52 13.1532 115.762 13.5585C119.016 15.1738 118.443 16.7892 119.2 18.4045C119.957 16.7892 119.382 15.1738 122.637 13.5585C122.878 13.1532 122.878 12.7466 122.72 12.3428C122.446 11.6427 121.515 11.4806 120.947 11.9767Z" fill="#232323"/>
<path d="M113.827 8.95122C113.405 8.60887 112.786 8.58931 112.375 8.94703C112.37 8.95122 112.368 8.95262 112.363 8.95681C112.389 9.10074 113.771 10.2857 113.771 10.9327C113.771 11.5797 112.389 12.7646 112.363 12.9085C112.368 12.9127 112.37 12.9141 112.375 12.9183C112.785 13.2746 113.404 13.2565 113.827 12.9141C114.658 12.2378 116.105 11.1059 116.695 10.9327C116.105 10.7594 114.659 9.62754 113.827 8.95122Z" fill="#232323"/>
<path d="M105.587 7.47194C105.206 7.24837 104.821 7.2302 104.439 7.35037C103.662 7.59771 103.419 8.56607 103.957 9.17253C103.96 9.17672 103.963 9.17951 103.966 9.18231C104.229 8.93218 104.493 8.74773 104.755 8.69603C105.52 9.6113 107.117 10.7096 107.883 10.9332C107.117 11.1568 105.52 12.2551 104.755 13.169C104.49 13.1187 104.227 12.9328 103.966 12.6841L103.957 12.6939C103.419 13.2975 103.662 14.2687 104.439 14.516C104.821 14.6362 105.206 14.618 105.587 14.3944C107.251 11.1204 108.915 11.6962 110.581 10.9346C108.915 10.1702 107.251 10.7487 105.587 7.47194Z" fill="#232323"/>
<path d="M197.573 10.0526C196.964 10.0456 196.362 9.91569 195.806 9.66836L195.567 9.56356C195.02 9.32321 194.397 9.32321 193.85 9.56356L189.943 10.9316L193.85 12.2982C194.397 12.5399 195.02 12.5399 195.567 12.2982L195.806 12.1934C196.363 11.9474 196.965 11.8175 197.573 11.8105L295 10.9316L197.573 10.0526ZM194.699 11.3606C194.193 11.3606 192.84 10.933 192.84 10.933C192.84 10.933 194.193 10.5054 194.699 10.5054C195.205 10.5054 195.615 10.933 195.615 10.933C195.615 10.933 195.205 11.3606 194.699 11.3606Z" fill="#232323"/>
<path d="M101.153 9.56356C100.606 9.32321 99.9813 9.32321 99.4356 9.56356L99.1952 9.66836C98.6382 9.9143 98.036 10.0443 97.4281 10.0526L0 10.933L97.4266 11.8119C98.036 11.8175 98.6382 11.9474 99.1924 12.1948L99.4327 12.2996C99.9799 12.5413 100.603 12.5413 101.15 12.2996L105.057 10.933L101.153 9.56356ZM100.301 11.3606C99.7947 11.3606 99.3833 10.933 99.3833 10.933C99.3833 10.933 99.7933 10.5054 100.301 10.5054C100.807 10.5054 102.16 10.933 102.16 10.933C102.16 10.933 100.807 11.3606 100.301 11.3606Z" fill="#232323"/>
</svg>
