<svg width="18" height="20" viewBox="0 0 18 20" fill="none" xmlns="http://www.w3.org/2000/svg">
<path d="M3.90626 5.48143V0.793925C3.90626 0.586725 3.98857 0.388011 4.13508 0.241498C4.28159 0.0949857 4.48031 0.0126755 4.68751 0.0126755C4.89471 0.0126755 5.09342 0.0949857 5.23993 0.241498C5.38645 0.388011 5.46876 0.586725 5.46876 0.793925V5.48143C5.46876 5.68863 5.38645 5.88734 5.23993 6.03385C5.09342 6.18037 4.89471 6.26268 4.68751 6.26268C4.48031 6.26268 4.28159 6.18037 4.13508 6.03385C3.98857 5.88734 3.90626 5.68863 3.90626 5.48143ZM17.9688 0.793925V18.7627C17.9688 18.9699 17.8864 19.1686 17.7399 19.3151C17.5934 19.4616 17.3947 19.5439 17.1875 19.5439C16.9803 19.5439 16.7816 19.4616 16.6351 19.3151C16.4886 19.1686 16.4063 18.9699 16.4063 18.7627V14.0752H11.7188C11.5116 14.0752 11.3128 13.9929 11.1663 13.8464C11.0198 13.6998 10.9375 13.5011 10.9375 13.2939C10.9738 11.4225 11.2102 9.56036 11.6426 7.73924C12.5977 3.78514 14.4082 1.13475 16.8799 0.0761522C16.9987 0.0252639 17.1283 0.0046425 17.257 0.0161363C17.3857 0.0276301 17.5096 0.0708799 17.6175 0.14201C17.7254 0.21314 17.814 0.309929 17.8753 0.423704C17.9366 0.537479 17.9687 0.664685 17.9688 0.793925ZM16.4063 2.15135C13.2647 4.55076 12.6494 10.3955 12.5293 12.5127H16.4063V2.15135ZM8.58302 0.665996C8.56771 0.563412 8.53214 0.464902 8.47837 0.376212C8.42459 0.287522 8.3537 0.210426 8.26982 0.149422C8.18594 0.0884186 8.09075 0.044728 7.98981 0.0208987C7.88886 -0.00293058 7.78418 -0.00642141 7.68188 0.0106298C7.57957 0.027681 7.48168 0.064933 7.39392 0.120213C7.30616 0.175492 7.23029 0.247693 7.17073 0.332604C7.11117 0.417515 7.06911 0.513436 7.04701 0.614772C7.02491 0.716108 7.0232 0.820831 7.042 0.922832L7.81251 5.54295C7.81251 6.37175 7.48327 7.16661 6.89722 7.75266C6.31117 8.33871 5.51631 8.66795 4.68751 8.66795C3.85871 8.66795 3.06385 8.33871 2.4778 7.75266C1.89175 7.16661 1.56251 6.37175 1.56251 5.54295L2.33204 0.922832C2.35084 0.820831 2.34913 0.716108 2.32703 0.614772C2.30493 0.513436 2.26287 0.417515 2.20331 0.332604C2.14375 0.247693 2.06787 0.175492 1.98012 0.120213C1.89236 0.064933 1.79447 0.027681 1.69216 0.0106298C1.58985 -0.00642141 1.48518 -0.00293058 1.38423 0.0208987C1.28329 0.044728 1.1881 0.0884186 1.10422 0.149422C1.02034 0.210426 0.949444 0.287522 0.895671 0.376212C0.841899 0.464902 0.806324 0.563412 0.791023 0.665996L0.00977286 5.3535C0.00308866 5.39581 -0.000176953 5.43859 7.38803e-06 5.48143C0.0015684 6.58866 0.394459 7.65971 1.10925 8.50531C1.82405 9.35091 2.81473 9.91664 3.90626 10.1025V18.7627C3.90626 18.9699 3.98857 19.1686 4.13508 19.3151C4.28159 19.4616 4.48031 19.5439 4.68751 19.5439C4.89471 19.5439 5.09342 19.4616 5.23993 19.3151C5.38645 19.1686 5.46876 18.9699 5.46876 18.7627V10.1025C6.56028 9.91664 7.55097 9.35091 8.26576 8.50531C8.98056 7.65971 9.37345 6.58866 9.37501 5.48143C9.37487 5.43856 9.37128 5.39578 9.36427 5.3535L8.58302 0.665996Z" fill="#DCB472"/>
</svg>
