<svg width="18" height="20" viewBox="0 0 18 20" fill="none" xmlns="http://www.w3.org/2000/svg">
<path d="M16.5 1.53846H14.25V0.769231C14.25 0.565218 14.171 0.369561 14.0303 0.225302C13.8897 0.0810437 13.6989 0 13.5 0C13.3011 0 13.1103 0.0810437 12.9697 0.225302C12.829 0.369561 12.75 0.565218 12.75 0.769231V1.53846H5.25V0.769231C5.25 0.565218 5.17098 0.369561 5.03033 0.225302C4.88968 0.0810437 4.69891 0 4.5 0C4.30109 0 4.11032 0.0810437 3.96967 0.225302C3.82902 0.369561 3.75 0.565218 3.75 0.769231V1.53846H1.5C1.10218 1.53846 0.720644 1.70055 0.43934 1.98907C0.158035 2.27758 0 2.6689 0 3.07692V18.4615C0 18.8696 0.158035 19.2609 0.43934 19.5494C0.720644 19.8379 1.10218 20 1.5 20H16.5C16.8978 20 17.2794 19.8379 17.5607 19.5494C17.842 19.2609 18 18.8696 18 18.4615V3.07692C18 2.6689 17.842 2.27758 17.5607 1.98907C17.2794 1.70055 16.8978 1.53846 16.5 1.53846ZM3.75 3.07692V3.84615C3.75 4.05017 3.82902 4.24582 3.96967 4.39008C4.11032 4.53434 4.30109 4.61538 4.5 4.61538C4.69891 4.61538 4.88968 4.53434 5.03033 4.39008C5.17098 4.24582 5.25 4.05017 5.25 3.84615V3.07692H12.75V3.84615C12.75 4.05017 12.829 4.24582 12.9697 4.39008C13.1103 4.53434 13.3011 4.61538 13.5 4.61538C13.6989 4.61538 13.8897 4.53434 14.0303 4.39008C14.171 4.24582 14.25 4.05017 14.25 3.84615V3.07692H16.5V6.15385H1.5V3.07692H3.75ZM16.5 18.4615H1.5V7.69231H16.5V18.4615Z" fill="#DCB472"/>
</svg>
