<svg width="20" height="20" viewBox="0 0 20 20" fill="none" xmlns="http://www.w3.org/2000/svg">
<path d="M6.53846 11.1538C6.31026 11.1538 6.08717 11.0862 5.89742 10.9594C5.70767 10.8326 5.55978 10.6524 5.47245 10.4416C5.38512 10.2307 5.36227 9.99872 5.40679 9.77489C5.45131 9.55107 5.5612 9.34547 5.72257 9.18411C5.88394 9.02274 6.08954 8.91284 6.31336 8.86832C6.53718 8.8238 6.76918 8.84665 6.98002 8.93398C7.19086 9.02131 7.37107 9.16921 7.49785 9.35896C7.62464 9.54871 7.69231 9.77179 7.69231 10C7.69231 10.306 7.57074 10.5995 7.35436 10.8159C7.13797 11.0323 6.84448 11.1538 6.53846 11.1538ZM13.4615 8.84615C13.2333 8.84615 13.0102 8.91382 12.8205 9.04061C12.6307 9.1674 12.4829 9.3476 12.3955 9.55844C12.3082 9.76928 12.2853 10.0013 12.3299 10.2251C12.3744 10.4489 12.4843 10.6545 12.6456 10.8159C12.807 10.9773 13.0126 11.0872 13.2364 11.1317C13.4603 11.1762 13.6923 11.1533 13.9031 11.066C14.1139 10.9787 14.2941 10.8308 14.4209 10.641C14.5477 10.4513 14.6154 10.2282 14.6154 10C14.6154 9.69398 14.4938 9.40049 14.2774 9.18411C14.061 8.96772 13.7676 8.84615 13.4615 8.84615ZM12.2817 13.1952C11.5966 13.6204 10.8063 13.8457 10 13.8457C9.19367 13.8457 8.40338 13.6204 7.71827 13.1952C7.54563 13.0863 7.33679 13.0504 7.13772 13.0955C6.93864 13.1406 6.76563 13.2629 6.65673 13.4356C6.54784 13.6082 6.51199 13.8171 6.55707 14.0161C6.60216 14.2152 6.72447 14.3882 6.89712 14.4971C7.82803 15.0774 8.90302 15.3851 10 15.3851C11.097 15.3851 12.172 15.0774 13.1029 14.4971C13.2755 14.3882 13.3978 14.2152 13.4429 14.0161C13.488 13.8171 13.4522 13.6082 13.3433 13.4356C13.2344 13.2629 13.0614 13.1406 12.8623 13.0955C12.6632 13.0504 12.4544 13.0863 12.2817 13.1952ZM20 10C20 11.9778 19.4135 13.9112 18.3147 15.5557C17.2159 17.2002 15.6541 18.4819 13.8268 19.2388C11.9996 19.9957 9.98891 20.1937 8.0491 19.8078C6.10929 19.422 4.32746 18.4696 2.92894 17.0711C1.53041 15.6725 0.578004 13.8907 0.192152 11.9509C-0.1937 10.0111 0.00433284 8.00042 0.761209 6.17316C1.51809 4.3459 2.79981 2.78412 4.4443 1.6853C6.08879 0.58649 8.02219 0 10 0C12.6513 0.00279983 15.1932 1.05727 17.068 2.93202C18.9427 4.80678 19.9972 7.34869 20 10ZM18.4615 10C18.4589 7.82177 17.6173 5.72827 16.1117 4.15421C14.606 2.58015 12.5519 1.64649 10.376 1.54712C9.26154 3.11346 9.23077 4.60385 9.23077 4.61538C9.23077 4.8194 9.31182 5.01505 9.45607 5.15931C9.60033 5.30357 9.79599 5.38461 10 5.38461C10.204 5.38461 10.3997 5.30357 10.5439 5.15931C10.6882 5.01505 10.7692 4.8194 10.7692 4.61538C10.7692 4.41137 10.8503 4.21571 10.9945 4.07146C11.1388 3.9272 11.3345 3.84615 11.5385 3.84615C11.7425 3.84615 11.9381 3.9272 12.0824 4.07146C12.2267 4.21571 12.3077 4.41137 12.3077 4.61538C12.3077 5.22742 12.0646 5.81439 11.6318 6.24717C11.199 6.67994 10.612 6.92308 10 6.92308C9.38796 6.92308 8.80099 6.67994 8.36822 6.24717C7.93544 5.81439 7.69231 5.22742 7.69231 4.61538C7.69231 4.54519 7.70481 3.24038 8.50577 1.67019C6.9215 1.95443 5.45116 2.68463 4.26729 3.77512C3.08342 4.8656 2.23513 6.27113 1.82198 7.82677C1.40882 9.38241 1.44793 11.0236 1.93472 12.5578C2.42151 14.092 3.33578 15.4555 4.57025 16.4884C5.80472 17.5212 7.30817 18.1806 8.90418 18.389C10.5002 18.5975 12.1226 18.3464 13.5809 17.6652C15.0392 16.9841 16.273 15.9011 17.1375 14.5434C18.002 13.1857 18.4613 11.6096 18.4615 10Z" fill="#DCB472"/>
</svg>
