<svg width="253" height="253" viewBox="0 0 253 253" fill="none" xmlns="http://www.w3.org/2000/svg">
<rect width="253" height="253" fill="#1E1E1E"/>
<g id="Group 125">
<rect id="Rectangle 70" width="253" height="253" rx="10" fill="#FFD080"/>
<g id="Vector">
<path d="M22.3415 17H17V22.3415H22.3415V17Z" fill="black"/>
<path d="M27.6829 17H22.3415V22.3415H27.6829V17Z" fill="black"/>
<path d="M33.0244 17H27.6829V22.3415H33.0244V17Z" fill="black"/>
<path d="M38.3659 17H33.0244V22.3415H38.3659V17Z" fill="black"/>
<path d="M43.7073 17H38.3659V22.3415H43.7073V17Z" fill="black"/>
<path d="M49.0488 17H43.7073V22.3415H49.0488V17Z" fill="black"/>
<path d="M54.3902 17H49.0488V22.3415H54.3902V17Z" fill="black"/>
<path d="M65.0732 17H59.7317V22.3415H65.0732V17Z" fill="black"/>
<path d="M81.0976 17H75.7561V22.3415H81.0976V17Z" fill="black"/>
<path d="M86.439 17H81.0976V22.3415H86.439V17Z" fill="black"/>
<path d="M91.7805 17H86.439V22.3415H91.7805V17Z" fill="black"/>
<path d="M97.1219 17H91.7805V22.3415H97.1219V17Z" fill="black"/>
<path d="M107.805 17H102.463V22.3415H107.805V17Z" fill="black"/>
<path d="M129.171 17H123.829V22.3415H129.171V17Z" fill="black"/>
<path d="M134.512 17H129.171V22.3415H134.512V17Z" fill="black"/>
<path d="M139.854 17H134.512V22.3415H139.854V17Z" fill="black"/>
<path d="M145.195 17H139.854V22.3415H145.195V17Z" fill="black"/>
<path d="M150.537 17H145.195V22.3415H150.537V17Z" fill="black"/>
<path d="M177.244 17H171.902V22.3415H177.244V17Z" fill="black"/>
<path d="M182.585 17H177.244V22.3415H182.585V17Z" fill="black"/>
<path d="M187.927 17H182.585V22.3415H187.927V17Z" fill="black"/>
<path d="M193.268 17H187.927V22.3415H193.268V17Z" fill="black"/>
<path d="M203.951 17H198.61V22.3415H203.951V17Z" fill="black"/>
<path d="M209.293 17H203.951V22.3415H209.293V17Z" fill="black"/>
<path d="M214.634 17H209.293V22.3415H214.634V17Z" fill="black"/>
<path d="M219.976 17H214.634V22.3415H219.976V17Z" fill="black"/>
<path d="M225.317 17H219.976V22.3415H225.317V17Z" fill="black"/>
<path d="M230.659 17H225.317V22.3415H230.659V17Z" fill="black"/>
<path d="M236 17H230.659V22.3415H236V17Z" fill="black"/>
<path d="M22.3415 22.3415H17V27.6829H22.3415V22.3415Z" fill="black"/>
<path d="M54.3902 22.3415H49.0488V27.6829H54.3902V22.3415Z" fill="black"/>
<path d="M81.0976 22.3415H75.7561V27.6829H81.0976V22.3415Z" fill="black"/>
<path d="M91.7805 22.3415H86.439V27.6829H91.7805V22.3415Z" fill="black"/>
<path d="M113.146 22.3415H107.805V27.6829H113.146V22.3415Z" fill="black"/>
<path d="M118.488 22.3415H113.146V27.6829H118.488V22.3415Z" fill="black"/>
<path d="M129.171 22.3415H123.829V27.6829H129.171V22.3415Z" fill="black"/>
<path d="M139.854 22.3415H134.512V27.6829H139.854V22.3415Z" fill="black"/>
<path d="M155.878 22.3415H150.537V27.6829H155.878V22.3415Z" fill="black"/>
<path d="M166.561 22.3415H161.22V27.6829H166.561V22.3415Z" fill="black"/>
<path d="M182.585 22.3415H177.244V27.6829H182.585V22.3415Z" fill="black"/>
<path d="M187.927 22.3415H182.585V27.6829H187.927V22.3415Z" fill="black"/>
<path d="M193.268 22.3415H187.927V27.6829H193.268V22.3415Z" fill="black"/>
<path d="M203.951 22.3415H198.61V27.6829H203.951V22.3415Z" fill="black"/>
<path d="M236 22.3415H230.659V27.6829H236V22.3415Z" fill="black"/>
<path d="M22.3415 27.6829H17V33.0244H22.3415V27.6829Z" fill="black"/>
<path d="M33.0244 27.6829H27.6829V33.0244H33.0244V27.6829Z" fill="black"/>
<path d="M38.3659 27.6829H33.0244V33.0244H38.3659V27.6829Z" fill="black"/>
<path d="M43.7073 27.6829H38.3659V33.0244H43.7073V27.6829Z" fill="black"/>
<path d="M54.3902 27.6829H49.0488V33.0244H54.3902V27.6829Z" fill="black"/>
<path d="M70.4146 27.6829H65.0732V33.0244H70.4146V27.6829Z" fill="black"/>
<path d="M75.7561 27.6829H70.4146V33.0244H75.7561V27.6829Z" fill="black"/>
<path d="M97.1219 27.6829H91.7805V33.0244H97.1219V27.6829Z" fill="black"/>
<path d="M107.805 27.6829H102.463V33.0244H107.805V27.6829Z" fill="black"/>
<path d="M113.146 27.6829H107.805V33.0244H113.146V27.6829Z" fill="black"/>
<path d="M118.488 27.6829H113.146V33.0244H118.488V27.6829Z" fill="black"/>
<path d="M129.171 27.6829H123.829V33.0244H129.171V27.6829Z" fill="black"/>
<path d="M145.195 27.6829H139.854V33.0244H145.195V27.6829Z" fill="black"/>
<path d="M150.537 27.6829H145.195V33.0244H150.537V27.6829Z" fill="black"/>
<path d="M161.22 27.6829H155.878V33.0244H161.22V27.6829Z" fill="black"/>
<path d="M177.244 27.6829H171.902V33.0244H177.244V27.6829Z" fill="black"/>
<path d="M187.927 27.6829H182.585V33.0244H187.927V27.6829Z" fill="black"/>
<path d="M193.268 27.6829H187.927V33.0244H193.268V27.6829Z" fill="black"/>
<path d="M203.951 27.6829H198.61V33.0244H203.951V27.6829Z" fill="black"/>
<path d="M214.634 27.6829H209.293V33.0244H214.634V27.6829Z" fill="black"/>
<path d="M219.976 27.6829H214.634V33.0244H219.976V27.6829Z" fill="black"/>
<path d="M225.317 27.6829H219.976V33.0244H225.317V27.6829Z" fill="black"/>
<path d="M236 27.6829H230.659V33.0244H236V27.6829Z" fill="black"/>
<path d="M22.3415 33.0244H17V38.3659H22.3415V33.0244Z" fill="black"/>
<path d="M33.0244 33.0244H27.6829V38.3659H33.0244V33.0244Z" fill="black"/>
<path d="M38.3659 33.0244H33.0244V38.3659H38.3659V33.0244Z" fill="black"/>
<path d="M43.7073 33.0244H38.3659V38.3659H43.7073V33.0244Z" fill="black"/>
<path d="M54.3902 33.0244H49.0488V38.3659H54.3902V33.0244Z" fill="black"/>
<path d="M65.0732 33.0244H59.7317V38.3659H65.0732V33.0244Z" fill="black"/>
<path d="M75.7561 33.0244H70.4146V38.3659H75.7561V33.0244Z" fill="black"/>
<path d="M97.1219 33.0244H91.7805V38.3659H97.1219V33.0244Z" fill="black"/>
<path d="M102.463 33.0244H97.1219V38.3659H102.463V33.0244Z" fill="black"/>
<path d="M118.488 33.0244H113.146V38.3659H118.488V33.0244Z" fill="black"/>
<path d="M123.829 33.0244H118.488V38.3659H123.829V33.0244Z" fill="black"/>
<path d="M129.171 33.0244H123.829V38.3659H129.171V33.0244Z" fill="black"/>
<path d="M145.195 33.0244H139.854V38.3659H145.195V33.0244Z" fill="black"/>
<path d="M155.878 33.0244H150.537V38.3659H155.878V33.0244Z" fill="black"/>
<path d="M171.902 33.0244H166.561V38.3659H171.902V33.0244Z" fill="black"/>
<path d="M182.585 33.0244H177.244V38.3659H182.585V33.0244Z" fill="black"/>
<path d="M187.927 33.0244H182.585V38.3659H187.927V33.0244Z" fill="black"/>
<path d="M193.268 33.0244H187.927V38.3659H193.268V33.0244Z" fill="black"/>
<path d="M203.951 33.0244H198.61V38.3659H203.951V33.0244Z" fill="black"/>
<path d="M214.634 33.0244H209.293V38.3659H214.634V33.0244Z" fill="black"/>
<path d="M219.976 33.0244H214.634V38.3659H219.976V33.0244Z" fill="black"/>
<path d="M225.317 33.0244H219.976V38.3659H225.317V33.0244Z" fill="black"/>
<path d="M236 33.0244H230.659V38.3659H236V33.0244Z" fill="black"/>
<path d="M22.3415 38.3659H17V43.7073H22.3415V38.3659Z" fill="black"/>
<path d="M33.0244 38.3659H27.6829V43.7073H33.0244V38.3659Z" fill="black"/>
<path d="M38.3659 38.3659H33.0244V43.7073H38.3659V38.3659Z" fill="black"/>
<path d="M43.7073 38.3659H38.3659V43.7073H43.7073V38.3659Z" fill="black"/>
<path d="M54.3902 38.3659H49.0488V43.7073H54.3902V38.3659Z" fill="black"/>
<path d="M65.0732 38.3659H59.7317V43.7073H65.0732V38.3659Z" fill="black"/>
<path d="M75.7561 38.3659H70.4146V43.7073H75.7561V38.3659Z" fill="black"/>
<path d="M86.439 38.3659H81.0976V43.7073H86.439V38.3659Z" fill="black"/>
<path d="M91.7805 38.3659L86.439 38.3659V43.7073H91.7805V38.3659Z" fill="black"/>
<path d="M102.463 38.3659H97.1219V43.7073H102.463V38.3659Z" fill="black"/>
<path d="M113.146 38.3659L107.805 38.3659V43.7073H113.146V38.3659Z" fill="black"/>
<path d="M118.488 38.3659H113.146V43.7073H118.488V38.3659Z" fill="black"/>
<path d="M129.171 38.3659H123.829V43.7073H129.171V38.3659Z" fill="black"/>
<path d="M139.854 38.3659L134.512 38.3659V43.7073H139.854V38.3659Z" fill="black"/>
<path d="M145.195 38.3659H139.854V43.7073H145.195V38.3659Z" fill="black"/>
<path d="M161.22 38.3659L155.878 38.3659V43.7073H161.22V38.3659Z" fill="black"/>
<path d="M166.561 38.3659L161.22 38.3659V43.7073H166.561V38.3659Z" fill="black"/>
<path d="M182.585 38.3659H177.244V43.7073H182.585V38.3659Z" fill="black"/>
<path d="M193.268 38.3659H187.927V43.7073H193.268V38.3659Z" fill="black"/>
<path d="M203.951 38.3659H198.61V43.7073H203.951V38.3659Z" fill="black"/>
<path d="M214.634 38.3659H209.293V43.7073H214.634V38.3659Z" fill="black"/>
<path d="M219.976 38.3659H214.634V43.7073H219.976V38.3659Z" fill="black"/>
<path d="M225.317 38.3659H219.976V43.7073H225.317V38.3659Z" fill="black"/>
<path d="M236 38.3659H230.659V43.7073H236V38.3659Z" fill="black"/>
<path d="M22.3415 43.7073H17V49.0488H22.3415V43.7073Z" fill="black"/>
<path d="M54.3902 43.7073H49.0488V49.0488H54.3902V43.7073Z" fill="black"/>
<path d="M65.0732 43.7073H59.7317V49.0488H65.0732V43.7073Z" fill="black"/>
<path d="M97.1219 43.7073H91.7805V49.0488H97.1219V43.7073Z" fill="black"/>
<path d="M102.463 43.7073H97.1219V49.0488H102.463V43.7073Z" fill="black"/>
<path d="M107.805 43.7073H102.463V49.0488H107.805V43.7073Z" fill="black"/>
<path d="M113.146 43.7073H107.805V49.0488H113.146V43.7073Z" fill="black"/>
<path d="M118.488 43.7073H113.146V49.0488H118.488V43.7073Z" fill="black"/>
<path d="M129.171 43.7073H123.829V49.0488H129.171V43.7073Z" fill="black"/>
<path d="M145.195 43.7073H139.854V49.0488H145.195V43.7073Z" fill="black"/>
<path d="M150.537 43.7073H145.195V49.0488H150.537V43.7073Z" fill="black"/>
<path d="M166.561 43.7073H161.22V49.0488H166.561V43.7073Z" fill="black"/>
<path d="M171.902 43.7073H166.561V49.0488H171.902V43.7073Z" fill="black"/>
<path d="M177.244 43.7073H171.902V49.0488H177.244V43.7073Z" fill="black"/>
<path d="M182.585 43.7073H177.244V49.0488H182.585V43.7073Z" fill="black"/>
<path d="M187.927 43.7073H182.585V49.0488H187.927V43.7073Z" fill="black"/>
<path d="M193.268 43.7073H187.927V49.0488H193.268V43.7073Z" fill="black"/>
<path d="M203.951 43.7073H198.61V49.0488H203.951V43.7073Z" fill="black"/>
<path d="M236 43.7073H230.659V49.0488H236V43.7073Z" fill="black"/>
<path d="M22.3415 49.0488H17V54.3902H22.3415V49.0488Z" fill="black"/>
<path d="M27.6829 49.0488H22.3415V54.3902H27.6829V49.0488Z" fill="black"/>
<path d="M33.0244 49.0488H27.6829V54.3902H33.0244V49.0488Z" fill="black"/>
<path d="M38.3659 49.0488H33.0244V54.3902H38.3659V49.0488Z" fill="black"/>
<path d="M43.7073 49.0488H38.3659V54.3902H43.7073V49.0488Z" fill="black"/>
<path d="M49.0488 49.0488H43.7073V54.3902H49.0488V49.0488Z" fill="black"/>
<path d="M54.3902 49.0488H49.0488V54.3902H54.3902V49.0488Z" fill="black"/>
<path d="M65.0732 49.0488H59.7317V54.3902H65.0732V49.0488Z" fill="black"/>
<path d="M75.7561 49.0488H70.4146V54.3902H75.7561V49.0488Z" fill="black"/>
<path d="M86.439 49.0488H81.0976V54.3902H86.439V49.0488Z" fill="black"/>
<path d="M97.1219 49.0488H91.7805V54.3902H97.1219V49.0488Z" fill="black"/>
<path d="M107.805 49.0488H102.463V54.3902H107.805V49.0488Z" fill="black"/>
<path d="M118.488 49.0488H113.146V54.3902H118.488V49.0488Z" fill="black"/>
<path d="M129.171 49.0488H123.829V54.3902H129.171V49.0488Z" fill="black"/>
<path d="M139.854 49.0488H134.512V54.3902H139.854V49.0488Z" fill="black"/>
<path d="M150.537 49.0488H145.195V54.3902H150.537V49.0488Z" fill="black"/>
<path d="M161.22 49.0488H155.878V54.3902H161.22V49.0488Z" fill="black"/>
<path d="M171.902 49.0488H166.561V54.3902H171.902V49.0488Z" fill="black"/>
<path d="M182.585 49.0488H177.244V54.3902H182.585V49.0488Z" fill="black"/>
<path d="M193.268 49.0488H187.927V54.3902H193.268V49.0488Z" fill="black"/>
<path d="M203.951 49.0488H198.61V54.3902H203.951V49.0488Z" fill="black"/>
<path d="M209.293 49.0488H203.951V54.3902H209.293V49.0488Z" fill="black"/>
<path d="M214.634 49.0488H209.293V54.3902H214.634V49.0488Z" fill="black"/>
<path d="M219.976 49.0488H214.634V54.3902H219.976V49.0488Z" fill="black"/>
<path d="M225.317 49.0488H219.976V54.3902H225.317V49.0488Z" fill="black"/>
<path d="M230.659 49.0488H225.317V54.3902H230.659V49.0488Z" fill="black"/>
<path d="M236 49.0488H230.659V54.3902H236V49.0488Z" fill="black"/>
<path d="M65.0732 54.3902H59.7317V59.7317H65.0732V54.3902Z" fill="black"/>
<path d="M70.4146 54.3902H65.0732V59.7317H70.4146V54.3902Z" fill="black"/>
<path d="M75.7561 54.3902H70.4146V59.7317H75.7561V54.3902Z" fill="black"/>
<path d="M81.0976 54.3902H75.7561V59.7317H81.0976V54.3902Z" fill="black"/>
<path d="M86.439 54.3902H81.0976V59.7317H86.439V54.3902Z" fill="black"/>
<path d="M97.1219 54.3902H91.7805V59.7317H97.1219V54.3902Z" fill="black"/>
<path d="M113.146 54.3902H107.805V59.7317H113.146V54.3902Z" fill="black"/>
<path d="M123.829 54.3902H118.488V59.7317H123.829V54.3902Z" fill="black"/>
<path d="M129.171 54.3902H123.829V59.7317H129.171V54.3902Z" fill="black"/>
<path d="M145.195 54.3902H139.854V59.7317H145.195V54.3902Z" fill="black"/>
<path d="M150.537 54.3902H145.195V59.7317H150.537V54.3902Z" fill="black"/>
<path d="M155.878 54.3902H150.537V59.7317H155.878V54.3902Z" fill="black"/>
<path d="M166.561 54.3902H161.22V59.7317H166.561V54.3902Z" fill="black"/>
<path d="M182.585 54.3902H177.244V59.7317H182.585V54.3902Z" fill="black"/>
<path d="M193.268 54.3902H187.927V59.7317H193.268V54.3902Z" fill="black"/>
<path d="M22.3415 59.7317H17V65.0732H22.3415V59.7317Z" fill="black"/>
<path d="M27.6829 59.7317H22.3415V65.0732H27.6829V59.7317Z" fill="black"/>
<path d="M33.0244 59.7317H27.6829V65.0732H33.0244V59.7317Z" fill="black"/>
<path d="M43.7073 59.7317H38.3659V65.0732H43.7073V59.7317Z" fill="black"/>
<path d="M54.3902 59.7317H49.0488V65.0732H54.3902V59.7317Z" fill="black"/>
<path d="M65.0732 59.7317H59.7317V65.0732H65.0732V59.7317Z" fill="black"/>
<path d="M75.7561 59.7317H70.4146V65.0732H75.7561V59.7317Z" fill="black"/>
<path d="M86.439 59.7317H81.0976V65.0732H86.439V59.7317Z" fill="black"/>
<path d="M107.805 59.7317H102.463V65.0732H107.805V59.7317Z" fill="black"/>
<path d="M134.512 59.7317H129.171V65.0732H134.512V59.7317Z" fill="black"/>
<path d="M139.854 59.7317H134.512V65.0732H139.854V59.7317Z" fill="black"/>
<path d="M166.561 59.7317H161.22V65.0732H166.561V59.7317Z" fill="black"/>
<path d="M171.902 59.7317H166.561V65.0732H171.902V59.7317Z" fill="black"/>
<path d="M177.244 59.7317H171.902V65.0732H177.244V59.7317Z" fill="black"/>
<path d="M198.61 59.7317H193.268V65.0732H198.61V59.7317Z" fill="black"/>
<path d="M203.951 59.7317H198.61V65.0732H203.951V59.7317Z" fill="black"/>
<path d="M209.293 59.7317H203.951V65.0732H209.293V59.7317Z" fill="black"/>
<path d="M214.634 59.7317H209.293V65.0732H214.634V59.7317Z" fill="black"/>
<path d="M219.976 59.7317H214.634V65.0732H219.976V59.7317Z" fill="black"/>
<path d="M236 59.7317H230.659V65.0732H236V59.7317Z" fill="black"/>
<path d="M27.6829 65.0732H22.3415V70.4146H27.6829V65.0732Z" fill="black"/>
<path d="M33.0244 65.0732H27.6829V70.4146H33.0244V65.0732Z" fill="black"/>
<path d="M86.439 65.0732H81.0976V70.4146H86.439V65.0732Z" fill="black"/>
<path d="M91.7805 65.0732H86.439V70.4146H91.7805V65.0732Z" fill="black"/>
<path d="M102.463 65.0732H97.1219V70.4146H102.463V65.0732Z" fill="black"/>
<path d="M113.146 65.0732H107.805V70.4146H113.146V65.0732Z" fill="black"/>
<path d="M123.829 65.0732H118.488V70.4146H123.829V65.0732Z" fill="black"/>
<path d="M134.512 65.0732H129.171V70.4146H134.512V65.0732Z" fill="black"/>
<path d="M139.854 65.0732H134.512V70.4146H139.854V65.0732Z" fill="black"/>
<path d="M145.195 65.0732H139.854V70.4146H145.195V65.0732Z" fill="black"/>
<path d="M177.244 65.0732H171.902V70.4146H177.244V65.0732Z" fill="black"/>
<path d="M193.268 65.0732H187.927V70.4146H193.268V65.0732Z" fill="black"/>
<path d="M198.61 65.0732H193.268V70.4146H198.61V65.0732Z" fill="black"/>
<path d="M203.951 65.0732H198.61V70.4146H203.951V65.0732Z" fill="black"/>
<path d="M214.634 65.0732H209.293V70.4146H214.634V65.0732Z" fill="black"/>
<path d="M219.976 65.0732H214.634V70.4146H219.976V65.0732Z" fill="black"/>
<path d="M225.317 65.0732H219.976V70.4146H225.317V65.0732Z" fill="black"/>
<path d="M230.659 65.0732H225.317V70.4146H230.659V65.0732Z" fill="black"/>
<path d="M33.0244 70.4146H27.6829V75.7561H33.0244V70.4146Z" fill="black"/>
<path d="M38.3659 70.4146H33.0244V75.7561H38.3659V70.4146Z" fill="black"/>
<path d="M54.3902 70.4146H49.0488V75.7561H54.3902V70.4146Z" fill="black"/>
<path d="M65.0732 70.4146H59.7317V75.7561H65.0732V70.4146Z" fill="black"/>
<path d="M81.0976 70.4146H75.7561V75.7561H81.0976V70.4146Z" fill="black"/>
<path d="M97.1219 70.4146H91.7805V75.7561H97.1219V70.4146Z" fill="black"/>
<path d="M102.463 70.4146H97.1219V75.7561H102.463V70.4146Z" fill="black"/>
<path d="M107.805 70.4146H102.463V75.7561H107.805V70.4146Z" fill="black"/>
<path d="M113.146 70.4146H107.805V75.7561H113.146V70.4146Z" fill="black"/>
<path d="M123.829 70.4146H118.488V75.7561H123.829V70.4146Z" fill="black"/>
<path d="M177.244 70.4146H171.902V75.7561H177.244V70.4146Z" fill="black"/>
<path d="M187.927 70.4146H182.585V75.7561H187.927V70.4146Z" fill="black"/>
<path d="M193.268 70.4146H187.927V75.7561H193.268V70.4146Z" fill="black"/>
<path d="M214.634 70.4146H209.293V75.7561H214.634V70.4146Z" fill="black"/>
<path d="M219.976 70.4146H214.634V75.7561H219.976V70.4146Z" fill="black"/>
<path d="M236 70.4146H230.659V75.7561H236V70.4146Z" fill="black"/>
<path d="M59.7317 75.7561H54.3902V81.0976H59.7317V75.7561Z" fill="black"/>
<path d="M70.4146 75.7561H65.0732V81.0976H70.4146V75.7561Z" fill="black"/>
<path d="M86.439 75.7561H81.0976V81.0976H86.439V75.7561Z" fill="black"/>
<path d="M97.1219 75.7561H91.7805V81.0976H97.1219V75.7561Z" fill="black"/>
<path d="M118.488 75.7561H113.146V81.0976H118.488V75.7561Z" fill="black"/>
<path d="M129.171 75.7561H123.829V81.0976H129.171V75.7561Z" fill="black"/>
<path d="M134.512 75.7561H129.171V81.0976H134.512V75.7561Z" fill="black"/>
<path d="M150.537 75.7561H145.195V81.0976H150.537V75.7561Z" fill="black"/>
<path d="M161.22 75.7561H155.878V81.0976H161.22V75.7561Z" fill="black"/>
<path d="M166.561 75.7561H161.22V81.0976H166.561V75.7561Z" fill="black"/>
<path d="M171.902 75.7561H166.561V81.0976H171.902V75.7561Z" fill="black"/>
<path d="M177.244 75.7561H171.902V81.0976H177.244V75.7561Z" fill="black"/>
<path d="M193.268 75.7561H187.927V81.0976H193.268V75.7561Z" fill="black"/>
<path d="M214.634 75.7561H209.293V81.0976H214.634V75.7561Z" fill="black"/>
<path d="M225.317 75.7561H219.976V81.0976H225.317V75.7561Z" fill="black"/>
<path d="M230.659 75.7561H225.317V81.0976H230.659V75.7561Z" fill="black"/>
<path d="M33.0244 81.0976H27.6829V86.439H33.0244V81.0976Z" fill="black"/>
<path d="M54.3902 81.0976H49.0488V86.439H54.3902V81.0976Z" fill="black"/>
<path d="M65.0732 81.0976H59.7317V86.439H65.0732V81.0976Z" fill="black"/>
<path d="M75.7561 81.0976H70.4146V86.439H75.7561V81.0976Z" fill="black"/>
<path d="M81.0976 81.0976H75.7561V86.439H81.0976V81.0976Z" fill="black"/>
<path d="M91.7805 81.0976H86.439V86.439H91.7805V81.0976Z" fill="black"/>
<path d="M102.463 81.0976H97.1219V86.439H102.463V81.0976Z" fill="black"/>
<path d="M107.805 81.0976H102.463V86.439H107.805V81.0976Z" fill="black"/>
<path d="M118.488 81.0976H113.146V86.439H118.488V81.0976Z" fill="black"/>
<path d="M129.171 81.0976H123.829V86.439H129.171V81.0976Z" fill="black"/>
<path d="M139.854 81.0976H134.512V86.439H139.854V81.0976Z" fill="black"/>
<path d="M145.195 81.0976H139.854V86.439H145.195V81.0976Z" fill="black"/>
<path d="M161.22 81.0976H155.878V86.439H161.22V81.0976Z" fill="black"/>
<path d="M171.902 81.0976H166.561V86.439H171.902V81.0976Z" fill="black"/>
<path d="M182.585 81.0976H177.244V86.439H182.585V81.0976Z" fill="black"/>
<path d="M203.951 81.0976H198.61V86.439H203.951V81.0976Z" fill="black"/>
<path d="M214.634 81.0976H209.293V86.439H214.634V81.0976Z" fill="black"/>
<path d="M225.317 81.0976H219.976V86.439H225.317V81.0976Z" fill="black"/>
<path d="M43.7073 86.439H38.3659V91.7805H43.7073V86.439Z" fill="black"/>
<path d="M65.0732 86.439H59.7317V91.7805H65.0732V86.439Z" fill="black"/>
<path d="M75.7561 86.439H70.4146V91.7805H75.7561V86.439Z" fill="black"/>
<path d="M86.439 86.439H81.0976V91.7805H86.439V86.439Z" fill="black"/>
<path d="M102.463 86.439H97.1219V91.7805H102.463V86.439Z" fill="black"/>
<path d="M113.146 86.439H107.805V91.7805H113.146V86.439Z" fill="black"/>
<path d="M123.829 86.439H118.488V91.7805H123.829V86.439Z" fill="black"/>
<path d="M129.171 86.439H123.829V91.7805H129.171V86.439Z" fill="black"/>
<path d="M139.854 86.439H134.512V91.7805H139.854V86.439Z" fill="black"/>
<path d="M145.195 86.439H139.854V91.7805H145.195V86.439Z" fill="black"/>
<path d="M150.537 86.439H145.195V91.7805H150.537V86.439Z" fill="black"/>
<path d="M155.878 86.439H150.537V91.7805H155.878V86.439Z" fill="black"/>
<path d="M161.22 86.439H155.878V91.7805H161.22V86.439Z" fill="black"/>
<path d="M166.561 86.439H161.22V91.7805H166.561V86.439Z" fill="black"/>
<path d="M177.244 86.439H171.902V91.7805H177.244V86.439Z" fill="black"/>
<path d="M193.268 86.439H187.927V91.7805H193.268V86.439Z" fill="black"/>
<path d="M198.61 86.439H193.268V91.7805H198.61V86.439Z" fill="black"/>
<path d="M203.951 86.439H198.61V91.7805H203.951V86.439Z" fill="black"/>
<path d="M209.293 86.439H203.951V91.7805H209.293V86.439Z" fill="black"/>
<path d="M49.0488 91.7805H43.7073V97.1219H49.0488V91.7805Z" fill="black"/>
<path d="M54.3902 91.7805H49.0488V97.1219H54.3902V91.7805Z" fill="black"/>
<path d="M65.0732 91.7805H59.7317V97.1219H65.0732V91.7805Z" fill="black"/>
<path d="M75.7561 91.7805H70.4146V97.1219H75.7561V91.7805Z" fill="black"/>
<path d="M91.7805 91.7805H86.439V97.1219H91.7805V91.7805Z" fill="black"/>
<path d="M107.805 91.7805H102.463V97.1219H107.805V91.7805Z" fill="black"/>
<path d="M113.146 91.7805H107.805V97.1219H113.146V91.7805Z" fill="black"/>
<path d="M134.512 91.7805H129.171V97.1219H134.512V91.7805Z" fill="black"/>
<path d="M139.854 91.7805H134.512V97.1219H139.854V91.7805Z" fill="black"/>
<path d="M150.537 91.7805H145.195V97.1219H150.537V91.7805Z" fill="black"/>
<path d="M155.878 91.7805H150.537V97.1219H155.878V91.7805Z" fill="black"/>
<path d="M161.22 91.7805H155.878V97.1219H161.22V91.7805Z" fill="black"/>
<path d="M166.561 91.7805H161.22V97.1219H166.561V91.7805Z" fill="black"/>
<path d="M177.244 91.7805H171.902V97.1219H177.244V91.7805Z" fill="black"/>
<path d="M182.585 91.7805H177.244V97.1219H182.585V91.7805Z" fill="black"/>
<path d="M187.927 91.7805H182.585V97.1219H187.927V91.7805Z" fill="black"/>
<path d="M193.268 91.7805H187.927V97.1219H193.268V91.7805Z" fill="black"/>
<path d="M198.61 91.7805H193.268V97.1219H198.61V91.7805Z" fill="black"/>
<path d="M219.976 91.7805H214.634V97.1219H219.976V91.7805Z" fill="black"/>
<path d="M225.317 91.7805H219.976V97.1219H225.317V91.7805Z" fill="black"/>
<path d="M236 91.7805H230.659V97.1219H236V91.7805Z" fill="black"/>
<path d="M22.3415 97.1219H17V102.463H22.3415V97.1219Z" fill="black"/>
<path d="M33.0244 97.1219H27.6829V102.463H33.0244V97.1219Z" fill="black"/>
<path d="M38.3659 97.1219H33.0244V102.463H38.3659V97.1219Z" fill="black"/>
<path d="M43.7073 97.1219H38.3659V102.463H43.7073V97.1219Z" fill="black"/>
<path d="M49.0488 97.1219H43.7073V102.463H49.0488V97.1219Z" fill="black"/>
<path d="M59.7317 97.1219H54.3902V102.463H59.7317V97.1219Z" fill="black"/>
<path d="M86.439 97.1219H81.0976V102.463H86.439V97.1219Z" fill="black"/>
<path d="M102.463 97.1219H97.1219V102.463H102.463V97.1219Z" fill="black"/>
<path d="M107.805 97.1219H102.463V102.463H107.805V97.1219Z" fill="black"/>
<path d="M123.829 97.1219H118.488V102.463H123.829V97.1219Z" fill="black"/>
<path d="M134.512 97.1219H129.171V102.463H134.512V97.1219Z" fill="black"/>
<path d="M139.854 97.1219H134.512V102.463H139.854V97.1219Z" fill="black"/>
<path d="M145.195 97.1219H139.854V102.463H145.195V97.1219Z" fill="black"/>
<path d="M150.537 97.1219H145.195V102.463H150.537V97.1219Z" fill="black"/>
<path d="M155.878 97.1219H150.537V102.463H155.878V97.1219Z" fill="black"/>
<path d="M161.22 97.1219H155.878V102.463H161.22V97.1219Z" fill="black"/>
<path d="M171.902 97.1219H166.561V102.463H171.902V97.1219Z" fill="black"/>
<path d="M177.244 97.1219H171.902V102.463H177.244V97.1219Z" fill="black"/>
<path d="M193.268 97.1219H187.927V102.463H193.268V97.1219Z" fill="black"/>
<path d="M203.951 97.1219H198.61V102.463H203.951V97.1219Z" fill="black"/>
<path d="M214.634 97.1219H209.293V102.463H214.634V97.1219Z" fill="black"/>
<path d="M219.976 97.1219H214.634V102.463H219.976V97.1219Z" fill="black"/>
<path d="M225.317 97.1219H219.976V102.463H225.317V97.1219Z" fill="black"/>
<path d="M33.0244 102.463H27.6829V107.805H33.0244V102.463Z" fill="black"/>
<path d="M38.3659 102.463H33.0244V107.805H38.3659V102.463Z" fill="black"/>
<path d="M54.3902 102.463H49.0488V107.805H54.3902V102.463Z" fill="black"/>
<path d="M59.7317 102.463H54.3902V107.805H59.7317V102.463Z" fill="black"/>
<path d="M65.0732 102.463H59.7317V107.805H65.0732V102.463Z" fill="black"/>
<path d="M70.4146 102.463H65.0732V107.805H70.4146V102.463Z" fill="black"/>
<path d="M81.0976 102.463H75.7561V107.805H81.0976V102.463Z" fill="black"/>
<path d="M97.1219 102.463H91.7805V107.805H97.1219V102.463Z" fill="black"/>
<path d="M102.463 102.463H97.1219V107.805H102.463V102.463Z" fill="black"/>
<path d="M118.488 102.463H113.146V107.805H118.488V102.463Z" fill="black"/>
<path d="M129.171 102.463H123.829V107.805H129.171V102.463Z" fill="black"/>
<path d="M139.854 102.463H134.512V107.805H139.854V102.463Z" fill="black"/>
<path d="M150.537 102.463H145.195V107.805H150.537V102.463Z" fill="black"/>
<path d="M155.878 102.463H150.537V107.805H155.878V102.463Z" fill="black"/>
<path d="M177.244 102.463H171.902V107.805H177.244V102.463Z" fill="black"/>
<path d="M182.585 102.463H177.244V107.805H182.585V102.463Z" fill="black"/>
<path d="M187.927 102.463H182.585V107.805H187.927V102.463Z" fill="black"/>
<path d="M198.61 102.463H193.268V107.805H198.61V102.463Z" fill="black"/>
<path d="M214.634 102.463H209.293V107.805H214.634V102.463Z" fill="black"/>
<path d="M225.317 102.463H219.976V107.805H225.317V102.463Z" fill="black"/>
<path d="M27.6829 107.805H22.3415V113.146H27.6829V107.805Z" fill="black"/>
<path d="M33.0244 107.805H27.6829V113.146H33.0244V107.805Z" fill="black"/>
<path d="M65.0732 107.805H59.7317V113.146H65.0732V107.805Z" fill="black"/>
<path d="M70.4146 107.805H65.0732V113.146H70.4146V107.805Z" fill="black"/>
<path d="M75.7561 107.805H70.4146V113.146H75.7561V107.805Z" fill="black"/>
<path d="M81.0976 107.805H75.7561V113.146H81.0976V107.805Z" fill="black"/>
<path d="M86.439 107.805H81.0976V113.146H86.439V107.805Z" fill="black"/>
<path d="M107.805 107.805H102.463V113.146H107.805V107.805Z" fill="black"/>
<path d="M113.146 107.805H107.805V113.146H113.146V107.805Z" fill="black"/>
<path d="M118.488 107.805H113.146V113.146H118.488V107.805Z" fill="black"/>
<path d="M145.195 107.805H139.854V113.146H145.195V107.805Z" fill="black"/>
<path d="M177.244 107.805H171.902V113.146H177.244V107.805Z" fill="black"/>
<path d="M182.585 107.805H177.244V113.146H182.585V107.805Z" fill="black"/>
<path d="M193.268 107.805H187.927V113.146H193.268V107.805Z" fill="black"/>
<path d="M198.61 107.805H193.268V113.146H198.61V107.805Z" fill="black"/>
<path d="M214.634 107.805H209.293V113.146H214.634V107.805Z" fill="black"/>
<path d="M219.976 107.805H214.634V113.146H219.976V107.805Z" fill="black"/>
<path d="M230.659 107.805H225.317V113.146H230.659V107.805Z" fill="black"/>
<path d="M236 107.805H230.659V113.146H236V107.805Z" fill="black"/>
<path d="M22.3415 113.146H17V118.488H22.3415V113.146Z" fill="black"/>
<path d="M33.0244 113.146H27.6829V118.488H33.0244V113.146Z" fill="black"/>
<path d="M43.7073 113.146H38.3659V118.488H43.7073V113.146Z" fill="black"/>
<path d="M54.3902 113.146H49.0488V118.488H54.3902V113.146Z" fill="black"/>
<path d="M70.4146 113.146H65.0732V118.488H70.4146V113.146Z" fill="black"/>
<path d="M118.488 113.146H113.146V118.488H118.488V113.146Z" fill="black"/>
<path d="M129.171 113.146H123.829V118.488H129.171V113.146Z" fill="black"/>
<path d="M145.195 113.146H139.854V118.488H145.195V113.146Z" fill="black"/>
<path d="M155.878 113.146H150.537V118.488H155.878V113.146Z" fill="black"/>
<path d="M166.561 113.146H161.22V118.488H166.561V113.146Z" fill="black"/>
<path d="M187.927 113.146H182.585V118.488H187.927V113.146Z" fill="black"/>
<path d="M198.61 113.146H193.268V118.488H198.61V113.146Z" fill="black"/>
<path d="M209.293 113.146H203.951V118.488H209.293V113.146Z" fill="black"/>
<path d="M219.976 113.146H214.634V118.488H219.976V113.146Z" fill="black"/>
<path d="M230.659 113.146H225.317V118.488H230.659V113.146Z" fill="black"/>
<path d="M236 113.146H230.659V118.488H236V113.146Z" fill="black"/>
<path d="M22.3415 118.488H17V123.829H22.3415V118.488Z" fill="black"/>
<path d="M27.6829 118.488H22.3415V123.829H27.6829V118.488Z" fill="black"/>
<path d="M65.0732 118.488H59.7317V123.829H65.0732V118.488Z" fill="black"/>
<path d="M70.4146 118.488H65.0732V123.829H70.4146V118.488Z" fill="black"/>
<path d="M91.7805 118.488H86.439V123.829H91.7805V118.488Z" fill="black"/>
<path d="M97.1219 118.488H91.7805V123.829H97.1219V118.488Z" fill="black"/>
<path d="M118.488 118.488H113.146V123.829H118.488V118.488Z" fill="black"/>
<path d="M129.171 118.488H123.829V123.829H129.171V118.488Z" fill="black"/>
<path d="M150.537 118.488H145.195V123.829H150.537V118.488Z" fill="black"/>
<path d="M161.22 118.488H155.878V123.829H161.22V118.488Z" fill="black"/>
<path d="M166.561 118.488H161.22V123.829H166.561V118.488Z" fill="black"/>
<path d="M171.902 118.488H166.561V123.829H171.902V118.488Z" fill="black"/>
<path d="M198.61 118.488H193.268V123.829H198.61V118.488Z" fill="black"/>
<path d="M225.317 118.488H219.976V123.829H225.317V118.488Z" fill="black"/>
<path d="M230.659 118.488H225.317V123.829H230.659V118.488Z" fill="black"/>
<path d="M27.6829 123.829H22.3415V129.171H27.6829V123.829Z" fill="black"/>
<path d="M38.3659 123.829H33.0244V129.171H38.3659V123.829Z" fill="black"/>
<path d="M54.3902 123.829H49.0488V129.171H54.3902V123.829Z" fill="black"/>
<path d="M59.7317 123.829H54.3902V129.171H59.7317V123.829Z" fill="black"/>
<path d="M70.4146 123.829H65.0732V129.171H70.4146V123.829Z" fill="black"/>
<path d="M81.0976 123.829H75.7561V129.171H81.0976V123.829Z" fill="black"/>
<path d="M91.7805 123.829H86.439V129.171H91.7805V123.829Z" fill="black"/>
<path d="M97.1219 123.829H91.7805V129.171H97.1219V123.829Z" fill="black"/>
<path d="M102.463 123.829H97.1219V129.171H102.463V123.829Z" fill="black"/>
<path d="M113.146 123.829H107.805V129.171H113.146V123.829Z" fill="black"/>
<path d="M129.171 123.829H123.829V129.171H129.171V123.829Z" fill="black"/>
<path d="M139.854 123.829H134.512V129.171H139.854V123.829Z" fill="black"/>
<path d="M145.195 123.829H139.854V129.171H145.195V123.829Z" fill="black"/>
<path d="M150.537 123.829H145.195V129.171H150.537V123.829Z" fill="black"/>
<path d="M161.22 123.829H155.878V129.171H161.22V123.829Z" fill="black"/>
<path d="M171.902 123.829H166.561V129.171H171.902V123.829Z" fill="black"/>
<path d="M177.244 123.829H171.902V129.171H177.244V123.829Z" fill="black"/>
<path d="M182.585 123.829H177.244V129.171H182.585V123.829Z" fill="black"/>
<path d="M203.951 123.829H198.61V129.171H203.951V123.829Z" fill="black"/>
<path d="M209.293 123.829H203.951V129.171H209.293V123.829Z" fill="black"/>
<path d="M214.634 123.829H209.293V129.171H214.634V123.829Z" fill="black"/>
<path d="M236 123.829H230.659V129.171H236V123.829Z" fill="black"/>
<path d="M33.0244 129.171H27.6829V134.512H33.0244V129.171Z" fill="black"/>
<path d="M43.7073 129.171H38.3659L38.3659 134.512H43.7073V129.171Z" fill="black"/>
<path d="M75.7561 129.171H70.4146V134.512H75.7561V129.171Z" fill="black"/>
<path d="M97.1219 129.171H91.7805V134.512H97.1219V129.171Z" fill="black"/>
<path d="M107.805 129.171H102.463V134.512H107.805V129.171Z" fill="black"/>
<path d="M113.146 129.171H107.805V134.512H113.146V129.171Z" fill="black"/>
<path d="M123.829 129.171H118.488V134.512H123.829V129.171Z" fill="black"/>
<path d="M129.171 129.171H123.829V134.512H129.171V129.171Z" fill="black"/>
<path d="M134.512 129.171H129.171V134.512H134.512V129.171Z" fill="black"/>
<path d="M171.902 129.171H166.561V134.512H171.902V129.171Z" fill="black"/>
<path d="M177.244 129.171H171.902V134.512H177.244V129.171Z" fill="black"/>
<path d="M193.268 129.171H187.927V134.512H193.268V129.171Z" fill="black"/>
<path d="M203.951 129.171H198.61V134.512H203.951V129.171Z" fill="black"/>
<path d="M214.634 129.171H209.293V134.512H214.634V129.171Z" fill="black"/>
<path d="M22.3415 134.512H17V139.854H22.3415V134.512Z" fill="black"/>
<path d="M27.6829 134.512H22.3415V139.854H27.6829V134.512Z" fill="black"/>
<path d="M38.3659 134.512H33.0244V139.854H38.3659L38.3659 134.512Z" fill="black"/>
<path d="M54.3902 134.512H49.0488V139.854H54.3902V134.512Z" fill="black"/>
<path d="M59.7317 134.512H54.3902V139.854H59.7317V134.512Z" fill="black"/>
<path d="M65.0732 134.512H59.7317V139.854H65.0732V134.512Z" fill="black"/>
<path d="M70.4146 134.512H65.0732V139.854H70.4146V134.512Z" fill="black"/>
<path d="M75.7561 134.512H70.4146V139.854H75.7561V134.512Z" fill="black"/>
<path d="M86.439 134.512H81.0976V139.854H86.439V134.512Z" fill="black"/>
<path d="M91.7805 134.512H86.439V139.854H91.7805V134.512Z" fill="black"/>
<path d="M102.463 134.512H97.1219V139.854H102.463V134.512Z" fill="black"/>
<path d="M107.805 134.512H102.463V139.854H107.805V134.512Z" fill="black"/>
<path d="M113.146 134.512H107.805V139.854H113.146V134.512Z" fill="black"/>
<path d="M134.512 134.512H129.171V139.854H134.512V134.512Z" fill="black"/>
<path d="M139.854 134.512H134.512V139.854H139.854V134.512Z" fill="black"/>
<path d="M145.195 134.512H139.854V139.854H145.195V134.512Z" fill="black"/>
<path d="M161.22 134.512H155.878V139.854H161.22V134.512Z" fill="black"/>
<path d="M171.902 134.512H166.561V139.854H171.902V134.512Z" fill="black"/>
<path d="M177.244 134.512H171.902V139.854H177.244V134.512Z" fill="black"/>
<path d="M182.585 134.512H177.244V139.854H182.585V134.512Z" fill="black"/>
<path d="M187.927 134.512H182.585V139.854H187.927V134.512Z" fill="black"/>
<path d="M198.61 134.512H193.268V139.854H198.61V134.512Z" fill="black"/>
<path d="M214.634 134.512H209.293V139.854H214.634V134.512Z" fill="black"/>
<path d="M219.976 134.512H214.634V139.854H219.976V134.512Z" fill="black"/>
<path d="M225.317 134.512H219.976V139.854H225.317V134.512Z" fill="black"/>
<path d="M236 134.512H230.659V139.854H236V134.512Z" fill="black"/>
<path d="M38.3659 139.854H33.0244V145.195H38.3659V139.854Z" fill="black"/>
<path d="M43.7073 139.854H38.3659V145.195H43.7073V139.854Z" fill="black"/>
<path d="M49.0488 139.854H43.7073V145.195H49.0488V139.854Z" fill="black"/>
<path d="M59.7317 139.854H54.3902V145.195H59.7317V139.854Z" fill="black"/>
<path d="M70.4146 139.854H65.0732V145.195H70.4146V139.854Z" fill="black"/>
<path d="M75.7561 139.854H70.4146V145.195H75.7561V139.854Z" fill="black"/>
<path d="M81.0976 139.854H75.7561V145.195H81.0976V139.854Z" fill="black"/>
<path d="M91.7805 139.854H86.439V145.195H91.7805V139.854Z" fill="black"/>
<path d="M102.463 139.854H97.1219V145.195H102.463V139.854Z" fill="black"/>
<path d="M107.805 139.854H102.463V145.195H107.805V139.854Z" fill="black"/>
<path d="M113.146 139.854H107.805V145.195H113.146V139.854Z" fill="black"/>
<path d="M118.488 139.854H113.146V145.195H118.488V139.854Z" fill="black"/>
<path d="M123.829 139.854H118.488V145.195H123.829V139.854Z" fill="black"/>
<path d="M134.512 139.854H129.171V145.195H134.512V139.854Z" fill="black"/>
<path d="M139.854 139.854H134.512V145.195H139.854V139.854Z" fill="black"/>
<path d="M155.878 139.854H150.537V145.195H155.878V139.854Z" fill="black"/>
<path d="M166.561 139.854H161.22V145.195H166.561V139.854Z" fill="black"/>
<path d="M171.902 139.854H166.561V145.195H171.902V139.854Z" fill="black"/>
<path d="M182.585 139.854H177.244V145.195H182.585V139.854Z" fill="black"/>
<path d="M187.927 139.854H182.585V145.195H187.927V139.854Z" fill="black"/>
<path d="M193.268 139.854H187.927V145.195H193.268V139.854Z" fill="black"/>
<path d="M203.951 139.854H198.61V145.195H203.951V139.854Z" fill="black"/>
<path d="M209.293 139.854H203.951V145.195H209.293V139.854Z" fill="black"/>
<path d="M219.976 139.854H214.634V145.195H219.976V139.854Z" fill="black"/>
<path d="M236 139.854H230.659V145.195H236V139.854Z" fill="black"/>
<path d="M33.0244 145.195H27.6829V150.537H33.0244V145.195Z" fill="black"/>
<path d="M38.3659 145.195H33.0244V150.537H38.3659V145.195Z" fill="black"/>
<path d="M54.3902 145.195H49.0488V150.537H54.3902V145.195Z" fill="black"/>
<path d="M59.7317 145.195H54.3902V150.537H59.7317V145.195Z" fill="black"/>
<path d="M65.0732 145.195H59.7317V150.537H65.0732V145.195Z" fill="black"/>
<path d="M75.7561 145.195H70.4146V150.537H75.7561V145.195Z" fill="black"/>
<path d="M86.439 145.195H81.0976V150.537H86.439V145.195Z" fill="black"/>
<path d="M97.1219 145.195H91.7805V150.537H97.1219V145.195Z" fill="black"/>
<path d="M102.463 145.195H97.1219V150.537H102.463V145.195Z" fill="black"/>
<path d="M107.805 145.195H102.463V150.537H107.805V145.195Z" fill="black"/>
<path d="M118.488 145.195H113.146V150.537H118.488V145.195Z" fill="black"/>
<path d="M139.854 145.195H134.512V150.537H139.854V145.195Z" fill="black"/>
<path d="M145.195 145.195H139.854V150.537H145.195V145.195Z" fill="black"/>
<path d="M150.537 145.195H145.195V150.537H150.537V145.195Z" fill="black"/>
<path d="M193.268 145.195H187.927V150.537H193.268V145.195Z" fill="black"/>
<path d="M209.293 145.195H203.951V150.537H209.293V145.195Z" fill="black"/>
<path d="M225.317 145.195H219.976V150.537H225.317V145.195Z" fill="black"/>
<path d="M236 145.195H230.659V150.537H236V145.195Z" fill="black"/>
<path d="M22.3415 150.537H17V155.878H22.3415V150.537Z" fill="black"/>
<path d="M27.6829 150.537H22.3415V155.878H27.6829V150.537Z" fill="black"/>
<path d="M33.0244 150.537H27.6829V155.878H33.0244V150.537Z" fill="black"/>
<path d="M38.3659 150.537H33.0244V155.878H38.3659V150.537Z" fill="black"/>
<path d="M49.0488 150.537H43.7073V155.878H49.0488V150.537Z" fill="black"/>
<path d="M59.7317 150.537H54.3902V155.878H59.7317V150.537Z" fill="black"/>
<path d="M70.4146 150.537H65.0732V155.878H70.4146V150.537Z" fill="black"/>
<path d="M86.439 150.537H81.0976V155.878H86.439V150.537Z" fill="black"/>
<path d="M91.7805 150.537H86.439V155.878H91.7805V150.537Z" fill="black"/>
<path d="M97.1219 150.537H91.7805V155.878H97.1219V150.537Z" fill="black"/>
<path d="M107.805 150.537H102.463V155.878H107.805V150.537Z" fill="black"/>
<path d="M123.829 150.537H118.488V155.878H123.829V150.537Z" fill="black"/>
<path d="M134.512 150.537H129.171V155.878H134.512V150.537Z" fill="black"/>
<path d="M139.854 150.537H134.512V155.878H139.854V150.537Z" fill="black"/>
<path d="M155.878 150.537H150.537V155.878H155.878V150.537Z" fill="black"/>
<path d="M171.902 150.537H166.561V155.878H171.902V150.537Z" fill="black"/>
<path d="M177.244 150.537H171.902V155.878H177.244V150.537Z" fill="black"/>
<path d="M182.585 150.537H177.244V155.878H182.585V150.537Z" fill="black"/>
<path d="M187.927 150.537H182.585V155.878H187.927V150.537Z" fill="black"/>
<path d="M203.951 150.537H198.61V155.878H203.951V150.537Z" fill="black"/>
<path d="M236 150.537H230.659V155.878H236V150.537Z" fill="black"/>
<path d="M33.0244 155.878H27.6829V161.22H33.0244V155.878Z" fill="black"/>
<path d="M49.0488 155.878H43.7073V161.22H49.0488V155.878Z" fill="black"/>
<path d="M54.3902 155.878H49.0488V161.22H54.3902V155.878Z" fill="black"/>
<path d="M65.0732 155.878H59.7317V161.22H65.0732V155.878Z" fill="black"/>
<path d="M70.4146 155.878H65.0732V161.22H70.4146V155.878Z" fill="black"/>
<path d="M102.463 155.878H97.1219V161.22H102.463V155.878Z" fill="black"/>
<path d="M113.146 155.878H107.805V161.22H113.146V155.878Z" fill="black"/>
<path d="M129.171 155.878H123.829V161.22H129.171V155.878Z" fill="black"/>
<path d="M134.512 155.878H129.171V161.22H134.512V155.878Z" fill="black"/>
<path d="M145.195 155.878H139.854V161.22H145.195V155.878Z" fill="black"/>
<path d="M155.878 155.878H150.537V161.22H155.878V155.878Z" fill="black"/>
<path d="M182.585 155.878H177.244V161.22H182.585V155.878Z" fill="black"/>
<path d="M187.927 155.878H182.585V161.22H187.927V155.878Z" fill="black"/>
<path d="M219.976 155.878H214.634V161.22H219.976V155.878Z" fill="black"/>
<path d="M225.317 155.878H219.976V161.22H225.317V155.878Z" fill="black"/>
<path d="M22.3415 161.22H17V166.561H22.3415V161.22Z" fill="black"/>
<path d="M43.7073 161.22H38.3659V166.561H43.7073V161.22Z" fill="black"/>
<path d="M65.0732 161.22H59.7317V166.561H65.0732V161.22Z" fill="black"/>
<path d="M70.4146 161.22H65.0732V166.561H70.4146V161.22Z" fill="black"/>
<path d="M75.7561 161.22H70.4146V166.561H75.7561V161.22Z" fill="black"/>
<path d="M81.0976 161.22H75.7561V166.561H81.0976V161.22Z" fill="black"/>
<path d="M91.7805 161.22H86.439V166.561H91.7805V161.22Z" fill="black"/>
<path d="M97.1219 161.22H91.7805V166.561H97.1219V161.22Z" fill="black"/>
<path d="M118.488 161.22H113.146V166.561H118.488V161.22Z" fill="black"/>
<path d="M129.171 161.22H123.829V166.561H129.171V161.22Z" fill="black"/>
<path d="M139.854 161.22H134.512V166.561H139.854V161.22Z" fill="black"/>
<path d="M150.537 161.22H145.195V166.561H150.537V161.22Z" fill="black"/>
<path d="M155.878 161.22H150.537V166.561H155.878V161.22Z" fill="black"/>
<path d="M161.22 161.22H155.878V166.561H161.22V161.22Z" fill="black"/>
<path d="M166.561 161.22H161.22V166.561H166.561V161.22Z" fill="black"/>
<path d="M171.902 161.22H166.561V166.561H171.902V161.22Z" fill="black"/>
<path d="M177.244 161.22H171.902V166.561H177.244V161.22Z" fill="black"/>
<path d="M182.585 161.22H177.244V166.561H182.585V161.22Z" fill="black"/>
<path d="M187.927 161.22H182.585V166.561H187.927V161.22Z" fill="black"/>
<path d="M193.268 161.22H187.927V166.561H193.268V161.22Z" fill="black"/>
<path d="M203.951 161.22H198.61V166.561H203.951V161.22Z" fill="black"/>
<path d="M209.293 161.22H203.951V166.561H209.293V161.22Z" fill="black"/>
<path d="M219.976 161.22H214.634V166.561H219.976V161.22Z" fill="black"/>
<path d="M225.317 161.22H219.976V166.561H225.317V161.22Z" fill="black"/>
<path d="M33.0244 166.561H27.6829V171.902H33.0244V166.561Z" fill="black"/>
<path d="M38.3659 166.561H33.0244V171.902H38.3659L38.3659 166.561Z" fill="black"/>
<path d="M43.7073 166.561H38.3659L38.3659 171.902H43.7073V166.561Z" fill="black"/>
<path d="M54.3902 166.561H49.0488V171.902H54.3902V166.561Z" fill="black"/>
<path d="M65.0732 166.561H59.7317V171.902H65.0732V166.561Z" fill="black"/>
<path d="M86.439 166.561H81.0976V171.902H86.439V166.561Z" fill="black"/>
<path d="M91.7805 166.561H86.439V171.902H91.7805V166.561Z" fill="black"/>
<path d="M102.463 166.561H97.1219V171.902H102.463V166.561Z" fill="black"/>
<path d="M107.805 166.561H102.463V171.902H107.805V166.561Z" fill="black"/>
<path d="M123.829 166.561H118.488V171.902H123.829V166.561Z" fill="black"/>
<path d="M145.195 166.561H139.854V171.902H145.195V166.561Z" fill="black"/>
<path d="M150.537 166.561H145.195V171.902H150.537V166.561Z" fill="black"/>
<path d="M166.561 166.561H161.22V171.902H166.561V166.561Z" fill="black"/>
<path d="M182.585 166.561H177.244V171.902H182.585V166.561Z" fill="black"/>
<path d="M187.927 166.561H182.585V171.902H187.927V166.561Z" fill="black"/>
<path d="M219.976 166.561H214.634V171.902H219.976V166.561Z" fill="black"/>
<path d="M230.659 166.561H225.317V171.902H230.659V166.561Z" fill="black"/>
<path d="M236 166.561H230.659V171.902H236V166.561Z" fill="black"/>
<path d="M22.3415 171.902H17V177.244H22.3415V171.902Z" fill="black"/>
<path d="M27.6829 171.902H22.3415V177.244H27.6829V171.902Z" fill="black"/>
<path d="M38.3659 171.902H33.0244V177.244H38.3659V171.902Z" fill="black"/>
<path d="M43.7073 171.902H38.3659V177.244H43.7073V171.902Z" fill="black"/>
<path d="M49.0488 171.902H43.7073V177.244H49.0488V171.902Z" fill="black"/>
<path d="M65.0732 171.902H59.7317V177.244H65.0732V171.902Z" fill="black"/>
<path d="M81.0976 171.902H75.7561V177.244H81.0976V171.902Z" fill="black"/>
<path d="M86.439 171.902H81.0976V177.244H86.439V171.902Z" fill="black"/>
<path d="M97.1219 171.902H91.7805V177.244H97.1219V171.902Z" fill="black"/>
<path d="M107.805 171.902H102.463V177.244H107.805V171.902Z" fill="black"/>
<path d="M113.146 171.902H107.805V177.244H113.146V171.902Z" fill="black"/>
<path d="M129.171 171.902H123.829V177.244H129.171V171.902Z" fill="black"/>
<path d="M134.512 171.902H129.171V177.244H134.512V171.902Z" fill="black"/>
<path d="M145.195 171.902H139.854V177.244H145.195V171.902Z" fill="black"/>
<path d="M171.902 171.902H166.561V177.244H171.902V171.902Z" fill="black"/>
<path d="M193.268 171.902H187.927V177.244H193.268V171.902Z" fill="black"/>
<path d="M198.61 171.902H193.268V177.244H198.61V171.902Z" fill="black"/>
<path d="M209.293 171.902H203.951V177.244H209.293V171.902Z" fill="black"/>
<path d="M225.317 171.902H219.976V177.244H225.317V171.902Z" fill="black"/>
<path d="M43.7073 177.244H38.3659L38.3659 182.585H43.7073V177.244Z" fill="black"/>
<path d="M54.3902 177.244H49.0488V182.585H54.3902V177.244Z" fill="black"/>
<path d="M59.7317 177.244H54.3902V182.585H59.7317V177.244Z" fill="black"/>
<path d="M70.4146 177.244H65.0732V182.585H70.4146V177.244Z" fill="black"/>
<path d="M81.0976 177.244H75.7561V182.585H81.0976V177.244Z" fill="black"/>
<path d="M91.7805 177.244H86.439V182.585H91.7805V177.244Z" fill="black"/>
<path d="M97.1219 177.244H91.7805V182.585H97.1219V177.244Z" fill="black"/>
<path d="M113.146 177.244H107.805V182.585H113.146V177.244Z" fill="black"/>
<path d="M129.171 177.244H123.829V182.585H129.171V177.244Z" fill="black"/>
<path d="M134.512 177.244H129.171V182.585H134.512V177.244Z" fill="black"/>
<path d="M155.878 177.244H150.537V182.585H155.878V177.244Z" fill="black"/>
<path d="M161.22 177.244H155.878V182.585H161.22V177.244Z" fill="black"/>
<path d="M177.244 177.244H171.902V182.585H177.244V177.244Z" fill="black"/>
<path d="M182.585 177.244H177.244V182.585H182.585V177.244Z" fill="black"/>
<path d="M187.927 177.244H182.585V182.585H187.927V177.244Z" fill="black"/>
<path d="M198.61 177.244H193.268V182.585H198.61V177.244Z" fill="black"/>
<path d="M225.317 177.244H219.976V182.585H225.317V177.244Z" fill="black"/>
<path d="M27.6829 182.585H22.3415V187.927H27.6829V182.585Z" fill="black"/>
<path d="M59.7317 182.585H54.3902V187.927H59.7317V182.585Z" fill="black"/>
<path d="M65.0732 182.585H59.7317V187.927H65.0732V182.585Z" fill="black"/>
<path d="M70.4146 182.585H65.0732V187.927H70.4146V182.585Z" fill="black"/>
<path d="M81.0976 182.585H75.7561V187.927H81.0976V182.585Z" fill="black"/>
<path d="M91.7805 182.585H86.439V187.927H91.7805V182.585Z" fill="black"/>
<path d="M97.1219 182.585H91.7805V187.927H97.1219V182.585Z" fill="black"/>
<path d="M107.805 182.585H102.463V187.927H107.805V182.585Z" fill="black"/>
<path d="M118.488 182.585H113.146V187.927H118.488V182.585Z" fill="black"/>
<path d="M123.829 182.585H118.488V187.927H123.829V182.585Z" fill="black"/>
<path d="M129.171 182.585H123.829V187.927H129.171V182.585Z" fill="black"/>
<path d="M134.512 182.585H129.171V187.927H134.512V182.585Z" fill="black"/>
<path d="M145.195 182.585H139.854V187.927H145.195V182.585Z" fill="black"/>
<path d="M161.22 182.585H155.878V187.927H161.22V182.585Z" fill="black"/>
<path d="M166.561 182.585H161.22V187.927H166.561V182.585Z" fill="black"/>
<path d="M171.902 182.585H166.561V187.927H171.902V182.585Z" fill="black"/>
<path d="M177.244 182.585H171.902V187.927H177.244V182.585Z" fill="black"/>
<path d="M182.585 182.585H177.244V187.927H182.585V182.585Z" fill="black"/>
<path d="M193.268 182.585H187.927V187.927H193.268V182.585Z" fill="black"/>
<path d="M198.61 182.585H193.268V187.927H198.61V182.585Z" fill="black"/>
<path d="M209.293 182.585H203.951V187.927H209.293V182.585Z" fill="black"/>
<path d="M214.634 182.585H209.293V187.927H214.634V182.585Z" fill="black"/>
<path d="M219.976 182.585H214.634V187.927H219.976V182.585Z" fill="black"/>
<path d="M33.0244 187.927H27.6829V193.268H33.0244V187.927Z" fill="black"/>
<path d="M38.3659 187.927H33.0244V193.268H38.3659V187.927Z" fill="black"/>
<path d="M49.0488 187.927H43.7073V193.268H49.0488V187.927Z" fill="black"/>
<path d="M54.3902 187.927H49.0488V193.268H54.3902V187.927Z" fill="black"/>
<path d="M59.7317 187.927H54.3902V193.268H59.7317V187.927Z" fill="black"/>
<path d="M81.0976 187.927H75.7561V193.268H81.0976V187.927Z" fill="black"/>
<path d="M107.805 187.927H102.463V193.268H107.805V187.927Z" fill="black"/>
<path d="M113.146 187.927H107.805V193.268H113.146V187.927Z" fill="black"/>
<path d="M118.488 187.927H113.146V193.268H118.488V187.927Z" fill="black"/>
<path d="M129.171 187.927H123.829V193.268H129.171V187.927Z" fill="black"/>
<path d="M134.512 187.927H129.171V193.268H134.512V187.927Z" fill="black"/>
<path d="M145.195 187.927H139.854V193.268H145.195V187.927Z" fill="black"/>
<path d="M150.537 187.927H145.195V193.268H150.537V187.927Z" fill="black"/>
<path d="M155.878 187.927H150.537V193.268H155.878V187.927Z" fill="black"/>
<path d="M161.22 187.927H155.878V193.268H161.22V187.927Z" fill="black"/>
<path d="M171.902 187.927H166.561V193.268H171.902V187.927Z" fill="black"/>
<path d="M177.244 187.927H171.902V193.268H177.244V187.927Z" fill="black"/>
<path d="M193.268 187.927H187.927V193.268H193.268V187.927Z" fill="black"/>
<path d="M198.61 187.927H193.268V193.268H198.61V187.927Z" fill="black"/>
<path d="M203.951 187.927H198.61V193.268H203.951V187.927Z" fill="black"/>
<path d="M209.293 187.927H203.951V193.268H209.293V187.927Z" fill="black"/>
<path d="M214.634 187.927H209.293V193.268H214.634V187.927Z" fill="black"/>
<path d="M225.317 187.927H219.976V193.268H225.317V187.927Z" fill="black"/>
<path d="M236 187.927H230.659V193.268H236V187.927Z" fill="black"/>
<path d="M65.0732 193.268H59.7317V198.61H65.0732V193.268Z" fill="black"/>
<path d="M91.7805 193.268H86.439V198.61H91.7805V193.268Z" fill="black"/>
<path d="M97.1219 193.268H91.7805V198.61H97.1219V193.268Z" fill="black"/>
<path d="M102.463 193.268H97.1219V198.61H102.463V193.268Z" fill="black"/>
<path d="M107.805 193.268H102.463V198.61H107.805V193.268Z" fill="black"/>
<path d="M113.146 193.268H107.805V198.61H113.146V193.268Z" fill="black"/>
<path d="M123.829 193.268H118.488V198.61H123.829V193.268Z" fill="black"/>
<path d="M145.195 193.268H139.854V198.61H145.195V193.268Z" fill="black"/>
<path d="M161.22 193.268H155.878V198.61H161.22V193.268Z" fill="black"/>
<path d="M166.561 193.268H161.22V198.61H166.561V193.268Z" fill="black"/>
<path d="M182.585 193.268H177.244V198.61H182.585V193.268Z" fill="black"/>
<path d="M193.268 193.268H187.927V198.61H193.268V193.268Z" fill="black"/>
<path d="M214.634 193.268H209.293V198.61H214.634V193.268Z" fill="black"/>
<path d="M225.317 193.268H219.976V198.61H225.317V193.268Z" fill="black"/>
<path d="M230.659 193.268H225.317V198.61H230.659V193.268Z" fill="black"/>
<path d="M22.3415 198.61H17V203.951H22.3415V198.61Z" fill="black"/>
<path d="M27.6829 198.61H22.3415V203.951H27.6829V198.61Z" fill="black"/>
<path d="M33.0244 198.61H27.6829V203.951H33.0244V198.61Z" fill="black"/>
<path d="M38.3659 198.61H33.0244V203.951H38.3659V198.61Z" fill="black"/>
<path d="M43.7073 198.61H38.3659V203.951H43.7073V198.61Z" fill="black"/>
<path d="M49.0488 198.61H43.7073V203.951H49.0488V198.61Z" fill="black"/>
<path d="M54.3902 198.61H49.0488V203.951H54.3902V198.61Z" fill="black"/>
<path d="M75.7561 198.61H70.4146V203.951H75.7561V198.61Z" fill="black"/>
<path d="M86.439 198.61H81.0976V203.951H86.439V198.61Z" fill="black"/>
<path d="M97.1219 198.61H91.7805V203.951H97.1219V198.61Z" fill="black"/>
<path d="M123.829 198.61H118.488V203.951H123.829V198.61Z" fill="black"/>
<path d="M129.171 198.61H123.829V203.951H129.171V198.61Z" fill="black"/>
<path d="M139.854 198.61H134.512V203.951H139.854V198.61Z" fill="black"/>
<path d="M145.195 198.61H139.854V203.951H145.195V198.61Z" fill="black"/>
<path d="M150.537 198.61H145.195V203.951H150.537V198.61Z" fill="black"/>
<path d="M166.561 198.61H161.22V203.951H166.561V198.61Z" fill="black"/>
<path d="M187.927 198.61H182.585V203.951H187.927V198.61Z" fill="black"/>
<path d="M193.268 198.61H187.927V203.951H193.268V198.61Z" fill="black"/>
<path d="M203.951 198.61H198.61V203.951H203.951V198.61Z" fill="black"/>
<path d="M214.634 198.61H209.293V203.951H214.634V198.61Z" fill="black"/>
<path d="M230.659 198.61H225.317V203.951H230.659V198.61Z" fill="black"/>
<path d="M22.3415 203.951H17V209.293H22.3415V203.951Z" fill="black"/>
<path d="M54.3902 203.951H49.0488V209.293H54.3902V203.951Z" fill="black"/>
<path d="M75.7561 203.951H70.4146V209.293H75.7561V203.951Z" fill="black"/>
<path d="M86.439 203.951H81.0976V209.293H86.439V203.951Z" fill="black"/>
<path d="M102.463 203.951H97.1219V209.293H102.463V203.951Z" fill="black"/>
<path d="M118.488 203.951H113.146V209.293H118.488V203.951Z" fill="black"/>
<path d="M134.512 203.951H129.171V209.293H134.512V203.951Z" fill="black"/>
<path d="M145.195 203.951H139.854V209.293H145.195V203.951Z" fill="black"/>
<path d="M150.537 203.951H145.195V209.293H150.537V203.951Z" fill="black"/>
<path d="M155.878 203.951H150.537V209.293H155.878V203.951Z" fill="black"/>
<path d="M161.22 203.951H155.878V209.293H161.22V203.951Z" fill="black"/>
<path d="M171.902 203.951H166.561V209.293H171.902V203.951Z" fill="black"/>
<path d="M187.927 203.951H182.585V209.293H187.927V203.951Z" fill="black"/>
<path d="M193.268 203.951H187.927V209.293H193.268V203.951Z" fill="black"/>
<path d="M214.634 203.951H209.293V209.293H214.634V203.951Z" fill="black"/>
<path d="M219.976 203.951H214.634V209.293H219.976V203.951Z" fill="black"/>
<path d="M225.317 203.951H219.976V209.293H225.317V203.951Z" fill="black"/>
<path d="M22.3415 209.293H17V214.634H22.3415V209.293Z" fill="black"/>
<path d="M33.0244 209.293H27.6829V214.634H33.0244V209.293Z" fill="black"/>
<path d="M38.3659 209.293H33.0244V214.634H38.3659V209.293Z" fill="black"/>
<path d="M43.7073 209.293H38.3659V214.634H43.7073V209.293Z" fill="black"/>
<path d="M54.3902 209.293H49.0488V214.634H54.3902V209.293Z" fill="black"/>
<path d="M65.0732 209.293H59.7317V214.634H65.0732V209.293Z" fill="black"/>
<path d="M70.4146 209.293H65.0732V214.634H70.4146V209.293Z" fill="black"/>
<path d="M75.7561 209.293H70.4146V214.634H75.7561V209.293Z" fill="black"/>
<path d="M91.7805 209.293H86.439V214.634H91.7805V209.293Z" fill="black"/>
<path d="M97.1219 209.293H91.7805V214.634H97.1219V209.293Z" fill="black"/>
<path d="M102.463 209.293H97.1219V214.634H102.463V209.293Z" fill="black"/>
<path d="M113.146 209.293H107.805V214.634H113.146V209.293Z" fill="black"/>
<path d="M118.488 209.293H113.146V214.634H118.488V209.293Z" fill="black"/>
<path d="M123.829 209.293H118.488V214.634H123.829V209.293Z" fill="black"/>
<path d="M129.171 209.293H123.829V214.634H129.171V209.293Z" fill="black"/>
<path d="M134.512 209.293H129.171V214.634H134.512V209.293Z" fill="black"/>
<path d="M139.854 209.293H134.512V214.634H139.854V209.293Z" fill="black"/>
<path d="M155.878 209.293H150.537V214.634H155.878V209.293Z" fill="black"/>
<path d="M161.22 209.293H155.878V214.634H161.22V209.293Z" fill="black"/>
<path d="M166.561 209.293H161.22V214.634H166.561V209.293Z" fill="black"/>
<path d="M177.244 209.293H171.902V214.634H177.244V209.293Z" fill="black"/>
<path d="M193.268 209.293H187.927V214.634H193.268V209.293Z" fill="black"/>
<path d="M198.61 209.293H193.268V214.634H198.61V209.293Z" fill="black"/>
<path d="M203.951 209.293H198.61V214.634H203.951V209.293Z" fill="black"/>
<path d="M209.293 209.293H203.951V214.634H209.293V209.293Z" fill="black"/>
<path d="M214.634 209.293H209.293V214.634H214.634V209.293Z" fill="black"/>
<path d="M225.317 209.293H219.976V214.634H225.317V209.293Z" fill="black"/>
<path d="M230.659 209.293H225.317V214.634H230.659V209.293Z" fill="black"/>
<path d="M236 209.293H230.659V214.634H236V209.293Z" fill="black"/>
<path d="M22.3415 214.634H17V219.976H22.3415V214.634Z" fill="black"/>
<path d="M33.0244 214.634H27.6829V219.976H33.0244V214.634Z" fill="black"/>
<path d="M38.3659 214.634H33.0244V219.976H38.3659V214.634Z" fill="black"/>
<path d="M43.7073 214.634H38.3659V219.976H43.7073V214.634Z" fill="black"/>
<path d="M54.3902 214.634H49.0488V219.976H54.3902V214.634Z" fill="black"/>
<path d="M81.0976 214.634H75.7561V219.976H81.0976V214.634Z" fill="black"/>
<path d="M102.463 214.634H97.1219V219.976H102.463V214.634Z" fill="black"/>
<path d="M107.805 214.634H102.463V219.976H107.805V214.634Z" fill="black"/>
<path d="M129.171 214.634H123.829V219.976H129.171V214.634Z" fill="black"/>
<path d="M139.854 214.634H134.512V219.976H139.854V214.634Z" fill="black"/>
<path d="M145.195 214.634H139.854V219.976H145.195V214.634Z" fill="black"/>
<path d="M150.537 214.634H145.195V219.976H150.537V214.634Z" fill="black"/>
<path d="M161.22 214.634H155.878V219.976H161.22V214.634Z" fill="black"/>
<path d="M166.561 214.634H161.22V219.976H166.561V214.634Z" fill="black"/>
<path d="M171.902 214.634H166.561V219.976H171.902V214.634Z" fill="black"/>
<path d="M187.927 214.634H182.585V219.976H187.927V214.634Z" fill="black"/>
<path d="M193.268 214.634H187.927V219.976H193.268V214.634Z" fill="black"/>
<path d="M203.951 214.634H198.61V219.976H203.951V214.634Z" fill="black"/>
<path d="M209.293 214.634H203.951V219.976H209.293V214.634Z" fill="black"/>
<path d="M214.634 214.634H209.293V219.976H214.634V214.634Z" fill="black"/>
<path d="M230.659 214.634H225.317V219.976H230.659V214.634Z" fill="black"/>
<path d="M22.3415 219.976H17V225.317H22.3415V219.976Z" fill="black"/>
<path d="M33.0244 219.976H27.6829V225.317H33.0244V219.976Z" fill="black"/>
<path d="M38.3659 219.976H33.0244V225.317H38.3659V219.976Z" fill="black"/>
<path d="M43.7073 219.976H38.3659V225.317H43.7073V219.976Z" fill="black"/>
<path d="M54.3902 219.976H49.0488V225.317H54.3902V219.976Z" fill="black"/>
<path d="M65.0732 219.976H59.7317V225.317H65.0732V219.976Z" fill="black"/>
<path d="M75.7561 219.976H70.4146V225.317H75.7561V219.976Z" fill="black"/>
<path d="M102.463 219.976H97.1219V225.317H102.463V219.976Z" fill="black"/>
<path d="M113.146 219.976H107.805V225.317H113.146V219.976Z" fill="black"/>
<path d="M123.829 219.976H118.488V225.317H123.829V219.976Z" fill="black"/>
<path d="M129.171 219.976H123.829V225.317H129.171V219.976Z" fill="black"/>
<path d="M150.537 219.976H145.195V225.317H150.537V219.976Z" fill="black"/>
<path d="M155.878 219.976H150.537V225.317H155.878V219.976Z" fill="black"/>
<path d="M166.561 219.976H161.22V225.317H166.561V219.976Z" fill="black"/>
<path d="M187.927 219.976H182.585V225.317H187.927V219.976Z" fill="black"/>
<path d="M193.268 219.976H187.927V225.317H193.268V219.976Z" fill="black"/>
<path d="M198.61 219.976H193.268V225.317H198.61V219.976Z" fill="black"/>
<path d="M230.659 219.976H225.317V225.317H230.659V219.976Z" fill="black"/>
<path d="M236 219.976H230.659V225.317H236V219.976Z" fill="black"/>
<path d="M22.3415 225.317H17V230.659H22.3415V225.317Z" fill="black"/>
<path d="M54.3902 225.317H49.0488V230.659H54.3902V225.317Z" fill="black"/>
<path d="M65.0732 225.317H59.7317V230.659H65.0732V225.317Z" fill="black"/>
<path d="M86.439 225.317H81.0976V230.659H86.439V225.317Z" fill="black"/>
<path d="M102.463 225.317H97.1219V230.659H102.463V225.317Z" fill="black"/>
<path d="M129.171 225.317H123.829V230.659H129.171V225.317Z" fill="black"/>
<path d="M145.195 225.317H139.854V230.659H145.195V225.317Z" fill="black"/>
<path d="M150.537 225.317H145.195V230.659H150.537V225.317Z" fill="black"/>
<path d="M155.878 225.317H150.537V230.659H155.878V225.317Z" fill="black"/>
<path d="M166.561 225.317H161.22V230.659H166.561V225.317Z" fill="black"/>
<path d="M171.902 225.317H166.561V230.659H171.902V225.317Z" fill="black"/>
<path d="M177.244 225.317H171.902V230.659H177.244V225.317Z" fill="black"/>
<path d="M187.927 225.317H182.585V230.659H187.927V225.317Z" fill="black"/>
<path d="M193.268 225.317H187.927V230.659H193.268V225.317Z" fill="black"/>
<path d="M198.61 225.317H193.268V230.659H198.61V225.317Z" fill="black"/>
<path d="M209.293 225.317H203.951V230.659H209.293V225.317Z" fill="black"/>
<path d="M22.3415 230.659H17V236H22.3415V230.659Z" fill="black"/>
<path d="M27.6829 230.659H22.3415V236H27.6829V230.659Z" fill="black"/>
<path d="M33.0244 230.659H27.6829V236H33.0244V230.659Z" fill="black"/>
<path d="M38.3659 230.659H33.0244V236H38.3659V230.659Z" fill="black"/>
<path d="M43.7073 230.659H38.3659V236H43.7073V230.659Z" fill="black"/>
<path d="M49.0488 230.659H43.7073V236H49.0488V230.659Z" fill="black"/>
<path d="M54.3902 230.659H49.0488V236H54.3902V230.659Z" fill="black"/>
<path d="M65.0732 230.659H59.7317V236H65.0732V230.659Z" fill="black"/>
<path d="M70.4146 230.659H65.0732V236H70.4146V230.659Z" fill="black"/>
<path d="M81.0976 230.659H75.7561V236H81.0976V230.659Z" fill="black"/>
<path d="M86.439 230.659H81.0976V236H86.439V230.659Z" fill="black"/>
<path d="M97.1219 230.659H91.7805V236H97.1219V230.659Z" fill="black"/>
<path d="M118.488 230.659H113.146V236H118.488V230.659Z" fill="black"/>
<path d="M123.829 230.659H118.488V236H123.829V230.659Z" fill="black"/>
<path d="M129.171 230.659H123.829V236H129.171V230.659Z" fill="black"/>
<path d="M150.537 230.659H145.195V236H150.537V230.659Z" fill="black"/>
<path d="M155.878 230.659H150.537V236H155.878V230.659Z" fill="black"/>
<path d="M161.22 230.659H155.878V236H161.22V230.659Z" fill="black"/>
<path d="M166.561 230.659H161.22V236H166.561V230.659Z" fill="black"/>
<path d="M171.902 230.659H166.561V236H171.902V230.659Z" fill="black"/>
<path d="M182.585 230.659H177.244V236H182.585V230.659Z" fill="black"/>
<path d="M187.927 230.659H182.585V236H187.927V230.659Z" fill="black"/>
<path d="M219.976 230.659H214.634V236H219.976V230.659Z" fill="black"/>
<path d="M225.317 230.659H219.976V236H225.317V230.659Z" fill="black"/>
<path d="M230.659 230.659H225.317V236H230.659V230.659Z" fill="black"/>
</g>
</g>
</svg>
