<svg width="45" height="45" viewBox="0 0 45 45" fill="none" xmlns="http://www.w3.org/2000/svg">
<path d="M29.9234 18.308L24.7294 23.5L29.9234 28.692C30.0699 28.8385 30.1861 29.0125 30.2654 29.2039C30.3447 29.3953 30.3855 29.6005 30.3855 29.8077C30.3855 30.0149 30.3447 30.2201 30.2654 30.4115C30.1861 30.6029 30.0699 30.7768 29.9234 30.9234C29.7769 31.0699 29.6029 31.1861 29.4115 31.2654C29.2201 31.3447 29.0149 31.3855 28.8077 31.3855C28.6005 31.3855 28.3953 31.3447 28.2039 31.2654C28.0125 31.1861 27.8385 31.0699 27.692 30.9234L22.5 25.7294L17.308 30.9234C17.1615 31.0699 16.9875 31.1861 16.7961 31.2654C16.6047 31.3447 16.3995 31.3855 16.1923 31.3855C15.9851 31.3855 15.7799 31.3447 15.5885 31.2654C15.3971 31.1861 15.2232 31.0699 15.0766 30.9234C14.9301 30.7768 14.8139 30.6029 14.7346 30.4115C14.6553 30.2201 14.6145 30.0149 14.6145 29.8077C14.6145 29.6005 14.6553 29.3953 14.7346 29.2039C14.8139 29.0125 14.9301 28.8385 15.0766 28.692L20.2706 23.5L15.0766 18.308C14.7807 18.0121 14.6145 17.6108 14.6145 17.1923C14.6145 16.7738 14.7807 16.3725 15.0766 16.0766C15.3725 15.7807 15.7739 15.6145 16.1923 15.6145C16.6108 15.6145 17.0121 15.7807 17.308 16.0766L22.5 21.2706L27.692 16.0766C27.8385 15.9301 28.0125 15.8139 28.2039 15.7346C28.3953 15.6553 28.6005 15.6145 28.8077 15.6145C29.0149 15.6145 29.2201 15.6553 29.4115 15.7346C29.6029 15.8139 29.7769 15.9301 29.9234 16.0766C30.0699 16.2231 30.1861 16.3971 30.2654 16.5885C30.3447 16.7799 30.3855 16.9851 30.3855 17.1923C30.3855 17.3995 30.3447 17.6047 30.2654 17.7961C30.1861 17.9875 30.0699 18.1615 29.9234 18.308ZM43 23.5C43 27.5545 41.7977 31.518 39.5451 34.8892C37.2926 38.2604 34.0909 40.8879 30.345 42.4395C26.5991 43.9911 22.4773 44.3971 18.5007 43.6061C14.524 42.8151 10.8713 40.8627 8.00432 37.9957C5.13734 35.1287 3.18491 31.476 2.39391 27.4993C1.60291 23.5227 2.00888 19.4009 3.56048 15.655C5.11207 11.9091 7.73961 8.70744 11.1108 6.45487C14.482 4.2023 18.4455 3 22.5 3C27.9352 3.00574 33.1461 5.1674 36.9894 9.01065C40.8326 12.8539 42.9943 18.0648 43 23.5ZM39.8462 23.5C39.8462 20.0693 38.8288 16.7156 36.9228 13.863C35.0168 11.0104 32.3077 8.78713 29.1381 7.47424C25.9685 6.16135 22.4808 5.81784 19.1159 6.48715C15.7511 7.15645 12.6603 8.80851 10.2344 11.2344C7.80852 13.6603 6.15646 16.7511 5.48716 20.1159C4.81785 23.4808 5.16136 26.9685 6.47425 30.1381C7.78714 33.3077 10.0104 36.0168 12.863 37.9228C15.7156 39.8288 19.0693 40.8461 22.5 40.8461C27.0989 40.8409 31.5079 39.0117 34.7598 35.7598C38.0117 32.5079 39.8409 28.0989 39.8462 23.5Z" fill="white"/>
</svg>
