<svg width="358" height="27" viewBox="0 0 358 27" fill="none" xmlns="http://www.w3.org/2000/svg">
<path d="M214.338 12.4284C213.081 11.7916 213.302 11.1582 213.009 10.5214C212.716 11.1582 212.937 11.7916 211.68 12.4284C211.493 12.7442 211.676 13.0634 211.982 13.381C211.676 13.6985 211.493 14.0177 211.68 14.3353C212.937 14.9704 212.716 15.6055 213.009 16.2405C213.302 15.6055 213.081 14.9704 214.338 14.3353C214.525 14.0177 214.34 13.6985 214.034 13.381C214.34 13.0634 214.525 12.7442 214.338 12.4284ZM213.009 15.2114C212.923 14.9205 212.5 14.3087 212.15 14.0177C212.169 13.918 212.247 13.8182 212.34 13.7185C212.572 13.9246 212.815 14.1291 213.009 14.3353C213.199 14.1291 213.446 13.9246 213.678 13.7185C213.772 13.8182 213.849 13.918 213.868 14.0177C213.517 14.3087 213.095 14.9205 213.009 15.2114ZM212.719 13.381C212.82 13.2995 212.92 13.2214 213.009 13.1399C213.096 13.2214 213.198 13.2995 213.297 13.381C213.198 13.4625 213.096 13.5406 213.009 13.6221C212.92 13.5406 212.82 13.4625 212.719 13.381ZM213.678 13.0435C213.446 12.8373 213.203 12.6345 213.009 12.4284C212.817 12.6345 212.572 12.8373 212.34 13.0435C212.244 12.9437 212.169 12.844 212.15 12.7442C212.5 12.4533 212.923 11.8432 213.009 11.5505C213.095 11.8432 213.517 12.4533 213.868 12.7442C213.849 12.844 213.77 12.9437 213.678 13.0435Z" fill="#F2C476"/>
<path d="M224.84 11.9861C224.633 11.8498 224.427 11.7168 224.219 11.5921C223.974 11.4474 223.664 11.4508 223.424 11.6037C222.448 12.2222 221.472 12.8539 220.498 13.361C221.491 13.8764 222.417 14.4782 223.424 15.1167C223.666 15.2696 223.976 15.2746 224.219 15.1283C224.427 15.0053 224.633 14.8706 224.84 14.7376C224.067 14.2471 223.29 13.7634 222.518 13.3627C223.29 12.9603 224.067 12.4766 224.84 11.9861Z" fill="#F2C476"/>
<path d="M210.889 12.1574C210.894 12.1541 210.896 12.1508 210.901 12.1475C210.601 11.8449 210.376 11.539 210.314 11.2364C211.417 10.3519 212.739 8.50818 213.009 7.62372C213.278 8.50818 214.602 10.3519 215.703 11.2364C215.641 11.539 215.416 11.8449 215.116 12.1475C215.121 12.1508 215.123 12.1541 215.128 12.1574C215.818 12.7443 216.946 12.5531 217.279 11.7219C217.471 11.2414 217.471 10.7576 217.178 10.2755C213.23 8.35357 213.924 6.43334 213.009 4.5098C212.091 6.43334 212.786 8.35357 208.838 10.2755C208.545 10.7576 208.545 11.2414 208.738 11.7219C209.069 12.5531 210.199 12.7476 210.889 12.1574Z" fill="#F2C476"/>
<path d="M215.128 14.6045C215.123 14.6079 215.121 14.6128 215.116 14.6145C215.416 14.9171 215.641 15.223 215.703 15.5256C214.6 16.41 213.278 18.2538 213.009 19.1382C212.739 18.2538 211.414 16.41 210.314 15.5256C210.376 15.223 210.601 14.9171 210.901 14.6145C210.896 14.6128 210.894 14.6079 210.889 14.6045C210.199 14.0177 209.069 14.2088 208.738 15.0401C208.545 15.5206 208.545 16.0044 208.838 16.4865C212.786 18.4084 212.091 20.3303 213.009 22.2522C213.924 20.3303 213.23 18.4084 217.178 16.4865C217.471 16.0044 217.471 15.5206 217.279 15.0401C216.946 14.2072 215.818 14.0143 215.128 14.6045Z" fill="#F2C476"/>
<path d="M221.543 11.012C221.538 11.0071 221.533 11.0054 221.528 11.0004C221.032 10.5765 220.278 10.5981 219.767 11.0054C218.76 11.8101 217.004 13.1567 216.287 13.3629C217.006 13.569 218.76 14.9157 219.767 15.7203C220.278 16.1277 221.029 16.1509 221.528 15.7253C221.533 15.7203 221.538 15.7187 221.543 15.7137C221.513 15.5424 219.834 14.1326 219.834 13.3629C219.834 12.5898 221.513 11.1833 221.543 11.012Z" fill="#F2C476"/>
<path d="M231.732 15.4427C231.413 15.7419 231.093 15.9614 230.775 16.0213C229.844 14.934 227.91 13.6289 226.98 13.3629C227.91 13.0969 229.847 11.7901 230.775 10.7012C231.094 10.7627 231.415 10.9838 231.732 11.2797C231.734 11.2764 231.739 11.2731 231.742 11.2681C232.396 10.5499 232.099 9.3944 231.158 9.10014C230.695 8.95716 230.228 8.97877 229.765 9.24478C227.747 13.1401 225.726 12.4551 223.708 13.3612C225.726 14.2673 227.747 13.5807 229.765 17.4776C230.228 17.7436 230.695 17.7636 231.158 17.6206C232.099 17.3263 232.396 16.1742 231.742 15.4527L231.732 15.4427Z" fill="#F2C476"/>
<mask id="mask0_631_1255" style="mask-type:luminance" maskUnits="userSpaceOnUse" x="175" y="0" width="8" height="6">
<path d="M175.411 0.355118H182.436V5.27787H175.411V0.355118Z" fill="white"/>
</mask>
<g mask="url(#mask0_631_1255)">
<path d="M176.418 4.10544C176.666 4.24842 176.948 4.3914 177.241 4.53271C177.654 4.73388 178.086 4.93837 178.465 5.13953C178.676 5.25092 178.925 5.25092 179.134 5.13953C179.513 4.93837 179.945 4.73388 180.359 4.53271C180.65 4.38973 180.933 4.24509 181.182 4.10544C181.888 3.69812 182.314 3.2908 181.883 2.88348C178.964 2.06884 179.479 1.2542 178.8 0.43956C178.122 1.2542 178.635 2.06884 175.72 2.88348C175.287 3.2908 175.715 3.69812 176.418 4.10544Z" fill="#F2C476"/>
</g>
<mask id="mask1_631_1255" style="mask-type:luminance" maskUnits="userSpaceOnUse" x="175" y="21" width="8" height="6">
<path d="M175.411 21.4508H182.436V26.5298H175.411V21.4508Z" fill="white"/>
</mask>
<g mask="url(#mask1_631_1255)">
<path d="M181.18 22.618C180.932 22.475 180.651 22.3303 180.357 22.1907C179.944 21.9879 179.512 21.785 179.133 21.5839C178.922 21.4725 178.673 21.4725 178.464 21.5839C178.085 21.785 177.653 21.9879 177.24 22.1907C176.948 22.3337 176.665 22.4766 176.416 22.618C175.71 23.0253 175.284 23.4326 175.715 23.8399C178.63 24.6546 178.118 25.4692 178.795 26.2838C179.474 25.4692 178.96 24.6546 181.877 23.8399C182.314 23.4326 181.887 23.0253 181.18 22.618Z" fill="#F2C476"/>
</g>
<path d="M190.997 14.3919C191.339 14.5482 191.79 14.5548 192.138 14.4085C193.026 14.0345 193.911 13.672 194.799 13.3628C193.914 13.0519 193.026 12.6911 192.141 12.3171C191.793 12.1691 191.342 12.1758 190.999 12.3337C190.838 12.4069 190.675 12.4833 190.514 12.5581C191.112 12.8375 191.709 13.1168 192.307 13.3628C191.709 13.6089 191.112 13.8882 190.514 14.1675C190.673 14.244 190.834 14.3188 190.997 14.3919Z" fill="#F2C476"/>
<path d="M166.636 12.3305C166.293 12.1759 165.842 12.1693 165.494 12.3156C164.609 12.6896 163.721 13.0504 162.836 13.3613C163.724 13.6705 164.609 14.0313 165.498 14.407C165.846 14.555 166.297 14.5484 166.638 14.3904C166.801 14.3156 166.962 14.2424 167.125 14.166C166.525 13.8867 165.93 13.6057 165.329 13.3613C165.93 13.1153 166.525 12.8359 167.125 12.555C166.96 12.4818 166.797 12.407 166.636 12.3305Z" fill="#F2C476"/>
<path d="M183.46 17.2614C183.779 17.0535 184.098 16.8424 184.417 16.6329C186.135 15.5007 187.909 14.3303 189.665 13.3627C187.909 12.3935 186.135 11.2247 184.415 10.0909C184.129 9.90134 183.842 9.71347 183.556 9.5256C182.374 10.0593 181.143 10.8772 179.973 11.7035C180.68 12.2106 181.421 12.7326 182.155 13.1981L182.414 13.3627L182.155 13.5273C181.345 14.041 180.524 14.6262 179.751 15.1815L179.468 15.3844C177.677 16.6745 175.827 18.0062 173.992 18.6945C173.347 18.9339 172.75 19.0852 172.165 19.15L172.086 19.1583L172.023 19.1151C168.645 16.7759 161.833 14.1026 158.628 13.5589L157.626 13.3644L158.628 13.1699C161.833 12.6246 168.645 9.95454 172.023 7.61536L172.086 7.57047L172.165 7.58044C172.719 7.64362 173.285 7.77995 173.891 7.9994C174.906 7.33938 176.087 6.58791 177.32 5.89131C175.182 4.90876 173.29 4.42828 171.545 4.42828C170.562 4.42828 169.6 4.58456 168.681 4.88714C167.182 6.5929 165.676 7.88136 164.172 8.87223C162.778 7.58044 161.382 6.81235 159.988 7.60871C158.597 10.292 157.206 11.4209 155.817 12.0277C155.126 12.1541 154.442 12.2655 153.757 12.3685C154.376 11.4924 155.436 10.5647 155.465 10.4134C155.46 10.4084 155.453 10.4034 155.448 10.3968C154.824 9.86476 153.879 9.8897 153.236 10.4034C152.246 11.1948 150.684 12.3951 149.621 13.0086C149.036 13.115 148.451 13.2281 147.868 13.3644C148.451 13.5007 149.038 13.6154 149.623 13.7218C150.689 14.3353 152.248 15.5357 153.239 16.327C153.881 16.8407 154.826 16.8657 155.452 16.3337C155.457 16.3287 155.464 16.3237 155.467 16.3204C155.44 16.1674 154.38 15.2397 153.759 14.3652C154.443 14.4666 155.131 14.578 155.819 14.7044C157.209 15.3112 158.599 16.4401 159.991 19.1234C161.385 19.9197 162.781 19.1517 164.175 17.8615C165.681 18.8507 167.185 20.1392 168.684 21.845C169.602 22.1475 170.564 22.3038 171.548 22.3038C173.385 22.3038 175.388 21.7718 177.667 20.6795C179.67 19.7169 181.707 18.4085 183.46 17.2614ZM161.399 9.64032C161.663 9.68853 161.929 9.81987 162.193 10.0027C161.495 10.3519 160.795 10.6478 160.096 10.9005C160.595 10.4816 161.047 10.0493 161.399 9.64032ZM161.399 17.0835C161.047 16.6745 160.595 16.2406 160.096 15.8216C160.795 16.0743 161.495 16.3702 162.193 16.7194C161.929 16.9023 161.665 17.0353 161.399 17.0835Z" fill="#F2C476"/>
<path d="M209.738 13.3626C209.275 13.2546 208.808 13.1598 208.343 13.0717C207.277 12.4815 205.639 11.2196 204.613 10.4016C203.97 9.88793 203.025 9.86133 202.399 10.3933C202.396 10.3983 202.389 10.4033 202.384 10.41C202.411 10.5646 203.506 11.5205 204.121 12.4067C203.346 12.2919 202.567 12.1706 201.784 12.0259C200.393 11.4191 199.002 10.2903 197.613 7.60527C196.219 6.81058 194.823 7.57867 193.429 8.8688C191.923 7.87959 190.419 6.58947 188.92 4.88537C188.001 4.58113 187.037 4.42651 186.056 4.42651C181.791 4.42651 177.416 7.30934 173.185 10.0957C171.467 11.2263 169.694 12.395 167.939 13.3643C169.694 14.3352 171.471 15.5023 173.189 16.6361C173.475 16.8257 173.763 17.0169 174.05 17.2031C175.225 16.6744 176.459 15.8547 177.631 15.0235C176.924 14.5164 176.18 13.9944 175.449 13.5289L175.188 13.3626L175.449 13.198C176.346 12.6294 177.26 11.9727 178.143 11.336C180.524 9.62358 182.985 7.85133 185.435 7.57867L185.514 7.5687L185.578 7.61192C188.956 9.95277 195.768 12.6245 198.973 13.1681L200.175 13.3626L198.973 13.5571C195.768 14.1024 188.956 16.7725 185.578 19.1116L185.514 19.1565L185.435 19.1466C184.881 19.085 184.315 18.9487 183.71 18.7276C182.755 19.3511 181.537 20.1258 180.282 20.839C182.419 21.8216 184.31 22.3004 186.056 22.3004C187.037 22.3004 188.001 22.1458 188.92 21.8432C190.419 20.1374 191.925 18.849 193.429 17.8581C194.823 19.1499 196.219 19.918 197.613 19.1216C199.004 16.4383 200.393 15.3078 201.784 14.7026C202.566 14.5563 203.346 14.4366 204.121 14.3202C203.506 15.2064 202.411 16.1623 202.386 16.3169C202.391 16.3219 202.398 16.3269 202.403 16.3319C203.029 16.8639 203.974 16.8373 204.615 16.3236C205.639 15.5056 207.278 14.2438 208.343 13.6536C208.808 13.5638 209.275 13.4707 209.738 13.3626ZM196.205 9.64021C196.555 10.0492 197.009 10.4815 197.507 10.9004C196.809 10.6477 196.109 10.3518 195.409 10.0026C195.675 9.81976 195.939 9.69009 196.205 9.64021ZM196.205 17.0834C195.939 17.0351 195.675 16.9021 195.409 16.7193C196.109 16.3701 196.809 16.0775 197.507 15.8215C197.006 16.2438 196.553 16.6744 196.205 17.0834Z" fill="#F2C476"/>
<path d="M178.8 12.6265L177.615 13.4261L178.8 14.2242L179.987 13.4261L178.8 12.6265Z" fill="#F2C476"/>
<path d="M145.925 12.4284C144.666 11.7916 144.889 11.1582 144.596 10.5214C144.303 11.1582 144.524 11.7916 143.267 12.4284C143.08 12.7442 143.263 13.0634 143.569 13.381C143.263 13.6985 143.08 14.0177 143.267 14.3353C144.524 14.9704 144.303 15.6055 144.596 16.2405C144.889 15.6055 144.666 14.9704 145.925 14.3353C146.11 14.0177 145.927 13.6985 145.621 13.381C145.927 13.0634 146.11 12.7442 145.925 12.4284ZM144.596 15.2114C144.51 14.9205 144.087 14.3087 143.737 14.0177C143.756 13.918 143.834 13.8182 143.927 13.7185C144.159 13.9246 144.402 14.1291 144.596 14.3353C144.786 14.1291 145.031 13.9246 145.263 13.7185C145.359 13.8182 145.436 13.918 145.455 14.0177C145.103 14.3087 144.682 14.9205 144.596 15.2114ZM144.306 13.381C144.407 13.2995 144.507 13.2214 144.596 13.1399C144.683 13.2214 144.784 13.2995 144.884 13.381C144.784 13.4625 144.683 13.5406 144.596 13.6221C144.507 13.5406 144.407 13.4625 144.306 13.381ZM145.263 13.0435C145.031 12.8373 144.788 12.6345 144.596 12.4284C144.404 12.6345 144.159 12.8373 143.927 13.0435C143.831 12.9437 143.756 12.844 143.737 12.7442C144.087 12.4533 144.51 11.8432 144.596 11.5505C144.682 11.8432 145.103 12.4533 145.455 12.7442C145.436 12.844 145.357 12.9437 145.263 13.0435Z" fill="#F2C476"/>
<path d="M134.422 11.607C134.182 11.4541 133.871 11.4491 133.628 11.5954C133.42 11.7167 133.214 11.8514 133.007 11.9877C133.782 12.4782 134.555 12.962 135.332 13.3643C134.559 13.7683 133.782 14.2504 133.01 14.7392C133.218 14.8756 133.422 15.0086 133.629 15.1299C133.876 15.2762 134.187 15.2712 134.425 15.1183C135.401 14.5015 136.375 13.8697 137.351 13.3627C136.375 12.8556 135.399 12.2238 134.422 11.607Z" fill="#F2C476"/>
<path d="M142.476 12.1574C142.481 12.1541 142.483 12.1508 142.488 12.1475C142.186 11.8449 141.963 11.539 141.9 11.2364C143.002 10.3519 144.324 8.50818 144.595 7.62372C144.865 8.50818 146.187 10.3519 147.29 11.2364C147.23 11.539 147.003 11.8449 146.703 12.1475C146.707 12.1508 146.71 12.1541 146.715 12.1574C147.405 12.7443 148.533 12.5531 148.866 11.7219C149.058 11.2414 149.058 10.7576 148.764 10.2755C144.817 8.35357 145.511 6.43334 144.595 4.5098C143.676 6.43334 144.373 8.35357 140.425 10.2755C140.131 10.7576 140.131 11.2414 140.325 11.7219C140.656 12.5531 141.786 12.7476 142.476 12.1574Z" fill="#F2C476"/>
<path d="M146.715 14.6045C146.71 14.6079 146.707 14.6128 146.703 14.6145C147.003 14.9171 147.228 15.223 147.29 15.5256C146.187 16.41 144.865 18.2538 144.595 19.1382C144.324 18.2538 143.002 16.41 141.9 15.5256C141.96 15.223 142.186 14.9171 142.488 14.6145C142.483 14.6128 142.481 14.6079 142.476 14.6045C141.786 14.0177 140.656 14.2088 140.325 15.0401C140.131 15.5206 140.131 16.0044 140.425 16.4865C144.373 18.4084 143.678 20.3303 144.595 22.2522C145.515 20.3303 144.817 18.4084 148.764 16.4865C149.058 16.0044 149.058 15.5206 148.866 15.0401C148.533 14.2072 147.405 14.0143 146.715 14.6045Z" fill="#F2C476"/>
<path d="M138.078 11.0051C137.567 10.5978 136.816 10.5746 136.316 11.0002C136.311 11.0051 136.308 11.0068 136.303 11.0118C136.334 11.183 138.011 12.5929 138.011 13.3626C138.011 14.1324 136.334 15.5422 136.303 15.7134C136.308 15.7184 136.311 15.7201 136.316 15.7251C136.814 16.149 137.565 16.1274 138.078 15.7201C139.086 14.9154 140.842 13.5688 141.557 13.3626C140.842 13.1565 139.088 11.8098 138.078 11.0051Z" fill="#F2C476"/>
<path d="M128.083 9.24478C127.62 8.97877 127.154 8.95716 126.691 9.10014C125.747 9.3944 125.453 10.5465 126.106 11.2681C126.109 11.2731 126.113 11.2764 126.116 11.2797C126.435 10.9821 126.756 10.7627 127.073 10.7012C128.001 11.7901 129.939 13.0969 130.868 13.3629C129.939 13.6289 128.001 14.9356 127.073 16.0229C126.752 15.9631 126.433 15.7419 126.116 15.446L126.106 15.4577C125.453 16.1759 125.747 17.3313 126.691 17.6256C127.154 17.7686 127.62 17.747 128.083 17.481C130.102 13.5856 132.12 14.2706 134.14 13.3645C132.12 12.4551 130.102 13.1434 128.083 9.24478Z" fill="#F2C476"/>
<path d="M239.666 12.3154C238.927 12.3071 238.196 12.1525 237.522 11.8582L237.232 11.7335C236.568 11.4475 235.812 11.4475 235.149 11.7335L230.41 13.3611L235.149 14.9871C235.812 15.2747 236.568 15.2747 237.232 14.9871L237.522 14.8624C238.198 14.5698 238.928 14.4152 239.666 14.4068L357.849 13.3611L239.666 12.3154ZM236.179 13.8715C235.565 13.8715 233.924 13.3628 233.924 13.3628C233.924 13.3628 235.565 12.854 236.179 12.854C236.793 12.854 237.29 13.3628 237.29 13.3628C237.29 13.3628 236.793 13.8715 236.179 13.8715Z" fill="#F2C476"/>
<path d="M122.704 11.7335C122.04 11.4475 121.282 11.4475 120.62 11.7335L120.329 11.8582C119.653 12.1508 118.922 12.3054 118.185 12.3154L0 13.3628L118.183 14.4085C118.922 14.4152 119.653 14.5698 120.325 14.864L120.617 14.9887C121.28 15.2763 122.037 15.2763 122.7 14.9887L127.439 13.3628L122.704 11.7335ZM121.67 13.8715C121.056 13.8715 120.557 13.3628 120.557 13.3628C120.557 13.3628 121.054 12.854 121.67 12.854C122.284 12.854 123.925 13.3628 123.925 13.3628C123.925 13.3628 122.284 13.8715 121.67 13.8715Z" fill="#F2C476"/>
</svg>
