<svg width="1442" height="299" viewBox="0 0 1442 299" fill="none" xmlns="http://www.w3.org/2000/svg">
<g clip-path="url(#clip0_296_76)">
<rect width="1442" height="299" fill="#232323"/>
<path d="M293.652 231.75C280.819 231.75 269.319 229.667 259.152 225.5C248.986 221.333 240.819 215.167 234.652 207C228.652 198.833 225.486 189 225.152 177.5H270.652C271.319 184 273.569 189 277.402 192.5C281.236 195.833 286.236 197.5 292.402 197.5C298.736 197.5 303.736 196.083 307.402 193.25C311.069 190.25 312.902 186.167 312.902 181C312.902 176.667 311.402 173.083 308.402 170.25C305.569 167.417 301.986 165.083 297.652 163.25C293.486 161.417 287.486 159.333 279.652 157C268.319 153.5 259.069 150 251.902 146.5C244.736 143 238.569 137.833 233.402 131C228.236 124.167 225.652 115.25 225.652 104.25C225.652 87.9167 231.569 75.1667 243.402 66C255.236 56.6667 270.652 52 289.652 52C308.986 52 324.569 56.6667 336.402 66C348.236 75.1667 354.569 88 355.402 104.5H309.152C308.819 98.8333 306.736 94.4167 302.902 91.25C299.069 87.9167 294.152 86.25 288.152 86.25C282.986 86.25 278.819 87.6667 275.652 90.5C272.486 93.1667 270.902 97.0833 270.902 102.25C270.902 107.917 273.569 112.333 278.902 115.5C284.236 118.667 292.569 122.083 303.902 125.75C315.236 129.583 324.402 133.25 331.402 136.75C338.569 140.25 344.736 145.333 349.902 152C355.069 158.667 357.652 167.25 357.652 177.75C357.652 187.75 355.069 196.833 349.902 205C344.902 213.167 337.569 219.667 327.902 224.5C318.236 229.333 306.819 231.75 293.652 231.75ZM517.711 111C517.711 121.167 515.378 130.5 510.711 139C506.044 147.333 498.878 154.083 489.211 159.25C479.544 164.417 467.544 167 453.211 167H426.711V230H383.961V54.5H453.211C467.211 54.5 479.044 56.9167 488.711 61.75C498.378 66.5833 505.628 73.25 510.461 81.75C515.294 90.25 517.711 100 517.711 111ZM449.961 133C458.128 133 464.211 131.083 468.211 127.25C472.211 123.417 474.211 118 474.211 111C474.211 104 472.211 98.5833 468.211 94.75C464.211 90.9167 458.128 89 449.961 89H426.711V133H449.961ZM582.717 88.75V124.25H639.967V157.25H582.717V195.75H647.467V230H539.967V54.5H647.467V88.75H582.717ZM667.971 142C667.971 124.667 671.721 109.25 679.221 95.75C686.721 82.0833 697.137 71.5 710.471 64C723.971 56.3333 739.221 52.5 756.221 52.5C777.054 52.5 794.887 58 809.721 69C824.554 80 834.471 95 839.471 114H792.471C788.971 106.667 783.971 101.083 777.471 97.25C771.137 93.4167 763.887 91.5 755.721 91.5C742.554 91.5 731.887 96.0833 723.721 105.25C715.554 114.417 711.471 126.667 711.471 142C711.471 157.333 715.554 169.583 723.721 178.75C731.887 187.917 742.554 192.5 755.721 192.5C763.887 192.5 771.137 190.583 777.471 186.75C783.971 182.917 788.971 177.333 792.471 170H839.471C834.471 189 824.554 204 809.721 215C794.887 225.833 777.054 231.25 756.221 231.25C739.221 231.25 723.971 227.5 710.471 220C697.137 212.333 686.721 201.75 679.221 188.25C671.721 174.75 667.971 159.333 667.971 142ZM908.4 54.5V230H865.65V54.5H908.4ZM1048.63 199H983.131L972.631 230H927.881L991.381 54.5H1040.88L1104.38 230H1059.13L1048.63 199ZM1037.63 166L1015.88 101.75L994.381 166H1037.63ZM1166.46 197H1222.46V230H1123.71V54.5H1166.46V197Z" fill="url(#paint0_linear_296_76)"/>
<g filter="url(#filter0_d_296_76)">
<path d="M619.396 75.73V73.48H629.611V75.73H619.396ZM656.594 84.55H656.819V85H650.429V84.55H650.654C650.894 84.55 651.104 84.46 651.284 84.28C651.464 84.1 651.614 83.89 651.734 83.65C651.884 83.41 651.989 83.155 652.049 82.885C652.109 82.585 652.139 82.315 652.139 82.075V56.965H646.919C646.439 56.965 646.019 57.07 645.659 57.28C645.299 57.49 644.999 57.76 644.759 58.09C644.519 58.39 644.339 58.735 644.219 59.125C644.099 59.485 644.039 59.845 644.039 60.205H643.589V55.3H663.794V60.205H663.344C663.344 59.845 663.284 59.485 663.164 59.125C663.044 58.735 662.864 58.39 662.624 58.09C662.384 57.76 662.084 57.49 661.724 57.28C661.364 57.07 660.944 56.965 660.464 56.965H655.154V82.075C655.154 82.315 655.184 82.585 655.244 82.885C655.304 83.155 655.394 83.41 655.514 83.65C655.664 83.89 655.814 84.1 655.964 84.28C656.144 84.46 656.354 84.55 656.594 84.55ZM679.182 54.85C681.522 54.85 683.622 55.27 685.482 56.11C687.342 56.92 688.917 58.03 690.207 59.44C691.527 60.82 692.532 62.44 693.222 64.3C693.942 66.13 694.302 68.05 694.302 70.06C694.302 72.31 693.882 74.38 693.042 76.27C692.232 78.16 691.107 79.78 689.667 81.13C688.227 82.48 686.547 83.545 684.627 84.325C682.737 85.075 680.712 85.45 678.552 85.45C676.242 85.45 674.157 85.03 672.297 84.19C670.467 83.35 668.907 82.24 667.617 80.86C666.357 79.48 665.382 77.89 664.692 76.09C664.002 74.29 663.657 72.415 663.657 70.465C663.657 68.545 664.002 66.655 664.692 64.795C665.382 62.905 666.387 61.225 667.707 59.755C669.057 58.285 670.692 57.1 672.612 56.2C674.532 55.3 676.722 54.85 679.182 54.85ZM679.137 83.875C681.147 83.785 682.902 83.335 684.402 82.525C685.932 81.685 687.207 80.635 688.227 79.375C689.247 78.085 689.997 76.675 690.477 75.145C690.987 73.615 691.242 72.1 691.242 70.6C691.242 68.95 690.942 67.285 690.342 65.605C689.742 63.925 688.887 62.41 687.777 61.06C686.667 59.68 685.332 58.57 683.772 57.73C682.242 56.86 680.517 56.425 678.597 56.425C676.737 56.425 675.072 56.845 673.602 57.685C672.132 58.495 670.872 59.545 669.822 60.835C668.802 62.125 668.022 63.565 667.482 65.155C666.942 66.745 666.672 68.305 666.672 69.835C666.672 71.485 666.987 73.15 667.617 74.83C668.247 76.48 669.117 77.98 670.227 79.33C671.337 80.68 672.642 81.775 674.142 82.615C675.672 83.455 677.337 83.875 679.137 83.875ZM698.206 84.55H698.431C698.641 84.55 698.836 84.46 699.016 84.28C699.196 84.1 699.346 83.89 699.466 83.65C699.616 83.41 699.721 83.155 699.781 82.885C699.841 82.585 699.871 82.315 699.871 82.075V58.09C699.871 57.88 699.841 57.64 699.781 57.37C699.721 57.1 699.631 56.845 699.511 56.605C699.391 56.365 699.241 56.17 699.061 56.02C698.881 55.84 698.671 55.75 698.431 55.75H698.206V55.3H706.891C709.261 55.3 711.391 55.72 713.281 56.56C715.171 57.37 716.761 58.48 718.051 59.89C719.371 61.27 720.376 62.86 721.066 64.66C721.756 66.46 722.101 68.335 722.101 70.285C722.101 72.115 721.771 73.915 721.111 75.685C720.451 77.425 719.461 78.985 718.141 80.365C716.821 81.745 715.171 82.87 713.191 83.74C711.211 84.58 708.916 85 706.306 85H698.206V84.55ZM719.041 70.96C719.041 69.04 718.696 67.225 718.006 65.515C717.316 63.805 716.341 62.32 715.081 61.06C713.851 59.77 712.381 58.75 710.671 58C708.991 57.25 707.161 56.875 705.181 56.875H702.886V83.425H705.271C706.891 83.425 708.511 83.185 710.131 82.705C711.781 82.195 713.266 81.43 714.586 80.41C715.906 79.36 716.971 78.055 717.781 76.495C718.621 74.935 719.041 73.09 719.041 70.96ZM743.17 84.55H743.395C744.115 84.55 744.475 84.22 744.475 83.56C744.475 83.32 744.43 83.065 744.34 82.795L740.29 71.86H732.415L728.5 82.615C728.41 82.855 728.365 83.08 728.365 83.29C728.365 83.68 728.47 83.995 728.68 84.235C728.89 84.445 729.115 84.55 729.355 84.55H729.58V85H724.585V84.55H724.81C725.2 84.55 725.575 84.325 725.935 83.875C726.325 83.395 726.64 82.84 726.88 82.21L737.185 54.76L747.265 81.94C747.475 82.54 747.76 83.125 748.12 83.695C748.51 84.265 749.005 84.55 749.605 84.55H749.83V85H743.17V84.55ZM732.865 70.33H739.795L736.33 60.925L732.865 70.33ZM745.36 55.3H751.57V55.75C751.36 55.78 751.165 55.87 750.985 56.02C750.805 56.17 750.715 56.395 750.715 56.695C750.715 56.845 750.76 57.01 750.85 57.19L757.6 69.025L764.08 57.82C764.2 57.58 764.275 57.4 764.305 57.28C764.365 57.16 764.395 57.01 764.395 56.83C764.335 56.35 764.155 56.05 763.855 55.93C763.585 55.81 763.42 55.75 763.36 55.75V55.3H768.175V55.75C767.725 55.75 767.26 56.035 766.78 56.605C766.33 57.145 765.94 57.7 765.61 58.27L758.59 70.42V82.075C758.59 82.315 758.62 82.57 758.68 82.84C758.77 83.11 758.875 83.38 758.995 83.65C759.115 83.89 759.265 84.1 759.445 84.28C759.625 84.46 759.835 84.55 760.075 84.55H760.3V85H753.865V84.55H754.09C754.33 84.55 754.54 84.475 754.72 84.325C754.9 84.145 755.05 83.935 755.17 83.695C755.32 83.425 755.425 83.155 755.485 82.885C755.545 82.585 755.575 82.315 755.575 82.075V70.825L748.33 58.405C748.18 58.165 748 57.895 747.79 57.595C747.58 57.295 747.355 57.01 747.115 56.74C746.875 56.47 746.62 56.245 746.35 56.065C746.08 55.855 745.825 55.75 745.585 55.75H745.36V55.3ZM771.923 55.165C772.793 55.165 773.423 55.465 773.813 56.065C774.233 56.635 774.443 57.31 774.443 58.09C774.443 58.57 774.383 59.08 774.263 59.62C774.143 60.16 773.903 60.715 773.543 61.285C773.213 61.855 772.718 62.425 772.058 62.995C771.428 63.535 770.588 64.045 769.538 64.525L769.268 64.12C769.868 63.55 770.333 63.055 770.663 62.635C771.023 62.215 771.293 61.84 771.473 61.51C771.653 61.15 771.758 60.82 771.788 60.52C771.848 60.22 771.878 59.905 771.878 59.575C771.878 59.335 771.803 59.155 771.653 59.035C771.533 58.915 771.368 58.795 771.158 58.675C770.918 58.525 770.678 58.36 770.438 58.18C770.198 57.97 770.078 57.61 770.078 57.1C770.078 56.53 770.258 56.065 770.618 55.705C770.978 55.345 771.413 55.165 771.923 55.165ZM795.006 77.035C795.006 78.535 794.706 79.825 794.106 80.905C793.506 81.955 792.726 82.81 791.766 83.47C790.836 84.13 789.771 84.61 788.571 84.91C787.401 85.21 786.231 85.36 785.061 85.36C783.861 85.36 782.826 85.24 781.956 85C781.086 84.76 780.291 84.535 779.571 84.325C779.091 84.175 778.656 84.055 778.266 83.965C777.876 83.845 777.486 83.785 777.096 83.785V78.655H777.546C777.546 79.795 777.831 80.71 778.401 81.4C779.001 82.06 779.691 82.57 780.471 82.93C781.251 83.29 782.031 83.53 782.811 83.65C783.591 83.74 784.161 83.785 784.521 83.785C785.811 83.785 786.921 83.605 787.851 83.245C788.781 82.855 789.546 82.36 790.146 81.76C790.746 81.13 791.181 80.44 791.451 79.69C791.751 78.94 791.901 78.175 791.901 77.395C791.901 76.405 791.691 75.58 791.271 74.92C790.851 74.23 790.296 73.63 789.606 73.12C788.946 72.61 788.181 72.175 787.311 71.815C786.441 71.455 785.556 71.095 784.656 70.735C783.636 70.345 782.631 69.94 781.641 69.52C780.651 69.1 779.766 68.59 778.986 67.99C778.206 67.36 777.576 66.625 777.096 65.785C776.616 64.915 776.376 63.85 776.376 62.59C776.376 61.27 776.631 60.13 777.141 59.17C777.651 58.18 778.326 57.37 779.166 56.74C780.036 56.11 781.011 55.645 782.091 55.345C783.201 55.015 784.326 54.85 785.466 54.85C786.246 54.85 786.981 54.91 787.671 55.03C788.361 55.12 789.021 55.24 789.651 55.39C790.161 55.51 790.656 55.615 791.136 55.705C791.616 55.765 792.081 55.795 792.531 55.795V60.43H792.081C792.021 58.87 791.406 57.82 790.236 57.28C789.066 56.71 787.446 56.425 785.376 56.425C784.176 56.425 783.186 56.635 782.406 57.055C781.656 57.445 781.056 57.94 780.606 58.54C780.156 59.11 779.841 59.74 779.661 60.43C779.511 61.09 779.436 61.675 779.436 62.185C779.436 63.025 779.616 63.745 779.976 64.345C780.366 64.945 780.876 65.47 781.506 65.92C782.136 66.37 782.856 66.775 783.666 67.135C784.506 67.495 785.376 67.84 786.276 68.17C787.296 68.56 788.331 68.98 789.381 69.43C790.431 69.88 791.361 70.435 792.171 71.095C793.011 71.755 793.686 72.565 794.196 73.525C794.736 74.485 795.006 75.655 795.006 77.035ZM809.811 75.73V73.48H820.026V75.73H809.811Z" fill="#DCB472"/>
</g>
</g>
<defs>
<filter id="filter0_d_296_76" x="615.396" y="54.76" width="208.63" height="38.6899" filterUnits="userSpaceOnUse" color-interpolation-filters="sRGB">
<feFlood flood-opacity="0" result="BackgroundImageFix"/>
<feColorMatrix in="SourceAlpha" type="matrix" values="0 0 0 0 0 0 0 0 0 0 0 0 0 0 0 0 0 0 127 0" result="hardAlpha"/>
<feOffset dy="4"/>
<feGaussianBlur stdDeviation="2"/>
<feComposite in2="hardAlpha" operator="out"/>
<feColorMatrix type="matrix" values="0 0 0 0 0 0 0 0 0 0 0 0 0 0 0 0 0 0 0.25 0"/>
<feBlend mode="normal" in2="BackgroundImageFix" result="effect1_dropShadow_296_76"/>
<feBlend mode="normal" in="SourceGraphic" in2="effect1_dropShadow_296_76" result="shape"/>
</filter>
<linearGradient id="paint0_linear_296_76" x1="721" y1="-45" x2="721" y2="330" gradientUnits="userSpaceOnUse">
<stop offset="0.109375" stop-color="#4A4946"/>
<stop offset="1" stop-color="#4A4946" stop-opacity="0"/>
</linearGradient>
<clipPath id="clip0_296_76">
<rect width="1442" height="299" fill="white"/>
</clipPath>
</defs>
</svg>
